<ttFont>
        <CharString name=".notdef">
          0 780 838 rmoveto
          -19 0 -16 10 -10 18 -82 219 -40 115 2 11 9 40 24 20 39 0 rrcurveto
          365 hlineto
          42 0 16 -21 -9 -43 -2 -11 -89 -114 -174 -218 -15 -17 -19 -9 -22 0 rrcurveto
          34 -707 rmoveto
          -365 hlineto
          -42 0 -17 21 9 42 3 12 88 115 174 216 17 19 18 9 19 0 24 0 16 -10 8 -21 82 -217 39 -114 -2 -13 -9 -40 -23 -19 -39 0 rrcurveto
          -431 253 rmoveto
          -44 0 -17 20 8 40 rrcurveto
          110 515 rlineto
          8 38 24 19 41 0 20 0 16 -8 11 -16 87 -182 42 -98 -3 -13 -3 -13 -83 -97 -163 -183 -17 -14 -18 -8 -19 0 rrcurveto
          603 hmoveto
          -18 0 -15 8 -13 16 -86 183 -42 99 3 13 3 12 82 97 163 182 18 15 18 7 17 0 44 0 18 -20 -9 -41 rrcurveto
          -109 -515 rlineto
          -8 -37 -25 -19 -41 0 rrcurveto
          -6 -364 rmoveto
          26 0 23 9 21 19 20 18 13 20 4 21 rrcurveto
          253 1188 rlineto
          5 22 -4 20 -12 17 -12 17 -19 9 -25 0 rrcurveto
          -756 hlineto
          -25 0 -23 -9 -20 -17 -20 -18 -13 -21 -5 -25 rrcurveto
          -253 -1187 rlineto
          -4 -21 4 -18 12 -18 12 -17 18 -9 24 0 rrcurveto
          endchar
        </CharString>
        <CharString name="A">
          0 871 492 rmoveto
          -332 hlineto
          -32 0 -15 15 0 30 0 4 0 4 1 5 1 5 96 186 190 365 15 27 21 14 28 0 27 0 16 -14 3 -27 34 -352 17 -185 0 -19 0 -11 -8 -14 -16 -15 -13 -12 -15 -6 -18 0 rrcurveto
          176 -502 rmoveto
          20 0 19 7 17 15 22 19 11 23 0 25 rrcurveto
          -120 1225 rlineto
          -4 32 -13 26 -21 19 -21 19 -26 10 -31 0 -31 0 -31 -10 -29 -19 -30 -19 -24 -26 -17 -32 -428 -819 -215 -414 -3 -9 -1 -5 -1 -5 0 -5 0 -13 4 -11 8 -11 11 -15 15 -7 21 0 rrcurveto
          16 0 15 5 15 9 15 9 11 12 9 16 rrcurveto
          141 266 rlineto
          17 31 25 15 31 0 rrcurveto
          462 hlineto
          31 0 18 -15 4 -31 rrcurveto
          29 -266 rlineto
          4 -34 20 -17 35 0 rrcurveto
          endchar
        </CharString>
        <CharString name="AE">
          0 1120 20 rmoveto
          37 0 32 27 7 36 8 35 -16 20 -34 0 rrcurveto
          -182 hlineto
          -31 0 -27 28 0 30 rrcurveto
          1 413 rlineto
          6 26 27 23 26 0 rrcurveto
          225 hlineto
          36 0 32 27 8 36 7 35 -16 20 -34 0 rrcurveto
          -256 hlineto
          -30 0 -28 28 1 29 rrcurveto
          -3 379 rlineto
          5 26 28 24 25 0 rrcurveto
          348 hlineto
          36 0 32 26 8 37 7 35 -16 20 -33 0 rrcurveto
          -619 hlineto
          -29 0 -27 -18 -15 -28 rrcurveto
          -611 -1218 rlineto
          -4 -8 -2 -6 -2 -8 -9 -44 21 -30 45 0 38 0 36 24 17 38 rrcurveto
          118 244 rlineto
          12 27 32 20 27 0 rrcurveto
          323 hlineto
          30 0 27 -28 1 -29 rrcurveto
          -3 -252 rlineto
          0 -29 14 -15 30 0 rrcurveto
          -98 475 rmoveto
          -241 hlineto
          -28 0 -21 31 5 27 rrcurveto
          3 8 267 586 rlineto
          7 18 22 12 15 0 17 0 23 -16 -1 -24 rrcurveto
          -9 -593 rlineto
          -6 -26 -27 -23 -26 0 rrcurveto
          endchar
        </CharString>
        <CharString name="Aacute">
          0 875 492 rmoveto
          -332 hlineto
          -34 0 -17 16 0 33 0 10 96 190 192 368 14 25 20 13 26 0 30 0 17 -15 3 -30 34 -357 17 -184 0 -12 0 -13 -7 -14 -15 -13 -12 -11 -15 -6 -17 0 rrcurveto
          168 -502 rmoveto
          21 0 20 8 17 15 24 20 11 23 0 26 rrcurveto
          -120 1226 rlineto
          -3 31 -12 25 -21 18 -20 19 -26 9 -30 0 -31 0 -31 -10 -31 -20 -31 -20 -24 -27 -18 -32 rrcurveto
          -638 -1220 rlineto
          -7 -13 -3 -12 0 -12 0 -13 4 -11 7 -10 10 -13 15 -7 19 0 17 0 16 5 15 10 15 9 12 14 9 16 rrcurveto
          142 267 rlineto
          16 28 23 14 30 0 rrcurveto
          462 hlineto
          34 0 19 -17 4 -33 rrcurveto
          28 -266 rlineto
          2 -14 6 -12 10 -8 9 -9 13 -4 16 0 rrcurveto
          -249 1595 rmoveto
          6 0 4 1 8 3 rrcurveto
          306 109 rlineto
          41 15 21 33 0 34 0 30 -18 19 -34 0 -13 0 -11 -3 -14 -7 rrcurveto
          -293 -153 rlineto
          -21 -11 -13 -19 0 -20 0 -20 9 -11 22 0 rrcurveto
          endchar
        </CharString>
        <CharString name="Acircumflex">
          0 875 492 rmoveto
          -332 hlineto
          -34 0 -17 16 0 33 0 10 96 190 192 368 14 25 20 13 26 0 30 0 17 -15 3 -30 34 -357 17 -184 0 -12 0 -13 -7 -14 -15 -13 -12 -11 -15 -6 -17 0 rrcurveto
          168 -502 rmoveto
          21 0 20 8 17 15 24 20 11 23 0 26 rrcurveto
          -120 1226 rlineto
          -3 31 -12 25 -21 18 -20 19 -26 9 -30 0 -31 0 -31 -10 -31 -20 -31 -20 -24 -27 -18 -32 rrcurveto
          -638 -1220 rlineto
          -7 -13 -3 -12 0 -12 0 -13 4 -11 7 -10 10 -13 15 -7 19 0 17 0 16 5 15 10 15 9 12 14 9 16 rrcurveto
          142 267 rlineto
          16 28 23 14 30 0 rrcurveto
          462 hlineto
          34 0 19 -17 4 -33 rrcurveto
          28 -266 rlineto
          2 -14 6 -12 10 -8 9 -9 13 -4 16 0 rrcurveto
          -355 1605 rmoveto
          9 0 8 3 11 6 rrcurveto
          200 113 rlineto
          15 8 18 5 15 0 15 0 19 -6 11 -9 rrcurveto
          154 -113 rlineto
          7 -5 5 -1 9 0 15 0 13 5 13 13 12 10 5 10 4 13 0 2 0 3 0 3 0 11 -2 6 -6 7 rrcurveto
          -146 144 rlineto
          -23 24 -31 12 -38 0 -38 0 -38 -13 -35 -24 rrcurveto
          -208 -144 rlineto
          -15 -11 -8 -13 -3 -15 -1 -3 0 -3 0 -4 0 -8 1 -5 5 -7 7 -10 7 -4 14 0 rrcurveto
          endchar
        </CharString>
        <CharString name="Adieresis">
          0 875 492 rmoveto
          -332 hlineto
          -34 0 -17 16 0 33 0 10 96 190 192 368 14 25 20 13 26 0 30 0 17 -15 3 -30 34 -357 17 -184 0 -12 0 -13 -7 -14 -15 -13 -12 -11 -15 -6 -17 0 rrcurveto
          168 -502 rmoveto
          21 0 20 8 17 15 24 20 11 23 0 26 rrcurveto
          -120 1226 rlineto
          -3 31 -12 25 -21 18 -20 19 -26 9 -30 0 -31 0 -31 -10 -31 -20 -31 -20 -24 -27 -18 -32 rrcurveto
          -638 -1220 rlineto
          -7 -13 -3 -12 0 -12 0 -13 4 -11 7 -10 10 -13 15 -7 19 0 17 0 16 5 15 10 15 9 12 14 9 16 rrcurveto
          142 267 rlineto
          16 28 23 14 30 0 rrcurveto
          462 hlineto
          34 0 19 -17 4 -33 rrcurveto
          28 -266 rlineto
          2 -14 6 -12 10 -8 9 -9 13 -4 16 0 rrcurveto
          -324 1603 rmoveto
          29 0 27 10 24 20 32 25 16 33 0 39 0 17 -5 14 -9 12 -15 18 -21 9 -27 0 -31 0 -27 -10 -25 -19 -32 -26 -16 -32 0 -38 0 -17 5 -16 11 -12 14 -18 22 -9 28 0 rrcurveto
          431 hmoveto
          30 0 27 10 25 20 32 25 16 33 0 39 0 17 -5 14 -9 12 -15 18 -22 9 -28 0 -29 0 -27 -10 -25 -19 -32 -26 -16 -32 0 -38 0 -17 5 -16 11 -12 14 -18 21 -9 27 0 rrcurveto
          endchar
        </CharString>
        <CharString name="Agrave">
          0 875 492 rmoveto
          -332 hlineto
          -34 0 -17 16 0 33 0 10 96 190 192 368 14 25 20 13 26 0 30 0 17 -15 3 -30 34 -357 17 -184 0 -12 0 -13 -7 -14 -15 -13 -12 -11 -15 -6 -17 0 rrcurveto
          168 -502 rmoveto
          21 0 20 8 17 15 24 20 11 23 0 26 rrcurveto
          -120 1226 rlineto
          -3 31 -12 25 -21 18 -20 19 -26 9 -30 0 -31 0 -31 -10 -31 -20 -31 -20 -24 -27 -18 -32 rrcurveto
          -638 -1220 rlineto
          -7 -13 -3 -12 0 -12 0 -13 4 -11 7 -10 10 -13 15 -7 19 0 17 0 16 5 15 10 15 9 12 14 9 16 rrcurveto
          142 267 rlineto
          16 28 23 14 30 0 rrcurveto
          462 hlineto
          34 0 19 -17 4 -33 rrcurveto
          28 -266 rlineto
          2 -14 6 -12 10 -8 9 -9 13 -4 16 0 rrcurveto
          51 1595 rmoveto
          17 0 16 9 13 17 6 8 3 7 1 6 rrcurveto
          2 12 rlineto
          0 11 -3 6 -10 6 rrcurveto
          -229 153 rlineto
          -9 7 -9 2 -12 0 -26 0 -24 -11 -20 -24 -10 -13 -5 -10 -2 -14 -2 -6 0 -4 0 -5 0 -22 8 -14 20 -9 rrcurveto
          260 -109 rlineto
          5 -2 4 -1 6 0 rrcurveto
          endchar
        </CharString>
        <CharString name="Aring">
          0 875 492 rmoveto
          -332 hlineto
          -34 0 -17 16 0 33 0 10 96 190 192 368 14 25 20 13 26 0 30 0 17 -15 3 -30 34 -357 17 -184 0 -12 0 -13 -7 -14 -15 -13 -12 -11 -15 -6 -17 0 rrcurveto
          168 -502 rmoveto
          21 0 20 8 17 15 24 20 11 23 0 26 rrcurveto
          -120 1226 rlineto
          -3 31 -12 25 -21 18 -20 19 -26 9 -30 0 -31 0 -31 -10 -31 -20 -31 -20 -24 -27 -18 -32 rrcurveto
          -638 -1220 rlineto
          -7 -13 -3 -12 0 -12 0 -13 4 -11 7 -10 10 -13 15 -7 19 0 17 0 16 5 15 10 15 9 12 14 9 16 rrcurveto
          142 267 rlineto
          16 28 23 14 30 0 rrcurveto
          462 hlineto
          34 0 19 -17 4 -33 rrcurveto
          28 -266 rlineto
          2 -14 6 -12 10 -8 9 -9 13 -4 16 0 rrcurveto
          -120 1541 rmoveto
          65 0 57 20 50 40 64 51 32 63 0 73 0 36 -11 32 -22 27 -32 38 -47 19 -63 0 -65 0 -58 -20 -49 -40 -49 -39 -31 -49 -12 -57 -4 -15 -1 -14 0 -13 0 -36 11 -32 22 -27 rrcurveto
          32 -38 47 -19 64 0 rrcurveto
          22 64 rmoveto
          -39 0 -27 11 -17 21 -16 22 -9 23 0 25 0 11 2 12 2 13 9 41 19 32 27 23 28 23 32 12 37 0 72 0 36 -34 0 -68 0 -11 -2 -13 -2 -13 -9 -40 -18 -31 -27 -24 rrcurveto
          -27 -23 -33 -12 -38 0 rrcurveto
          endchar
        </CharString>
        <CharString name="Atilde">
          0 875 492 rmoveto
          -332 hlineto
          -34 0 -17 16 0 33 0 10 96 190 192 368 14 25 20 13 26 0 30 0 17 -15 3 -30 34 -357 17 -184 0 -12 0 -13 -7 -14 -15 -13 -12 -11 -15 -6 -17 0 rrcurveto
          168 -502 rmoveto
          21 0 20 8 17 15 24 20 11 23 0 26 rrcurveto
          -120 1226 rlineto
          -3 31 -12 25 -21 18 -20 19 -26 9 -30 0 -31 0 -31 -10 -31 -20 -31 -20 -24 -27 -18 -32 rrcurveto
          -638 -1220 rlineto
          -7 -13 -3 -12 0 -12 0 -13 4 -11 7 -10 10 -13 15 -7 19 0 17 0 16 5 15 10 15 9 12 14 9 16 rrcurveto
          142 267 rlineto
          16 28 23 14 30 0 rrcurveto
          462 hlineto
          34 0 19 -17 4 -33 rrcurveto
          28 -266 rlineto
          2 -14 6 -12 10 -8 9 -9 13 -4 16 0 rrcurveto
          14 1620 rmoveto
          72 0 63 34 64 73 8 10 4 9 2 8 rrcurveto
          2 13 rlineto
          0 15 -4 8 -13 5 -8 4 -5 1 -8 0 -16 0 -14 -6 -14 -13 -8 -10 -12 -9 -8 -6 -24 -17 -24 -9 -25 0 -29 0 -29 11 -21 19 -17 16 -19 15 -23 16 -19 14 -25 6 -36 0 rrcurveto
          -48 0 -42 -16 -42 -33 -24 -19 -22 -20 -19 -22 -10 -11 -4 -8 -2 -10 -1 -4 0 -2 0 -4 0 -15 3 -7 13 -7 6 -3 4 -1 9 0 26 0 10 12 34 33 22 19 28 10 28 0 rrcurveto
          29 0 28 -12 21 -18 19 -16 20 -16 22 -16 21 -15 23 -6 34 0 rrcurveto
          endchar
        </CharString>
        <CharString name="B">
          0 668 140 rmoveto
          -225 hlineto
          -18 0 -13 5 -8 11 -7 10 -4 12 0 11 0 5 28 134 56 263 3 17 9 15 15 12 15 12 16 6 17 0 rrcurveto
          226 1 rlineto
          81 -1 58 -21 36 -41 35 -41 18 -43 0 -45 0 -16 -1 -15 -4 -17 -17 -78 -40 -65 -65 -52 -65 -53 -70 -26 -76 0 rrcurveto
          139 654 rmoveto
          -225 hlineto
          -18 0 -13 5 -8 10 -8 11 -4 10 0 11 0 4 25 119 49 233 4 17 9 15 15 12 14 12 16 6 18 0 rrcurveto
          225 hlineto
          59 0 45 -16 31 -33 31 -33 16 -38 0 -43 0 -16 -2 -18 -4 -19 -14 -66 -35 -58 -55 -50 -55 -50 -57 -25 -59 0 rrcurveto
          -170 -794 rmoveto
          76 0 73 18 71 37 71 36 60 49 51 61 50 61 34 70 17 81 6 30 4 28 0 26 0 80 -31 61 -61 41 rrcurveto
          -17 12 rlineto
          -13 9 -7 11 0 12 0 17 14 17 27 16 41 27 34 36 27 45 24 41 19 54 15 68 5 23 2 22 0 21 0 36 -6 35 -13 33 -21 53 -33 45 -47 35 -47 35 -58 18 -69 0 rrcurveto
          -353 hlineto
          -21 0 -19 -7 -17 -15 -18 -15 -11 -17 -4 -20 -179 -841 -89 -423 0 -5 0 -13 4 -12 8 -10 11 -15 16 -7 21 0 rrcurveto
          endchar
        </CharString>
        <CharString name="C">
          0 724 -10 rmoveto
          93 0 85 13 79 25 48 15 23 31 0 49 0 31 -16 15 -32 0 -5 0 -5 -1 -6 -3 -53 -24 -76 -12 -99 0 -121 3 -82 40 -41 78 -41 77 -21 81 0 84 0 62 9 69 16 76 rrcurveto
          39 183 69 141 101 99 103 101 109 51 115 0 108 0 68 -9 29 -18 7 -4 5 -2 4 0 13 0 12 4 12 9 24 18 11 22 0 26 0 60 -94 30 -188 0 -161 0 -144 -64 -125 -127 rrcurveto
          -122 -130 -86 -176 -51 -222 -17 -80 -9 -74 0 -69 0 -109 22 -96 42 -82 71 -127 117 -64 161 0 rrcurveto
          endchar
        </CharString>
        <CharString name="Ccedilla">
          0 720 -10 rmoveto
          93 0 85 13 79 25 50 15 25 33 0 49 0 29 -14 15 -30 0 -6 0 -5 -1 -5 -3 -53 -24 -75 -12 -99 0 -123 3 -82 41 -42 79 -42 79 -21 82 0 83 0 62 8 69 16 76 rrcurveto
          39 183 70 140 99 97 100 98 104 50 109 3 114 0 73 -9 30 -19 6 -3 5 -2 4 0 13 0 13 5 12 9 26 19 13 23 0 28 0 57 -93 28 -186 0 -162 0 -145 -64 -126 -129 rrcurveto
          -123 -130 -87 -177 -50 -223 -17 -80 -9 -74 0 -69 0 -108 21 -96 43 -82 70 -125 115 -63 160 0 rrcurveto
          -248 -467 rmoveto
          68 0 60 16 56 33 55 34 32 44 13 64 3 12 1 10 0 10 0 26 -6 20 -15 23 -19 26 -30 16 -54 7 -16 3 -16 18 0 19 rrcurveto
          6 vlineto
          13 59 2 12 rlineto
          0 21 -11 11 -24 0 -27 0 -25 -19 -8 -28 rrcurveto
          -40 -138 -1 -5 rlineto
          0 -8 1 -1 9 0 39 -2 32 -6 24 -8 30 -11 19 -26 0 -31 0 -7 -1 -8 -1 -8 -8 -35 -21 -27 -29 -15 -28 -13 -35 -7 -37 0 -33 0 -33 4 -28 10 -5 2 -3 0 -4 0 rrcurveto
          -17 0 -16 -8 -12 -16 -6 -8 -3 -7 -1 -6 rrcurveto
          -1 -10 rlineto
          0 -21 7 -2 37 -12 36 -8 36 -5 41 0 rrcurveto
          endchar
        </CharString>
        <CharString name="D">
          0 475 140 rmoveto
          -32 hlineto
          -18 0 -13 5 -8 11 -8 11 -4 11 0 12 0 4 70 336 142 667 4 18 10 15 15 12 15 11 16 6 17 0 51 0 49 -2 46 -3 46 -3 43 -9 39 -14 39 -15 33 -24 27 -34 rrcurveto
          24 -31 13 -31 3 -31 3 -31 1 -23 0 -16 0 -70 -18 -120 -37 -170 -37 -173 -63 -126 -90 -77 -90 -77 -126 -39 -162 0 rrcurveto
          -30 -140 rmoveto
          141 0 119 21 97 42 97 41 79 67 63 92 62 92 47 123 33 154 rrcurveto
          38 176 rlineto
          17 79 8 70 0 62 0 155 -54 106 -107 59 -75 41 -101 20 -127 0 rrcurveto
          -200 hlineto
          -21 0 -19 -7 -17 -15 -18 -15 -11 -17 -4 -20 -179 -841 -89 -423 0 -5 0 -13 4 -12 8 -10 11 -15 16 -7 21 0 rrcurveto
          endchar
        </CharString>
        <CharString name="E">
          0 968 hmoveto
          19 0 18 7 17 14 22 17 11 22 0 25 0 13 -4 11 -8 10 -11 14 -15 7 -19 0 rrcurveto
          -525 hlineto
          -18 0 -13 5 -8 11 -8 11 -4 11 0 11 0 5 26 126 53 248 3 18 10 15 15 12 15 11 16 6 17 0 rrcurveto
          468 hlineto
          19 0 18 7 17 14 22 17 11 22 0 25 0 13 -4 11 -8 10 -11 14 -15 7 -19 0 rrcurveto
          -468 hlineto
          -18 0 -13 5 -8 11 -9 10 -4 11 0 12 0 4 27 126 52 248 4 17 10 15 15 13 15 12 16 6 17 0 rrcurveto
          525 hlineto
          19 0 18 7 17 14 22 17 11 22 0 25 0 13 -4 11 -8 10 -11 14 -15 7 -19 0 rrcurveto
          -654 hlineto
          -21 0 -19 -7 -17 -14 -18 -15 -11 -17 -4 -20 -179 -842 -89 -424 0 -5 0 -13 4 -11 8 -10 11 -15 16 -7 21 0 rrcurveto
          endchar
        </CharString>
        <CharString name="Eacute">
          0 968 20 rmoveto
          20 0 19 7 17 15 24 19 11 23 0 26 0 12 -3 10 -8 10 -10 12 -14 6 -18 0 rrcurveto
          -525 hlineto
          -19 0 -13 6 -9 12 -9 11 -5 12 0 13 0 4 25 120 50 234 4 17 9 14 13 11 14 11 15 5 17 0 rrcurveto
          468 hlineto
          20 0 19 7 17 15 24 19 11 23 0 26 0 12 -3 10 -8 10 -10 12 -14 6 -18 0 rrcurveto
          -468 hlineto
          -18 0 -14 6 -9 11 -10 12 -4 12 0 12 0 5 25 119 49 234 4 17 9 14 13 11 14 11 15 6 17 0 rrcurveto
          525 hlineto
          20 0 19 7 18 15 23 19 11 22 0 27 0 12 -3 10 -8 10 -9 12 -14 6 -18 0 rrcurveto
          -654 hlineto
          -21 0 -20 -8 -19 -15 -19 -15 -11 -18 -4 -21 -174 -815 -86 -410 0 -5 0 -12 3 -11 8 -10 10 -13 15 -7 20 0 rrcurveto
          480 1565 rmoveto
          6 0 4 1 8 3 rrcurveto
          306 109 rlineto
          33 12 21 25 6 30 1 6 1 4 0 5 0 8 -1 5 -3 7 -8 20 -15 9 -25 0 -13 0 -11 -3 -14 -7 rrcurveto
          -293 -153 rlineto
          -19 -10 -10 -13 -4 -19 -1 -3 0 -2 0 -3 0 -4 1 -2 1 -5 4 -15 8 -5 17 0 rrcurveto
          endchar
        </CharString>
        <CharString name="Ecircumflex">
          0 968 20 rmoveto
          20 0 19 7 17 15 24 19 11 23 0 26 0 12 -3 10 -8 10 -10 12 -14 6 -18 0 rrcurveto
          -525 hlineto
          -19 0 -13 6 -9 12 -9 11 -5 12 0 13 0 4 25 120 50 234 4 17 9 14 13 11 14 11 15 5 17 0 rrcurveto
          468 hlineto
          20 0 19 7 17 15 24 19 11 23 0 26 0 12 -3 10 -8 10 -10 12 -14 6 -18 0 rrcurveto
          -468 hlineto
          -18 0 -14 6 -9 11 -10 12 -4 12 0 12 0 5 25 119 49 234 4 17 9 14 13 11 14 11 15 6 17 0 rrcurveto
          525 hlineto
          20 0 19 7 18 15 23 19 11 22 0 27 0 12 -3 10 -8 10 -9 12 -14 6 -18 0 rrcurveto
          -654 hlineto
          -21 0 -20 -8 -19 -15 -19 -15 -11 -18 -4 -21 -174 -815 -86 -410 0 -5 0 -12 3 -11 8 -10 10 -13 15 -7 20 0 rrcurveto
          374 1575 rmoveto
          9 0 8 3 11 6 rrcurveto
          200 113 rlineto
          15 8 18 5 15 0 15 0 19 -6 11 -9 rrcurveto
          154 -113 rlineto
          7 -5 5 -1 9 0 15 0 13 5 13 13 12 10 5 10 4 13 0 2 0 3 0 3 0 11 -2 6 -6 7 rrcurveto
          -146 144 rlineto
          -23 24 -31 12 -38 0 -38 0 -38 -13 -35 -24 rrcurveto
          -208 -144 rlineto
          -15 -11 -8 -13 -3 -15 -1 -3 0 -3 0 -4 0 -8 1 -5 5 -7 7 -10 7 -4 14 0 rrcurveto
          endchar
        </CharString>
        <CharString name="Edieresis">
          0 968 20 rmoveto
          20 0 19 7 17 15 24 19 11 23 0 26 0 12 -3 10 -8 10 -10 12 -14 6 -18 0 rrcurveto
          -525 hlineto
          -19 0 -13 6 -9 12 -9 11 -5 12 0 13 0 4 25 120 50 234 4 17 9 14 13 11 14 11 15 5 17 0 rrcurveto
          468 hlineto
          20 0 19 7 17 15 24 19 11 23 0 26 0 12 -3 10 -8 10 -10 12 -14 6 -18 0 rrcurveto
          -468 hlineto
          -18 0 -14 6 -9 11 -10 12 -4 12 0 12 0 5 25 119 49 234 4 17 9 14 13 11 14 11 15 6 17 0 rrcurveto
          525 hlineto
          20 0 19 7 18 15 23 19 11 22 0 27 0 12 -3 10 -8 10 -9 12 -14 6 -18 0 rrcurveto
          -654 hlineto
          -21 0 -20 -8 -19 -15 -19 -15 -11 -18 -4 -21 -174 -815 -86 -410 0 -5 0 -12 3 -11 8 -10 10 -13 15 -7 20 0 rrcurveto
          405 1573 rmoveto
          29 0 27 10 24 20 32 25 16 33 0 39 0 17 -5 14 -9 12 -15 18 -21 9 -27 0 -31 0 -27 -10 -25 -19 -32 -26 -16 -32 0 -38 0 -17 5 -16 11 -12 14 -18 22 -9 28 0 rrcurveto
          431 hmoveto
          30 0 27 10 25 20 32 25 16 33 0 39 0 17 -5 14 -9 12 -15 18 -22 9 -28 0 -29 0 -27 -10 -25 -19 -32 -26 -16 -32 0 -38 0 -17 5 -16 11 -12 14 -18 21 -9 27 0 rrcurveto
          endchar
        </CharString>
        <CharString name="Egrave">
          0 968 20 rmoveto
          20 0 19 7 17 15 24 19 11 23 0 26 0 12 -3 10 -8 10 -10 12 -14 6 -18 0 rrcurveto
          -525 hlineto
          -19 0 -13 6 -9 12 -9 11 -5 12 0 13 0 4 25 120 50 234 4 17 9 14 13 11 14 11 15 5 17 0 rrcurveto
          468 hlineto
          20 0 19 7 17 15 24 19 11 23 0 26 0 12 -3 10 -8 10 -10 12 -14 6 -18 0 rrcurveto
          -468 hlineto
          -18 0 -14 6 -9 11 -10 12 -4 12 0 12 0 5 25 119 49 234 4 17 9 14 13 11 14 11 15 6 17 0 rrcurveto
          525 hlineto
          20 0 19 7 18 15 23 19 11 22 0 27 0 12 -3 10 -8 10 -9 12 -14 6 -18 0 rrcurveto
          -654 hlineto
          -21 0 -20 -8 -19 -15 -19 -15 -11 -18 -4 -21 -174 -815 -86 -410 0 -5 0 -12 3 -11 8 -10 10 -13 15 -7 20 0 rrcurveto
          780 1565 rmoveto
          17 0 16 9 13 17 6 8 3 7 1 6 rrcurveto
          2 12 rlineto
          0 11 -3 6 -10 6 rrcurveto
          -229 153 rlineto
          -9 7 -9 2 -12 0 -26 0 -24 -11 -20 -24 -10 -13 -5 -10 -2 -14 -2 -6 0 -4 0 -5 0 -22 8 -14 20 -9 rrcurveto
          260 -109 rlineto
          5 -2 4 -1 6 0 rrcurveto
          endchar
        </CharString>
        <CharString name="Eth">
          0 483 160 rmoveto
          -32 hlineto
          -19 0 -13 6 -9 12 -9 11 -5 13 0 12 0 5 68 322 136 640 4 17 9 14 13 11 14 11 15 5 17 0 52 0 49 -1 46 -3 46 -3 43 -9 39 -15 40 -15 33 -25 28 -35 rrcurveto
          25 -31 14 -32 2 -31 3 -32 1 -23 0 -14 0 -71 -15 -108 -30 -143 -37 -173 -63 -124 -89 -76 -89 -77 -125 -38 -162 0 rrcurveto
          -38 -140 rmoveto
          141 0 119 21 98 42 99 42 80 68 63 93 63 92 48 124 32 154 rrcurveto
          28 136 rlineto
          17 79 9 71 0 62 0 153 -53 105 -105 57 -74 41 -101 20 -127 0 rrcurveto
          -200 hlineto
          -21 0 -20 -8 -19 -15 -19 -16 -11 -18 -4 -21 -174 -814 -86 -409 0 -6 0 -12 3 -11 8 -10 10 -13 15 -7 20 0 rrcurveto
          406 570 rmoveto
          -430 hlineto
          -31 0 -25 12 -18 23 -13 16 -6 18 0 21 0 39 16 33 33 27 25 21 28 10 29 0 rrcurveto
          430 hlineto
          31 0 25 -11 18 -23 13 -16 6 -19 0 -21 0 -39 -16 -33 -33 -27 -25 -21 -28 -10 -29 0 rrcurveto
          endchar
        </CharString>
        <CharString name="F">
          0 308 -10 rmoveto
          19 0 18 7 17 14 17 13 10 17 4 19 rrcurveto
          108 508 rlineto
          3 18 10 15 15 12 15 11 16 6 17 0 rrcurveto
          460 hlineto
          19 0 18 7 17 14 22 17 11 22 0 25 0 13 -4 11 -8 10 -11 14 -15 7 -19 0 rrcurveto
          -460 hlineto
          -18 0 -13 5 -8 11 -9 10 -4 11 0 12 0 4 25 119 50 235 4 17 9 15 15 13 15 12 16 6 18 0 rrcurveto
          537 hlineto
          19 0 17 7 17 14 22 18 11 21 0 26 0 13 -4 11 -8 9 -11 14 -15 7 -19 0 rrcurveto
          -666 hlineto
          -20 0 -19 -7 -17 -14 -18 -15 -11 -17 -4 -20 -178 -836 -89 -421 0 -5 0 -13 4 -11 8 -10 11 -14 15 -7 19 0 rrcurveto
          endchar
        </CharString>
        <CharString name="G">
          0 604 -10 rmoveto
          140 0 128 53 117 105 26 24 17 30 7 35 rrcurveto
          97 455 rlineto
          0 14 -7 7 -12 0 rrcurveto
          -319 hlineto
          -17 0 -16 -6 -15 -11 -22 -15 -10 -23 0 -30 0 -15 4 -12 8 -10 13 -14 14 -7 15 0 rrcurveto
          150 hlineto
          33 0 16 -14 0 -28 0 -6 -17 -86 -36 -166 -6 -29 -16 -24 -26 -18 -69 -45 -72 -23 -75 0 -116 0 -71 35 -26 69 -27 69 -13 67 0 67 0 54 6 60 13 66 rrcurveto
          36 167 rlineto
          15 74 25 71 33 69 82 181 117 90 152 0 123 0 67 -74 10 -148 2 -33 19 -17 36 0 17 0 17 7 15 13 15 13 10 17 5 22 1 2 0 4 0 4 rrcurveto
          -1 15 rlineto
          -9 210 -102 105 -195 0 -121 0 -99 -31 -75 -62 -145 -118 -100 -178 -54 -238 rrcurveto
          -35 -165 rlineto
          -12 -62 -6 -62 0 -60 0 -156 36 -118 71 -80 53 -60 78 -30 103 0 rrcurveto
          endchar
        </CharString>
        <CharString name="H">
          0 948 -10 rmoveto
          19 0 18 7 17 14 17 13 10 17 4 19 182 858 92 432 0 5 0 13 -4 11 -8 10 -11 14 -15 7 -19 0 -19 0 -18 -7 -17 -13 -17 -14 -10 -17 -4 -19 rrcurveto
          -108 -507 rlineto
          -4 -17 -9 -15 -15 -12 -15 -13 -16 -6 -17 0 rrcurveto
          -434 hlineto
          -18 0 -13 5 -8 11 -7 10 -4 12 0 11 0 5 18 89 37 174 37 174 19 89 0 5 0 13 -5 11 -8 10 -11 14 -15 7 -19 0 -19 0 -18 -7 -17 -13 -17 -14 -10 -17 -4 -19 rrcurveto
          -182 -858 -92 -432 0 -5 0 -13 4 -11 8 -10 11 -14 15 -7 19 0 19 0 19 7 17 14 17 13 10 17 4 19 rrcurveto
          108 508 rlineto
          3 17 9 15 15 12 15 12 16 6 17 0 rrcurveto
          434 hlineto
          17 0 13 -5 9 -10 8 -10 4 -12 0 -11 0 -5 -18 -89 -37 -174 -37 -175 -19 -89 0 -5 0 -13 4 -11 8 -10 11 -14 15 -7 19 0 rrcurveto
          endchar
        </CharString>
        <CharString name="I">
          0 920 hmoveto
          19 0 18 7 17 14 22 17 11 22 0 25 0 13 -4 11 -8 10 -11 14 -15 7 -19 0 rrcurveto
          -188 hlineto
          -17 0 -13 5 -8 11 -8 11 -4 11 0 12 0 4 70 336 142 667 4 18 10 15 15 12 15 11 15 6 17 0 rrcurveto
          188 hlineto
          19 0 17 7 17 14 22 18 11 21 0 26 0 13 -4 11 -8 10 -11 14 -14 7 -19 0 rrcurveto
          -640 hlineto
          -19 0 -18 -7 -17 -14 -22 -19 -12 -21 0 -25 0 -13 5 -11 8 -10 11 -14 15 -7 19 0 rrcurveto
          187 hlineto
          17 0 13 -5 8 -10 9 -10 4 -11 0 -11 0 -5 -71 -336 -142 -668 -3 -17 -9 -15 -15 -12 -15 -13 -17 -6 -17 0 rrcurveto
          -187 hlineto
          -19 0 -18 -7 -17 -13 -22 -18 -11 -22 0 -25 0 -13 4 -11 8 -10 11 -14 15 -7 19 0 rrcurveto
          endchar
        </CharString>
        <CharString name="Iacute">
          0 920 20 rmoveto
          20 0 19 7 17 15 24 19 11 23 0 26 0 12 -3 10 -8 10 -10 12 -14 6 -18 0 rrcurveto
          -188 hlineto
          -18 0 -13 6 -9 12 -9 11 -5 13 0 12 0 5 68 322 136 640 4 17 9 14 13 11 14 11 15 5 16 0 rrcurveto
          188 hlineto
          20 0 19 7 17 15 24 19 11 23 0 26 0 12 -4 10 -7 10 -9 13 -14 6 -18 0 rrcurveto
          -640 hlineto
          -20 0 -19 -7 -18 -15 -23 -20 -12 -23 0 -26 0 -11 3 -11 8 -9 10 -13 14 -6 18 0 rrcurveto
          187 hlineto
          18 0 14 -6 9 -11 10 -11 4 -12 0 -12 0 -5 -68 -322 -136 -641 -3 -16 -9 -14 -14 -12 -14 -11 -15 -6 -17 0 rrcurveto
          -187 hlineto
          -20 0 -19 -7 -17 -15 -24 -19 -11 -23 0 -26 0 -11 3 -11 8 -9 10 -13 14 -6 18 0 rrcurveto
          514 1565 rmoveto
          6 0 4 1 8 3 rrcurveto
          306 109 rlineto
          33 12 21 25 6 30 1 6 1 4 0 5 0 8 -1 5 -3 7 -8 20 -15 9 -25 0 -13 0 -11 -3 -14 -7 rrcurveto
          -293 -153 rlineto
          -19 -10 -10 -13 -4 -19 -1 -3 0 -2 0 -3 0 -4 1 -2 1 -5 4 -15 8 -5 17 0 rrcurveto
          endchar
        </CharString>
        <CharString name="Icircumflex">
          0 920 20 rmoveto
          20 0 19 7 17 15 24 19 11 23 0 26 0 12 -3 10 -8 10 -10 12 -14 6 -18 0 rrcurveto
          -188 hlineto
          -18 0 -13 6 -9 12 -9 11 -5 13 0 12 0 5 68 322 136 640 4 17 9 14 13 11 14 11 15 5 16 0 rrcurveto
          188 hlineto
          20 0 19 7 17 15 24 19 11 23 0 26 0 12 -4 10 -7 10 -9 13 -14 6 -18 0 rrcurveto
          -640 hlineto
          -20 0 -19 -7 -18 -15 -23 -20 -12 -23 0 -26 0 -11 3 -11 8 -9 10 -13 14 -6 18 0 rrcurveto
          187 hlineto
          18 0 14 -6 9 -11 10 -11 4 -12 0 -12 0 -5 -68 -322 -136 -641 -3 -16 -9 -14 -14 -12 -14 -11 -15 -6 -17 0 rrcurveto
          -187 hlineto
          -20 0 -19 -7 -17 -15 -24 -19 -11 -23 0 -26 0 -11 3 -11 8 -9 10 -13 14 -6 18 0 rrcurveto
          408 1575 rmoveto
          9 0 8 3 11 6 rrcurveto
          200 113 rlineto
          15 8 18 5 15 0 15 0 19 -6 11 -9 rrcurveto
          154 -113 rlineto
          7 -5 5 -1 9 0 15 0 13 5 13 13 12 10 5 10 4 13 0 2 0 3 0 3 0 11 -2 6 -6 7 rrcurveto
          -146 144 rlineto
          -23 24 -31 12 -38 0 -38 0 -38 -13 -35 -24 rrcurveto
          -208 -144 rlineto
          -15 -11 -8 -13 -3 -15 -1 -3 0 -3 0 -4 0 -8 1 -5 5 -7 7 -10 7 -4 14 0 rrcurveto
          endchar
        </CharString>
        <CharString name="Idieresis">
          0 920 20 rmoveto
          20 0 19 7 17 15 24 19 11 23 0 26 0 12 -3 10 -8 10 -10 12 -14 6 -18 0 rrcurveto
          -188 hlineto
          -18 0 -13 6 -9 12 -9 11 -5 13 0 12 0 5 68 322 136 640 4 17 9 14 13 11 14 11 15 5 16 0 rrcurveto
          188 hlineto
          20 0 19 7 17 15 24 19 11 23 0 26 0 12 -4 10 -7 10 -9 13 -14 6 -18 0 rrcurveto
          -640 hlineto
          -20 0 -19 -7 -18 -15 -23 -20 -12 -23 0 -26 0 -11 3 -11 8 -9 10 -13 14 -6 18 0 rrcurveto
          187 hlineto
          18 0 14 -6 9 -11 10 -11 4 -12 0 -12 0 -5 -68 -322 -136 -641 -3 -16 -9 -14 -14 -12 -14 -11 -15 -6 -17 0 rrcurveto
          -187 hlineto
          -20 0 -19 -7 -17 -15 -24 -19 -11 -23 0 -26 0 -11 3 -11 8 -9 10 -13 14 -6 18 0 rrcurveto
          439 1573 rmoveto
          29 0 27 10 24 20 32 25 16 33 0 39 0 17 -5 14 -9 12 -15 18 -21 9 -27 0 -31 0 -27 -10 -25 -19 -32 -26 -16 -32 0 -38 0 -17 5 -16 11 -12 14 -18 22 -9 28 0 rrcurveto
          431 hmoveto
          30 0 27 10 25 20 32 25 16 33 0 39 0 17 -5 14 -9 12 -15 18 -22 9 -28 0 -29 0 -27 -10 -25 -19 -32 -26 -16 -32 0 -38 0 -17 5 -16 11 -12 14 -18 21 -9 27 0 rrcurveto
          endchar
        </CharString>
        <CharString name="Igrave">
          0 920 20 rmoveto
          20 0 19 7 17 15 24 19 11 23 0 26 0 12 -3 10 -8 10 -10 12 -14 6 -18 0 rrcurveto
          -188 hlineto
          -18 0 -13 6 -9 12 -9 11 -5 13 0 12 0 5 68 322 136 640 4 17 9 14 13 11 14 11 15 5 16 0 rrcurveto
          188 hlineto
          20 0 19 7 17 15 24 19 11 23 0 26 0 12 -4 10 -7 10 -9 13 -14 6 -18 0 rrcurveto
          -640 hlineto
          -20 0 -19 -7 -18 -15 -23 -20 -12 -23 0 -26 0 -11 3 -11 8 -9 10 -13 14 -6 18 0 rrcurveto
          187 hlineto
          18 0 14 -6 9 -11 10 -11 4 -12 0 -12 0 -5 -68 -322 -136 -641 -3 -16 -9 -14 -14 -12 -14 -11 -15 -6 -17 0 rrcurveto
          -187 hlineto
          -20 0 -19 -7 -17 -15 -24 -19 -11 -23 0 -26 0 -11 3 -11 8 -9 10 -13 14 -6 18 0 rrcurveto
          814 1565 rmoveto
          17 0 16 9 13 17 6 8 3 7 1 6 rrcurveto
          2 12 rlineto
          0 11 -3 6 -10 6 rrcurveto
          -229 153 rlineto
          -9 7 -9 2 -12 0 -26 0 -24 -11 -20 -24 -10 -13 -5 -10 -2 -14 -2 -6 0 -4 0 -5 0 -22 8 -14 20 -9 rrcurveto
          260 -109 rlineto
          5 -2 4 -1 6 0 rrcurveto
          endchar
        </CharString>
        <CharString name="J">
          0 588 -10 rmoveto
          73 0 69 16 66 33 66 32 56 44 47 56 46 56 31 63 15 71 135 636 68 321 0 5 0 13 -5 12 -8 11 -11 14 -16 7 -21 0 rrcurveto
          -413 hlineto
          -19 0 -18 -7 -16 -13 -23 -19 -11 -21 0 -24 0 -13 5 -12 8 -10 11 -15 14 -7 19 0 rrcurveto
          285 hlineto
          17 0 13 -5 8 -9 9 -10 4 -10 0 -12 0 -4 -58 -278 -117 -550 -13 -63 -34 -54 -55 -46 -36 -30 -36 -20 -35 -9 -36 -9 -43 -5 -49 0 -68 0 -52 16 -36 32 -36 32 -20 40 -4 48 rrcurveto
          -3 34 -19 17 -36 0 -20 0 -18 -7 -17 -13 -23 -19 -11 -27 0 -35 0 -47 20 -47 42 -49 36 -45 43 -29 50 -14 50 -15 60 -7 70 0 rrcurveto
          endchar
        </CharString>
        <CharString name="K">
          0 1000 -10 rmoveto
          19 0 18 7 17 14 21 18 11 20 0 21 0 8 -1 7 -3 8 -181 461 -90 234 0 7 0 17 8 17 16 16 rrcurveto
          425 451 rlineto
          18 18 8 19 0 20 0 12 -3 12 -7 11 -10 15 -15 7 -20 0 -22 0 -20 -9 -19 -17 rrcurveto
          -551 -574 rlineto
          -15 -16 -19 -8 -21 0 -17 0 -9 11 0 21 0 13 36 174 71 335 1 5 1 6 0 5 0 13 -4 11 -8 10 -11 13 -15 7 -19 0 -19 0 -18 -7 -17 -13 -17 -13 -10 -17 -4 -20 rrcurveto
          -182 -859 -92 -432 0 -5 0 -12 4 -11 8 -10 11 -14 15 -7 19 0 19 0 18 7 17 14 17 13 10 16 4 19 rrcurveto
          76 362 rlineto
          6 26 13 23 19 20 rrcurveto
          119 131 rlineto
          18 15 18 8 19 0 21 0 16 -10 10 -21 rrcurveto
          237 -586 rlineto
          10 -25 18 -12 27 0 rrcurveto
          endchar
        </CharString>
        <CharString name="L">
          0 982 hmoveto
          19 0 17 7 17 14 21 17 11 22 0 26 0 13 -4 11 -7 10 -11 13 -16 7 -21 0 rrcurveto
          -461 hlineto
          -31 0 -22 9 -13 18 -14 18 -7 19 0 20 0 8 40 190 79 372 78 369 39 187 0 6 0 35 -19 18 -37 1 -21 0 -19 -7 -15 -13 -16 -14 -10 -17 -4 -19 -175 -822 -88 -416 0 -9 rrcurveto
          0 -22 7 -19 13 -17 18 -23 26 -12 33 0 rrcurveto
          endchar
        </CharString>
        <CharString name="M">
          0 966 -10 rmoveto
          19 0 18 7 17 14 17 14 11 17 4 19 180 845 90 426 0 6 0 17 -5 15 -11 13 -14 18 -19 9 -24 0 -18 0 -17 -5 -17 -9 -17 -9 -14 -13 -10 -17 rrcurveto
          -328 -550 rlineto
          -19 -32 -23 -16 -25 0 -26 0 -16 16 -6 32 rrcurveto
          -95 550 rlineto
          -3 17 -8 13 -13 9 -13 9 -15 5 -18 0 -24 0 -22 -9 -21 -17 -21 -18 -13 -21 -5 -24 -180 -845 -90 -425 0 -6 0 -13 4 -11 8 -10 11 -14 15 -7 19 0 19 0 18 7 17 14 rrcurveto
          17 13 10 17 4 20 rrcurveto
          177 833 rlineto
          9 41 15 20 23 0 15 0 11 -15 6 -29 rrcurveto
          58 -349 rlineto
          3 -19 9 -14 15 -9 15 -10 16 -5 19 0 20 0 20 5 19 11 19 11 14 13 11 17 rrcurveto
          207 350 rlineto
          17 29 16 14 15 0 19 0 10 -10 0 -20 0 -9 -31 -149 -61 -289 -61 -284 -30 -144 0 -5 0 -13 4 -11 8 -10 11 -14 15 -7 19 0 rrcurveto
          endchar
        </CharString>
        <CharString name="N">
          0 939 -10 rmoveto
          24 0 23 9 21 17 21 17 14 22 5 25 180 845 90 425 0 6 0 13 -4 11 -8 10 -11 13 -15 7 -19 0 -19 0 -18 -7 -17 -13 -17 -13 -10 -17 -4 -20 rrcurveto
          -187 -880 rlineto
          -9 -41 -14 -20 -19 0 -16 0 -12 14 -9 29 rrcurveto
          -279 915 rlineto
          -12 35 -23 18 -35 0 -25 0 -23 -9 -21 -17 -22 -18 -13 -21 -5 -24 -180 -845 -90 -425 0 -6 0 -13 4 -11 8 -10 11 -14 15 -7 19 0 20 0 18 7 17 14 17 13 10 17 4 20 rrcurveto
          187 880 rlineto
          9 40 14 20 21 0 15 0 11 -14 8 -27 rrcurveto
          279 -916 rlineto
          11 -36 23 -18 37 0 rrcurveto
          endchar
        </CharString>
        <CharString name="Ntilde">
          0 935 -10 rmoveto
          25 0 23 9 22 19 23 18 14 22 5 26 180 846 90 425 0 5 0 12 -3 11 -8 8 -10 13 -14 6 -18 0 -20 0 -19 -7 -17 -15 -18 -14 -11 -17 -4 -21 rrcurveto
          -187 -880 rlineto
          -6 -25 -15 -12 -24 0 -18 0 -11 9 -4 18 rrcurveto
          -279 915 rlineto
          -12 33 -23 16 -32 0 -25 0 -24 -9 -23 -19 -22 -19 -14 -21 -5 -25 -180 -846 -90 -425 0 -5 0 -12 3 -11 8 -9 10 -13 14 -6 18 0 21 0 19 7 17 15 18 15 11 17 4 21 rrcurveto
          187 880 rlineto
          5 24 14 12 24 0 16 0 12 -8 7 -16 rrcurveto
          278 -917 rlineto
          13 -33 22 -17 33 0 rrcurveto
          122 1620 rmoveto
          72 0 63 34 64 73 8 10 4 9 2 8 rrcurveto
          2 13 rlineto
          0 15 -4 8 -13 5 -8 4 -5 1 -8 0 -16 0 -14 -6 -14 -13 -8 -10 -12 -9 -8 -6 -24 -17 -24 -9 -25 0 -29 0 -29 11 -21 19 -17 16 -19 15 -23 16 -19 14 -25 6 -36 0 rrcurveto
          -48 0 -42 -16 -42 -33 -24 -19 -22 -20 -19 -22 -10 -11 -4 -8 -2 -10 -1 -4 0 -2 0 -4 0 -15 3 -7 13 -7 6 -3 4 -1 9 0 26 0 10 12 34 33 22 19 28 10 28 0 rrcurveto
          29 0 28 -12 21 -18 19 -16 20 -16 22 -16 21 -15 23 -6 34 0 rrcurveto
          endchar
        </CharString>
        <CharString name="O">
          0 628 130 rmoveto
          -140 0 -71 102 0 204 0 77 11 88 21 99 31 147 45 124 57 99 77 133 96 67 115 0 140 0 70 -103 0 -207 0 -76 -11 -87 -20 -97 -31 -144 -44 -122 -57 -101 -77 -135 -97 -68 -115 0 rrcurveto
          -30 -140 rmoveto
          139 0 116 54 94 107 110 125 81 183 51 241 24 114 12 99 0 84 0 275 -108 138 -216 0 -138 0 -116 -54 -94 -108 -112 -127 -81 -183 -51 -238 -25 -117 -12 -102 0 -89 0 -175 49 -119 97 -64 rrcurveto
          45 -29 60 -15 75 0 rrcurveto
          endchar
        </CharString>
        <CharString name="Oacute">
          0 632 130 rmoveto
          -143 0 -71 103 0 206 0 78 10 88 21 99 32 147 44 123 57 99 76 131 95 66 113 0 142 0 71 -104 0 -209 0 -77 -10 -87 -20 -97 -31 -144 -44 -122 -58 -100 -75 -133 -95 -67 -114 0 rrcurveto
          -38 -140 rmoveto
          139 0 118 54 95 109 111 126 81 184 51 241 24 115 12 101 0 87 0 96 -15 82 -30 67 -48 105 -92 53 -135 0 -139 0 -117 -54 -96 -109 -112 -129 -82 -184 -50 -238 -25 -117 -13 -102 0 -89 rrcurveto
          0 -174 48 -118 97 -62 44 -29 59 -15 75 0 rrcurveto
          200 1595 rmoveto
          6 0 4 1 8 3 rrcurveto
          306 109 rlineto
          33 12 21 25 6 30 1 6 1 4 0 5 0 8 -1 5 -3 7 -8 20 -15 9 -25 0 -13 0 -11 -3 -14 -7 rrcurveto
          -293 -153 rlineto
          -19 -10 -10 -13 -4 -19 -1 -3 0 -2 0 -3 0 -4 1 -2 1 -5 4 -15 8 -5 17 0 rrcurveto
          endchar
        </CharString>
        <CharString name="Ocircumflex">
          0 632 130 rmoveto
          -143 0 -71 103 0 206 0 78 10 88 21 99 32 147 44 123 57 99 76 131 95 66 113 0 142 0 71 -104 0 -209 0 -77 -10 -87 -20 -97 -31 -144 -44 -122 -58 -100 -75 -133 -95 -67 -114 0 rrcurveto
          -38 -140 rmoveto
          139 0 118 54 95 109 111 126 81 184 51 241 24 115 12 101 0 87 0 96 -15 82 -30 67 -48 105 -92 53 -135 0 -139 0 -117 -54 -96 -109 -112 -129 -82 -184 -50 -238 -25 -117 -13 -102 0 -89 rrcurveto
          0 -174 48 -118 97 -62 44 -29 59 -15 75 0 rrcurveto
          94 1605 rmoveto
          9 0 8 3 11 6 rrcurveto
          200 113 rlineto
          15 8 18 5 15 0 15 0 19 -6 11 -9 rrcurveto
          154 -113 rlineto
          7 -5 5 -1 9 0 15 0 13 5 13 13 12 10 5 10 4 13 0 2 0 3 0 3 0 11 -2 6 -6 7 rrcurveto
          -146 144 rlineto
          -23 24 -31 12 -38 0 -38 0 -38 -13 -35 -24 rrcurveto
          -208 -144 rlineto
          -15 -11 -8 -13 -3 -15 -1 -3 0 -3 0 -4 0 -8 1 -5 5 -7 7 -10 7 -4 14 0 rrcurveto
          endchar
        </CharString>
        <CharString name="Odieresis">
          0 632 130 rmoveto
          -143 0 -71 103 0 206 0 78 10 88 21 99 32 147 44 123 57 99 76 131 95 66 113 0 142 0 71 -104 0 -209 0 -77 -10 -87 -20 -97 -31 -144 -44 -122 -58 -100 -75 -133 -95 -67 -114 0 rrcurveto
          -38 -140 rmoveto
          139 0 118 54 95 109 111 126 81 184 51 241 24 115 12 101 0 87 0 96 -15 82 -30 67 -48 105 -92 53 -135 0 -139 0 -117 -54 -96 -109 -112 -129 -82 -184 -50 -238 -25 -117 -13 -102 0 -89 rrcurveto
          0 -174 48 -118 97 -62 44 -29 59 -15 75 0 rrcurveto
          125 1603 rmoveto
          29 0 27 10 24 20 32 25 16 33 0 39 0 17 -5 14 -9 12 -15 18 -21 9 -27 0 -31 0 -27 -10 -25 -19 -32 -26 -16 -32 0 -38 0 -17 5 -16 11 -12 14 -18 22 -9 28 0 rrcurveto
          431 hmoveto
          30 0 27 10 25 20 32 25 16 33 0 39 0 17 -5 14 -9 12 -15 18 -22 9 -28 0 -29 0 -27 -10 -25 -19 -32 -26 -16 -32 0 -38 0 -17 5 -16 11 -12 14 -18 21 -9 27 0 rrcurveto
          endchar
        </CharString>
        <CharString name="Ograve">
          0 632 130 rmoveto
          -143 0 -71 103 0 206 0 78 10 88 21 99 32 147 44 123 57 99 76 131 95 66 113 0 142 0 71 -104 0 -209 0 -77 -10 -87 -20 -97 -31 -144 -44 -122 -58 -100 -75 -133 -95 -67 -114 0 rrcurveto
          -38 -140 rmoveto
          139 0 118 54 95 109 111 126 81 184 51 241 24 115 12 101 0 87 0 96 -15 82 -30 67 -48 105 -92 53 -135 0 -139 0 -117 -54 -96 -109 -112 -129 -82 -184 -50 -238 -25 -117 -13 -102 0 -89 rrcurveto
          0 -174 48 -118 97 -62 44 -29 59 -15 75 0 rrcurveto
          500 1595 rmoveto
          17 0 16 9 13 17 6 8 3 7 1 6 rrcurveto
          2 12 rlineto
          0 11 -3 6 -10 6 rrcurveto
          -229 153 rlineto
          -9 7 -9 2 -12 0 -26 0 -24 -11 -20 -24 -10 -13 -5 -10 -2 -14 -2 -6 0 -4 0 -5 0 -22 8 -14 20 -9 rrcurveto
          260 -109 rlineto
          5 -2 4 -1 6 0 rrcurveto
          endchar
        </CharString>
        <CharString name="Oslash">
          0 632 130 rmoveto
          -143 0 -71 103 0 206 0 78 10 88 21 99 32 147 44 123 57 99 76 131 95 66 113 0 142 0 71 -104 0 -209 0 -77 -10 -87 -20 -97 -31 -144 -44 -122 -58 -100 -75 -133 -95 -67 -114 0 rrcurveto
          -38 -140 rmoveto
          139 0 118 54 95 109 111 126 81 184 51 241 24 115 12 101 0 87 0 96 -15 82 -30 67 -48 105 -92 53 -135 0 -139 0 -117 -54 -96 -109 -112 -129 -82 -184 -50 -238 -25 -117 -13 -102 0 -89 rrcurveto
          0 -174 48 -118 97 -62 44 -29 59 -15 75 0 rrcurveto
          -397 -170 rmoveto
          13 0 14 4 15 8 15 8 11 11 9 14 rrcurveto
          1064 1620 rlineto
          10 15 5 15 0 14 0 7 -2 8 -3 8 -7 19 -17 9 -24 0 -13 0 -14 -4 -14 -8 -15 -7 -11 -11 -9 -14 rrcurveto
          -1065 -1620 rlineto
          -10 -15 -4 -14 0 -15 0 -8 1 -7 3 -7 8 -20 16 -10 24 0 rrcurveto
          endchar
        </CharString>
        <CharString name="Otilde">
          0 632 130 rmoveto
          -143 0 -71 103 0 206 0 78 10 88 21 99 32 147 44 123 57 99 76 131 95 66 113 0 142 0 71 -104 0 -209 0 -77 -10 -87 -20 -97 -31 -144 -44 -122 -58 -100 -75 -133 -95 -67 -114 0 rrcurveto
          -38 -140 rmoveto
          139 0 118 54 95 109 111 126 81 184 51 241 24 115 12 101 0 87 0 96 -15 82 -30 67 -48 105 -92 53 -135 0 -139 0 -117 -54 -96 -109 -112 -129 -82 -184 -50 -238 -25 -117 -13 -102 0 -89 rrcurveto
          0 -174 48 -118 97 -62 44 -29 59 -15 75 0 rrcurveto
          463 1620 rmoveto
          72 0 63 34 64 73 8 10 4 9 2 8 rrcurveto
          2 13 rlineto
          0 15 -4 8 -13 5 -8 4 -5 1 -8 0 -16 0 -14 -6 -14 -13 -8 -10 -12 -9 -8 -6 -24 -17 -24 -9 -25 0 -29 0 -29 11 -21 19 -17 16 -19 15 -23 16 -19 14 -25 6 -36 0 rrcurveto
          -48 0 -42 -16 -42 -33 -24 -19 -22 -20 -19 -22 -10 -11 -4 -8 -2 -10 -1 -4 0 -2 0 -4 0 -15 3 -7 13 -7 6 -3 4 -1 9 0 26 0 10 12 34 33 22 19 28 10 28 0 rrcurveto
          29 0 28 -12 21 -18 19 -16 20 -16 22 -16 21 -15 23 -6 34 0 rrcurveto
          endchar
        </CharString>
        <CharString name="P">
          0 834 740 rmoveto
          -234 hlineto
          -17 0 -13 5 -8 11 -9 10 -4 11 0 12 0 4 29 136 56 268 4 18 10 15 15 12 15 11 16 6 17 0 rrcurveto
          234 hlineto
          41 0 35 -9 30 -19 48 -31 24 -48 0 -67 0 -22 -2 -24 -6 -26 -20 -94 -36 -69 -53 -44 -53 -44 -58 -22 -61 0 rrcurveto
          -526 -750 rmoveto
          19 0 18 7 17 14 17 13 10 17 4 19 rrcurveto
          101 477 rlineto
          4 17 9 15 15 13 15 12 16 6 18 0 rrcurveto
          234 hlineto
          65 0 64 17 63 35 63 35 54 48 46 62 46 62 32 72 17 82 9 42 4 37 0 32 0 64 -19 56 -39 48 -57 72 -79 36 -99 0 rrcurveto
          -363 hlineto
          -21 0 -19 -7 -17 -15 -18 -15 -11 -17 -4 -20 -180 -849 -91 -427 0 -5 0 -13 4 -11 8 -10 11 -14 15 -7 19 0 rrcurveto
          endchar
        </CharString>
        <CharString name="Q">
          0 628 130 rmoveto
          -140 0 -71 102 0 204 0 77 11 88 21 99 31 147 45 124 57 99 77 133 96 67 115 0 140 0 70 -103 0 -207 0 -76 -11 -87 -20 -97 -31 -144 -44 -122 -57 -101 -77 -135 -97 -68 -115 0 rrcurveto
          -30 -140 rmoveto
          139 0 116 54 94 107 110 125 81 183 51 241 24 114 12 99 0 84 0 275 -108 138 -216 0 -138 0 -116 -54 -94 -108 -112 -127 -81 -183 -51 -238 -25 -117 -12 -102 0 -89 0 -175 49 -119 97 -64 rrcurveto
          45 -29 60 -15 75 0 rrcurveto
          303 -391 rmoveto
          19 0 18 7 17 15 22 19 11 20 0 22 0 26 -11 17 -23 10 -248 98 -128 49 -6 0 -19 0 -18 -7 -17 -15 -22 -19 -11 -20 0 -22 0 -9 2 -9 4 -8 6 -13 9 -9 12 -5 rrcurveto
          249 -98 128 -49 6 0 rrcurveto
          endchar
        </CharString>
        <CharString name="R">
          0 793 730 rmoveto
          -224 hlineto
          -17 0 -13 5 -8 11 -9 10 -4 11 0 11 0 4 28 133 55 262 4 18 9 15 15 12 15 11 16 6 17 0 rrcurveto
          224 hlineto
          41 0 35 -9 31 -17 48 -28 25 -48 0 -69 0 -22 -3 -25 -6 -27 -11 -55 -20 -48 -29 -39 -29 -39 -34 -30 -38 -21 -39 -21 -39 -11 -40 0 rrcurveto
          172 -740 rmoveto
          20 0 18 7 17 15 22 18 10 21 0 23 0 6 0 7 -2 6 rrcurveto
          -188 440 rlineto
          -2 5 -1 7 0 7 0 33 16 23 34 13 99 40 79 68 59 97 31 49 22 56 13 63 10 44 4 37 0 33 0 59 -20 54 -41 51 -56 72 -78 36 -100 0 rrcurveto
          -354 hlineto
          -20 0 -19 -7 -17 -15 -18 -15 -11 -17 -4 -20 -178 -835 -89 -420 0 -6 0 -13 4 -11 8 -10 11 -14 16 -7 21 0 18 0 17 7 17 14 17 13 10 17 4 20 rrcurveto
          99 466 rlineto
          4 17 9 15 15 13 15 12 16 6 17 0 rrcurveto
          109 hlineto
          22 0 16 -10 9 -21 rrcurveto
          217 -532 rlineto
          11 -25 17 -12 25 0 rrcurveto
          endchar
        </CharString>
        <CharString name="S">
          0 608 -10 rmoveto
          79 0 69 14 60 27 59 27 58 41 55 55 55 54 35 67 17 80 6 26 2 25 0 24 0 98 -47 82 -95 66 -45 30 -63 30 -81 31 -135 49 -67 75 0 101 0 16 2 17 3 17 rrcurveto
          15 72 37 56 58 41 58 41 65 20 73 0 61 0 53 -12 43 -25 43 -25 26 -34 7 -41 5 -40 18 -20 31 0 38 0 24 23 10 45 2 6 0 6 0 7 0 71 -29 60 -59 48 rrcurveto
          -57 46 -84 23 -110 0 -71 0 -67 -14 -62 -28 -62 -28 -56 -42 -49 -57 -50 -57 -35 -74 -19 -89 -5 -25 -3 -23 0 -23 0 -142 99 -108 199 -76 161 -58 80 -73 0 -87 0 -12 -1 -12 -3 -12 rrcurveto
          -19 -91 -54 -66 -88 -43 -52 -25 -52 -12 -52 0 -113 0 -89 55 -65 109 -15 27 -19 13 -21 0 -19 0 -18 -7 -15 -14 -15 -15 -10 -19 -5 -24 rrcurveto
          -1 -12 rlineto
          0 -4 0 -4 1 -3 13 -58 42 -55 69 -53 69 -53 82 -26 95 0 rrcurveto
          endchar
        </CharString>
        <CharString name="T">
          0 598 -10 rmoveto
          19 0 18 7 17 14 17 13 10 17 4 19 rrcurveto
          241 1137 rlineto
          4 17 10 15 15 13 15 12 16 6 17 0 rrcurveto
          247 hlineto
          19 0 18 7 17 13 21 18 11 21 0 26 0 13 -4 11 -8 10 -11 14 -14 7 -19 0 rrcurveto
          -760 hlineto
          -19 0 -18 -7 -17 -14 -22 -19 -12 -21 0 -25 0 -13 5 -11 8 -10 11 -13 15 -7 19 0 rrcurveto
          247 hlineto
          34 0 17 -16 0 -31 0 -5 -41 -195 -81 -384 -82 -385 -41 -194 0 -5 0 -13 4 -11 8 -10 11 -14 15 -7 19 0 rrcurveto
          endchar
        </CharString>
        <CharString name="Thorn">
          0 771 420 rmoveto
          -234 hlineto
          -18 0 -14 6 -9 11 -10 12 -4 12 0 12 0 5 35 169 71 334 3 17 9 14 14 11 14 11 15 5 17 0 rrcurveto
          234 hlineto
          42 0 36 -12 30 -23 52 -40 26 -52 0 -64 0 -32 -5 -40 -9 -47 -23 -106 -38 -78 -53 -50 -54 -50 -60 -25 -67 0 rrcurveto
          -467 -430 rmoveto
          20 0 19 7 17 15 18 15 11 17 4 20 rrcurveto
          33 157 rlineto
          4 17 9 14 13 11 14 11 15 6 17 0 rrcurveto
          234 hlineto
          72 0 67 18 60 35 60 35 56 52 51 69 52 70 36 82 20 96 12 53 5 47 0 41 0 76 -19 66 -40 54 -56 71 -77 35 -99 0 rrcurveto
          -302 hlineto
          25 115 12 60 0 5 0 12 -3 10 -8 10 -10 12 -14 6 -18 0 -20 0 -19 -7 -17 -15 -18 -15 -11 -17 -4 -20 -183 -859 -91 -432 0 -5 0 -11 3 -11 8 -9 10 -13 14 -6 18 0 rrcurveto
          endchar
        </CharString>
        <CharString name="U">
          0 597 -10 rmoveto
          88 0 80 21 71 42 71 41 61 59 50 77 50 77 36 90 22 104 121 567 61 286 0 5 0 13 -4 11 -8 10 -11 14 -15 7 -19 0 -19 0 -18 -7 -17 -13 -17 -14 -11 -17 -4 -19 rrcurveto
          -180 -843 rlineto
          -14 -69 -23 -61 -32 -55 -33 -55 -40 -44 -49 -33 -49 -33 -55 -16 -62 0 -62 0 -48 17 -35 34 -35 33 -20 36 -6 38 -6 38 -3 31 0 22 0 37 4 39 9 41 121 567 61 286 0 5 rrcurveto
          0 13 -4 11 -8 10 -11 14 -15 7 -19 0 -19 0 -18 -7 -17 -13 -17 -14 -10 -17 -4 -19 rrcurveto
          -180 -843 rlineto
          -12 -58 -6 -54 0 -50 0 -130 39 -95 79 -61 53 -42 71 -21 87 0 rrcurveto
          endchar
        </CharString>
        <CharString name="Uacute">
          0 593 -10 rmoveto
          88 0 81 21 72 42 72 43 61 60 51 77 50 77 36 91 22 104 122 568 60 286 0 5 0 12 -3 10 -8 10 -10 12 -14 6 -18 0 -20 0 -19 -7 -18 -15 -18 -15 -11 -17 -4 -20 rrcurveto
          -180 -843 rlineto
          -15 -68 -23 -62 -32 -54 -31 -55 -40 -43 -48 -32 -48 -32 -55 -16 -61 0 -63 0 -49 17 -35 35 -35 34 -21 37 -6 38 -6 39 -3 31 0 22 0 37 4 39 8 41 122 568 60 286 0 5 rrcurveto
          0 12 -3 10 -8 10 -10 12 -14 6 -18 0 -20 0 -19 -7 -17 -15 -18 -15 -11 -17 -4 -20 rrcurveto
          -180 -843 rlineto
          -13 -57 -6 -53 0 -49 0 -130 39 -96 78 -60 53 -41 69 -21 87 0 rrcurveto
          201 1595 rmoveto
          6 0 4 1 8 3 rrcurveto
          306 109 rlineto
          33 12 21 25 6 30 1 6 1 4 0 5 0 8 -1 5 -3 7 -8 20 -15 9 -25 0 -13 0 -11 -3 -14 -7 rrcurveto
          -293 -153 rlineto
          -19 -10 -10 -13 -4 -19 -1 -3 0 -2 0 -3 0 -4 1 -2 1 -5 4 -15 8 -5 17 0 rrcurveto
          endchar
        </CharString>
        <CharString name="Ucircumflex">
          0 593 -10 rmoveto
          88 0 81 21 72 42 72 43 61 60 51 77 50 77 36 91 22 104 122 568 60 286 0 5 0 12 -3 10 -8 10 -10 12 -14 6 -18 0 -20 0 -19 -7 -18 -15 -18 -15 -11 -17 -4 -20 rrcurveto
          -180 -843 rlineto
          -15 -68 -23 -62 -32 -54 -31 -55 -40 -43 -48 -32 -48 -32 -55 -16 -61 0 -63 0 -49 17 -35 35 -35 34 -21 37 -6 38 -6 39 -3 31 0 22 0 37 4 39 8 41 122 568 60 286 0 5 rrcurveto
          0 12 -3 10 -8 10 -10 12 -14 6 -18 0 -20 0 -19 -7 -17 -15 -18 -15 -11 -17 -4 -20 rrcurveto
          -180 -843 rlineto
          -13 -57 -6 -53 0 -49 0 -130 39 -96 78 -60 53 -41 69 -21 87 0 rrcurveto
          126 1603 rmoveto
          29 0 27 10 24 20 32 25 16 33 0 39 0 17 -5 14 -9 12 -15 18 -21 9 -27 0 -31 0 -27 -10 -25 -19 -32 -26 -16 -32 0 -38 0 -17 5 -16 11 -12 14 -18 22 -9 28 0 rrcurveto
          431 hmoveto
          30 0 27 10 25 20 32 25 16 33 0 39 0 17 -5 14 -9 12 -15 18 -22 9 -28 0 -29 0 -27 -10 -25 -19 -32 -26 -16 -32 0 -38 0 -17 5 -16 11 -12 14 -18 21 -9 27 0 rrcurveto
          endchar
        </CharString>
        <CharString name="Udieresis">
          0 593 -10 rmoveto
          88 0 81 21 72 42 72 43 61 60 51 77 50 77 36 91 22 104 122 568 60 286 0 5 0 12 -3 10 -8 10 -10 12 -14 6 -18 0 -20 0 -19 -7 -18 -15 -18 -15 -11 -17 -4 -20 rrcurveto
          -180 -843 rlineto
          -15 -68 -23 -62 -32 -54 -31 -55 -40 -43 -48 -32 -48 -32 -55 -16 -61 0 -63 0 -49 17 -35 35 -35 34 -21 37 -6 38 -6 39 -3 31 0 22 0 37 4 39 8 41 122 568 60 286 0 5 rrcurveto
          0 12 -3 10 -8 10 -10 12 -14 6 -18 0 -20 0 -19 -7 -17 -15 -18 -15 -11 -17 -4 -20 rrcurveto
          -180 -843 rlineto
          -13 -57 -6 -53 0 -49 0 -130 39 -96 78 -60 53 -41 69 -21 87 0 rrcurveto
          95 1605 rmoveto
          9 0 8 3 11 6 rrcurveto
          200 113 rlineto
          15 8 18 5 15 0 15 0 19 -6 11 -9 rrcurveto
          154 -113 rlineto
          7 -5 5 -1 9 0 15 0 13 5 13 13 12 10 5 10 4 13 0 2 0 3 0 3 0 11 -2 6 -6 7 rrcurveto
          -146 144 rlineto
          -23 24 -31 12 -38 0 -38 0 -38 -13 -35 -24 rrcurveto
          -208 -144 rlineto
          -15 -11 -8 -13 -3 -15 -1 -3 0 -3 0 -4 0 -8 1 -5 5 -7 7 -10 7 -4 14 0 rrcurveto
          endchar
        </CharString>
        <CharString name="Ugrave">
          0 593 -10 rmoveto
          88 0 81 21 72 42 72 43 61 60 51 77 50 77 36 91 22 104 122 568 60 286 0 5 0 12 -3 10 -8 10 -10 12 -14 6 -18 0 -20 0 -19 -7 -18 -15 -18 -15 -11 -17 -4 -20 rrcurveto
          -180 -843 rlineto
          -15 -68 -23 -62 -32 -54 -31 -55 -40 -43 -48 -32 -48 -32 -55 -16 -61 0 -63 0 -49 17 -35 35 -35 34 -21 37 -6 38 -6 39 -3 31 0 22 0 37 4 39 8 41 122 568 60 286 0 5 rrcurveto
          0 12 -3 10 -8 10 -10 12 -14 6 -18 0 -20 0 -19 -7 -17 -15 -18 -15 -11 -17 -4 -20 rrcurveto
          -180 -843 rlineto
          -13 -57 -6 -53 0 -49 0 -130 39 -96 78 -60 53 -41 69 -21 87 0 rrcurveto
          501 1595 rmoveto
          17 0 16 9 13 17 6 8 3 7 1 6 rrcurveto
          2 12 rlineto
          0 11 -3 6 -10 6 rrcurveto
          -229 153 rlineto
          -9 7 -9 2 -12 0 -26 0 -24 -11 -20 -24 -10 -13 -5 -10 -2 -14 -2 -6 0 -4 0 -5 0 -22 8 -14 20 -9 rrcurveto
          260 -109 rlineto
          5 -2 4 -1 6 0 rrcurveto
          endchar
        </CharString>
        <CharString name="V">
          0 597 -13 rmoveto
          21 0 21 7 21 14 21 14 15 18 11 22 419 855 211 430 1 7 1 6 1 6 0 5 0 12 -4 12 -7 10 -11 15 -15 7 -20 0 -16 0 -15 -5 -15 -9 -15 -10 -11 -13 -8 -15 rrcurveto
          -484 -1003 rlineto
          -16 -33 -17 -16 -17 0 -17 0 -10 16 -3 33 rrcurveto
          -58 1003 rlineto
          -1 15 -6 13 -11 10 -11 9 -13 5 -16 0 -20 0 -18 -7 -16 -15 -17 -15 -10 -16 -4 -19 rrcurveto
          -1 vlineto
          0 -27 27 -430 54 -835 1 -22 8 -18 15 -14 15 -14 18 -7 21 0 rrcurveto
          endchar
        </CharString>
        <CharString name="W">
          0 905 -10 rmoveto
          23 0 22 8 21 16 21 16 13 20 7 25 226 851 114 428 0 5 0 12 -5 11 -9 9 -11 13 -16 6 -19 0 -19 0 -17 -6 -16 -13 -17 -13 -11 -17 -5 -20 rrcurveto
          -227 -868 rlineto
          -11 -45 -13 -23 -14 0 -17 0 -11 19 -3 39 rrcurveto
          -37 454 rlineto
          -2 19 -7 15 -12 11 -13 11 -15 5 -17 0 -17 0 -17 -5 -17 -11 -17 -11 -14 -15 -10 -19 rrcurveto
          -231 -454 rlineto
          -19 -39 -19 -19 -17 0 -9 0 -4 9 0 17 0 11 25 158 51 307 47 294 24 148 0 4 0 15 -4 12 -8 11 -11 13 -14 6 -19 0 -19 0 -18 -6 -17 -13 -17 -13 -11 -15 -4 -17 rrcurveto
          -136 -853 -67 -429 0 -5 0 -17 5 -16 11 -12 14 -16 19 -8 23 0 44 0 33 20 21 40 rrcurveto
          316 605 rlineto
          13 25 14 12 15 0 15 0 8 -12 3 -25 rrcurveto
          60 -605 rlineto
          1 -20 8 -15 14 -10 13 -10 17 -5 19 0 rrcurveto
          endchar
        </CharString>
        <CharString name="X">
          0 959 -10 rmoveto
          21 0 18 8 17 15 22 20 11 22 0 24 0 8 -35 103 -68 201 -69 200 -34 103 0 6 0 15 5 14 10 13 rrcurveto
          419 557 rlineto
          12 16 7 18 0 18 0 13 -4 12 -7 11 -10 15 -15 8 -21 0 -29 0 -24 -13 -20 -27 rrcurveto
          -336 -458 rlineto
          -11 -15 -12 -7 -14 0 -15 0 -9 7 -5 15 rrcurveto
          -140 458 rlineto
          -9 27 -20 13 -29 0 -20 0 -18 -8 -17 -15 -23 -20 -11 -23 0 -25 0 -8 62 -192 124 -377 1 -4 1 -5 0 -5 0 -17 -5 -15 -10 -14 rrcurveto
          -448 -582 rlineto
          -13 -18 -7 -17 0 -17 0 -13 5 -12 8 -11 11 -15 16 -7 21 0 28 0 24 13 19 26 rrcurveto
          371 504 rlineto
          10 13 12 7 15 0 14 0 9 -7 5 -13 rrcurveto
          154 -504 rlineto
          7 -26 19 -13 30 0 rrcurveto
          endchar
        </CharString>
        <CharString name="Y">
          0 599 -10 rmoveto
          19 0 17 7 17 14 17 13 10 17 4 20 rrcurveto
          134 632 rlineto
          4 17 8 17 12 17 rrcurveto
          435 562 rlineto
          12 16 7 17 0 17 0 12 -4 11 -7 10 -10 14 -15 7 -19 0 -13 0 -13 -3 -13 -6 -13 -6 -11 -8 -8 -11 rrcurveto
          -319 -416 rlineto
          -21 -26 -18 -13 -17 0 -18 0 -14 13 -9 26 rrcurveto
          -138 416 rlineto
          -8 23 -19 11 -31 0 -20 0 -18 -7 -16 -14 -21 -18 -10 -20 0 -22 0 -7 67 -195 134 -385 4 -10 1 -11 0 -11 0 -8 -22 -111 -46 -215 -46 -216 -23 -110 0 -5 0 -13 4 -11 8 -10 rrcurveto
          11 -14 15 -7 20 0 rrcurveto
          endchar
        </CharString>
        <CharString name="Yacute">
          0 595 -10 rmoveto
          20 0 18 7 18 15 17 15 11 17 4 21 rrcurveto
          135 633 rlineto
          4 16 7 16 12 16 rrcurveto
          434 562 rlineto
          13 18 7 17 0 16 0 12 -4 11 -6 9 -9 13 -14 6 -18 0 -13 0 -14 -3 -13 -7 -14 -6 -11 -9 -9 -11 rrcurveto
          -313 -406 rlineto
          -17 -18 -18 -9 -20 0 -23 0 -17 11 -10 22 rrcurveto
          -136 405 rlineto
          -8 21 -19 10 -28 0 -20 0 -19 -7 -17 -15 -23 -19 -11 -21 0 -24 0 -7 1 -7 3 -7 136 -387 68 -198 0 -10 0 -8 -23 -112 -46 -216 -46 -216 -23 -110 0 -5 0 -12 3 -11 8 -9 rrcurveto
          10 -13 14 -6 19 0 rrcurveto
          199 1595 rmoveto
          6 0 4 1 8 3 rrcurveto
          306 109 rlineto
          33 12 21 25 6 30 1 6 1 4 0 5 0 8 -1 5 -3 7 -8 20 -15 9 -25 0 -13 0 -11 -3 -14 -7 rrcurveto
          -293 -153 rlineto
          -19 -10 -10 -13 -4 -19 -1 -3 0 -2 0 -3 0 -4 1 -2 1 -5 4 -15 8 -5 17 0 rrcurveto
          endchar
        </CharString>
        <CharString name="Z">
          0 944 20 rmoveto
          19 0 18 7 17 14 22 17 11 22 0 26 0 13 -4 11 -8 10 -11 13 -15 7 -19 0 rrcurveto
          -483 hlineto
          -43 0 -21 11 0 23 0 16 10 21 21 25 rrcurveto
          792 944 rlineto
          21 26 10 29 0 33 0 22 -7 19 -13 16 -18 23 -25 12 -33 0 rrcurveto
          -631 hlineto
          -18 0 -17 -7 -17 -14 -23 -19 -12 -21 0 -24 0 -13 5 -12 8 -10 11 -14 15 -7 18 0 rrcurveto
          483 hlineto
          29 0 18 -3 8 -7 8 -7 4 -8 0 -9 0 -16 -10 -19 -20 -24 rrcurveto
          -793 -944 rlineto
          -22 -28 -11 -29 0 -31 0 -22 7 -19 13 -17 19 -24 26 -12 33 0 rrcurveto
          endchar
        </CharString>
        <CharString name="a">
          0 507 145 rmoveto
          -111 0 -56 57 0 113 0 29 4 33 7 37 22 96 31 83 40 71 41 72 49 57 58 41 58 42 62 21 64 0 80 0 52 -37 24 -74 8 -26 4 -27 0 -28 0 -22 -2 -23 -5 -22 rrcurveto
          -31 -148 -55 -118 -79 -88 -83 -91 -89 -46 -93 -2 rrcurveto
          497 103 rmoveto
          3 54 10 65 14 75 48 223 49 185 50 148 1 6 0 5 0 5 0 10 -3 8 -5 5 -13 15 -16 8 -17 0 -42 0 -28 -20 -15 -39 -9 -22 -14 -11 -18 0 -15 0 -12 6 -9 13 rrcurveto
          -30 47 -48 25 -67 1 -96 0 -91 -31 -85 -63 -84 -62 -72 -81 -58 -99 -58 -99 -42 -109 -25 -119 -12 -54 -6 -49 0 -43 0 -66 13 -53 27 -41 42 -67 76 -34 110 0 59 0 65 20 72 39 rrcurveto
          71 40 49 39 28 39 10 15 14 7 16 0 14 0 11 -7 9 -14 6 -12 3 -16 0 -21 1 -22 8 -25 18 -26 24 -37 41 -18 57 -1 48 0 49 21 48 41 50 43 25 38 0 33 rrcurveto
          0 7 -2 6 -4 5 -4 5 -5 3 -7 0 -18 0 -16 -9 -15 -17 -28 -34 -32 -17 -35 0 -37 0 -23 10 -9 21 -8 20 -5 30 -1 38 rrcurveto
          endchar
        </CharString>
        <CharString name="a_alt">
          0 968 -10 rmoveto
          40 0 36 29 8 40 rrcurveto
          143 671 rlineto
          6 30 3 28 0 27 0 156 -110 89 -204 0 -111 0 -94 -26 -84 -53 -55 -34 -65 -45 -9 -44 -2 -9 -1 -8 0 -7 0 -30 16 -16 31 0 26 0 26 14 17 15 88 79 74 40 104 0 rrcurveto
          76 0 60 -21 36 -40 26 -31 12 -30 0 -41 0 -27 -5 -32 -9 -41 -11 -53 -29 -29 -65 0 -33 0 -28 8 -24 4 -39 6 -37 2 -41 0 -232 0 -186 -99 -48 -225 -6 -27 -2 -26 0 -24 rrcurveto
          0 -137 93 -83 192 0 90 0 73 6 68 31 68 31 44 36 34 31 rrcurveto
          -9 -73 -2 -16 rlineto
          0 -29 19 -17 32 0 rrcurveto
          -343 108 rmoveto
          -136 0 -63 58 0 95 0 17 2 18 4 19 37 174 189 10 48 1 rrcurveto
          24 hlineto
          71 0 100 -9 47 -38 14 -11 21 -22 0 -34 rrcurveto
          -2 -17 -9 -43 rlineto
          -28 -131 -150 -87 -169 0 rrcurveto
          endchar
        </CharString>
        <CharString name="aacute">
          0 730 1285 rmoveto
          6 0 4 1 8 3 rrcurveto
          306 109 rlineto
          33 12 21 25 6 30 1 6 1 4 0 5 0 8 -1 5 -3 7 -8 20 -15 9 -25 0 -13 0 -11 -3 -13 -7 rrcurveto
          -294 -153 rlineto
          -19 -10 -10 -13 -3 -18 -1 -4 0 -2 0 -3 0 -5 0 -2 1 -4 5 -15 7 -5 17 0 rrcurveto
          -223 -1140 rmoveto
          -111 0 -56 57 0 113 0 29 4 33 7 37 22 96 31 83 40 71 41 72 49 57 58 41 58 42 62 21 64 0 80 0 52 -37 24 -74 8 -26 4 -27 0 -28 0 -22 -2 -23 -5 -22 rrcurveto
          -31 -148 -55 -118 -79 -88 -83 -91 -89 -46 -93 -2 rrcurveto
          497 103 rmoveto
          3 54 10 65 14 75 48 223 49 185 50 148 1 6 0 5 0 5 0 10 -3 8 -5 5 -13 15 -16 8 -17 0 -42 0 -28 -20 -15 -39 -9 -22 -14 -11 -18 0 -15 0 -12 6 -9 13 rrcurveto
          -30 47 -48 25 -67 1 -96 0 -91 -31 -85 -63 -84 -62 -72 -81 -58 -99 -58 -99 -42 -109 -25 -119 -12 -54 -6 -49 0 -43 0 -66 13 -53 27 -41 42 -67 76 -34 110 0 59 0 65 20 72 39 rrcurveto
          71 40 49 39 28 39 10 15 14 7 16 0 14 0 11 -7 9 -14 6 -12 3 -16 0 -21 1 -22 8 -25 18 -26 24 -37 41 -18 57 -1 48 0 49 21 48 41 50 43 25 38 0 33 rrcurveto
          0 7 -2 6 -4 5 -4 5 -5 3 -7 0 -18 0 -16 -9 -15 -17 -28 -34 -32 -17 -35 0 -37 0 -23 10 -9 21 -8 20 -5 30 -1 38 rrcurveto
          endchar
        </CharString>
        <CharString name="aacute_alt">
          0 790 1285 rmoveto
          6 0 5 1 7 3 rrcurveto
          306 109 rlineto
          33 12 21 25 7 30 rrcurveto
          1 15 rlineto
          0 7 -1 6 -2 7 -9 20 -15 9 -25 0 -12 0 -12 -3 -13 -7 rrcurveto
          -294 -153 rlineto
          -19 -9 -10 -14 -4 -18 rrcurveto
          -1 -9 2 -11 rlineto
          5 -15 7 -5 17 0 rrcurveto
          178 -1295 rmoveto
          40 0 36 29 8 40 rrcurveto
          143 671 rlineto
          6 30 3 28 0 27 0 156 -110 89 -204 0 -111 0 -94 -26 -84 -53 -55 -34 -65 -45 -9 -44 -2 -9 -1 -8 0 -7 0 -30 16 -16 31 0 26 0 26 14 17 15 88 79 74 40 104 0 rrcurveto
          76 0 60 -21 36 -40 26 -31 12 -30 0 -41 0 -27 -5 -32 -9 -41 -11 -53 -29 -29 -65 0 -33 0 -28 8 -24 4 -39 6 -37 2 -41 0 -232 0 -186 -99 -48 -225 -6 -27 -2 -26 0 -24 rrcurveto
          0 -137 93 -83 192 0 90 0 73 6 68 31 68 31 44 36 34 31 rrcurveto
          -9 -73 -2 -16 rlineto
          0 -29 19 -17 32 0 rrcurveto
          -343 108 rmoveto
          -136 0 -63 58 0 95 0 17 2 18 4 19 37 174 189 10 48 1 rrcurveto
          24 hlineto
          71 0 100 -9 47 -38 14 -11 21 -22 0 -34 rrcurveto
          -2 -17 -9 -43 rlineto
          -28 -131 -150 -87 -169 0 rrcurveto
          endchar
        </CharString>
        <CharString name="acircumflex">
          0 624 1295 rmoveto
          9 0 9 3 10 5 rrcurveto
          200 114 rlineto
          15 8 18 5 15 0 15 0 19 -6 11 -9 rrcurveto
          154 -113 rlineto
          7 -5 5 -1 10 0 14 0 13 5 13 13 12 11 6 9 2 12 1 4 0 2 0 4 0 11 -2 5 -6 7 rrcurveto
          -145 144 rlineto
          -24 24 -30 12 -38 0 -38 0 -39 -13 -35 -24 rrcurveto
          -207 -144 rlineto
          -15 -11 -8 -13 -4 -15 -1 -3 0 -3 0 -4 0 -8 1 -5 5 -7 7 -10 7 -4 14 0 rrcurveto
          -117 -1150 rmoveto
          -111 0 -56 57 0 113 0 29 4 33 7 37 22 96 31 83 40 71 41 72 49 57 58 41 58 42 62 21 64 0 80 0 52 -37 24 -74 8 -26 4 -27 0 -28 0 -22 -2 -23 -5 -22 rrcurveto
          -31 -148 -55 -118 -79 -88 -83 -91 -89 -46 -93 -2 rrcurveto
          497 103 rmoveto
          3 54 10 65 14 75 48 223 49 185 50 148 1 6 0 5 0 5 0 10 -3 8 -5 5 -13 15 -16 8 -17 0 -42 0 -28 -20 -15 -39 -9 -22 -14 -11 -18 0 -15 0 -12 6 -9 13 rrcurveto
          -30 47 -48 25 -67 1 -96 0 -91 -31 -85 -63 -84 -62 -72 -81 -58 -99 -58 -99 -42 -109 -25 -119 -12 -54 -6 -49 0 -43 0 -66 13 -53 27 -41 42 -67 76 -34 110 0 59 0 65 20 72 39 rrcurveto
          71 40 49 39 28 39 10 15 14 7 16 0 14 0 11 -7 9 -14 6 -12 3 -16 0 -21 1 -22 8 -25 18 -26 24 -37 41 -18 57 -1 48 0 49 21 48 41 50 43 25 38 0 33 rrcurveto
          0 7 -2 6 -4 5 -4 5 -5 3 -7 0 -18 0 -16 -9 -15 -17 -28 -34 -32 -17 -35 0 -37 0 -23 10 -9 21 -8 20 -5 30 -1 38 rrcurveto
          endchar
        </CharString>
        <CharString name="acircumflex_alt">
          0 684 1295 rmoveto
          10 0 8 2 11 6 rrcurveto
          200 113 rlineto
          14 9 18 5 15 0 15 0 18 -6 12 -9 rrcurveto
          154 -113 rlineto
          7 -4 5 -2 10 0 14 0 13 5 14 13 11 10 6 10 2 12 1 4 0 4 0 4 0 8 -2 7 -6 6 rrcurveto
          -146 144 rlineto
          -23 24 -30 12 -38 0 -38 0 -38 -13 -36 -24 rrcurveto
          -207 -144 rlineto
          -16 -11 -8 -13 -3 -16 rrcurveto
          -2 -12 rlineto
          0 -6 2 -5 4 -6 7 -10 8 -4 14 0 rrcurveto
          284 -1305 rmoveto
          40 0 36 29 8 40 rrcurveto
          143 671 rlineto
          6 30 3 28 0 27 0 156 -110 89 -204 0 -111 0 -94 -26 -84 -53 -55 -34 -65 -45 -9 -44 -2 -9 -1 -8 0 -7 0 -30 16 -16 31 0 26 0 26 14 17 15 88 79 74 40 104 0 rrcurveto
          76 0 60 -21 36 -40 26 -31 12 -30 0 -41 0 -27 -5 -32 -9 -41 -11 -53 -29 -29 -65 0 -33 0 -28 8 -24 4 -39 6 -37 2 -41 0 -232 0 -186 -99 -48 -225 -6 -27 -2 -26 0 -24 rrcurveto
          0 -137 93 -83 192 0 90 0 73 6 68 31 68 31 44 36 34 31 rrcurveto
          -9 -73 -2 -16 rlineto
          0 -29 19 -17 32 0 rrcurveto
          -343 108 rmoveto
          -136 0 -63 58 0 95 0 17 2 18 4 19 37 174 189 10 48 1 rrcurveto
          24 hlineto
          71 0 100 -9 47 -38 14 -11 21 -22 0 -34 rrcurveto
          -2 -17 -9 -43 rlineto
          -28 -131 -150 -87 -169 0 rrcurveto
          endchar
        </CharString>
        <CharString name="acute">
          0 711 1332 rmoveto
          435 162 -40 126 -421 -216 rlineto
          endchar
        </CharString>
        <CharString name="adieresis">
          0 656 1293 rmoveto
          29 0 26 10 24 20 33 26 16 32 0 38 0 17 -5 15 -10 12 -15 18 -21 9 -27 0 -30 0 -27 -10 -25 -19 -32 -26 -16 -32 0 -39 0 -17 5 -15 11 -12 14 -18 21 -9 29 0 rrcurveto
          430 hmoveto
          31 0 27 10 24 20 33 26 16 31 0 38 0 18 -5 15 -10 12 -15 18 -22 9 -28 0 -29 0 -26 -10 -25 -19 -33 -26 -16 -32 0 -38 0 -17 5 -16 11 -12 14 -18 21 -9 27 0 rrcurveto
          -579 -1148 rmoveto
          -111 0 -56 57 0 113 0 29 4 33 7 37 22 96 31 83 40 71 41 72 49 57 58 41 58 42 62 21 64 0 80 0 52 -37 24 -74 8 -26 4 -27 0 -28 0 -22 -2 -23 -5 -22 rrcurveto
          -31 -148 -55 -118 -79 -88 -83 -91 -89 -46 -93 -2 rrcurveto
          497 103 rmoveto
          3 54 10 65 14 75 48 223 49 185 50 148 1 6 0 5 0 5 0 10 -3 8 -5 5 -13 15 -16 8 -17 0 -42 0 -28 -20 -15 -39 -9 -22 -14 -11 -18 0 -15 0 -12 6 -9 13 rrcurveto
          -30 47 -48 25 -67 1 -96 0 -91 -31 -85 -63 -84 -62 -72 -81 -58 -99 -58 -99 -42 -109 -25 -119 -12 -54 -6 -49 0 -43 0 -66 13 -53 27 -41 42 -67 76 -34 110 0 59 0 65 20 72 39 rrcurveto
          71 40 49 39 28 39 10 15 14 7 16 0 14 0 11 -7 9 -14 6 -12 3 -16 0 -21 1 -22 8 -25 18 -26 24 -37 41 -18 57 -1 48 0 49 21 48 41 50 43 25 38 0 33 rrcurveto
          0 7 -2 6 -4 5 -4 5 -5 3 -7 0 -18 0 -16 -9 -15 -17 -28 -34 -32 -17 -35 0 -37 0 -23 10 -9 21 -8 20 -5 30 -1 38 rrcurveto
          endchar
        </CharString>
        <CharString name="adieresis_alt">
          0 716 1293 rmoveto
          29 0 26 10 25 20 32 25 16 32 0 38 0 18 -6 15 -10 13 -14 17 -21 9 -27 0 -30 0 -27 -10 -24 -19 -33 -27 -16 -31 0 -37 0 -18 5 -15 10 -13 15 -18 21 -9 29 0 rrcurveto
          430 hmoveto
          31 0 27 10 25 20 32 25 16 32 0 38 0 18 -6 15 -10 13 -14 17 -21 9 -29 0 -29 0 -26 -10 -25 -19 -32 -26 -17 -32 0 -39 0 -17 6 -15 10 -12 15 -18 20 -9 27 0 rrcurveto
          -178 -1303 rmoveto
          40 0 36 29 8 40 rrcurveto
          143 671 rlineto
          6 30 3 28 0 27 0 156 -110 89 -204 0 -111 0 -94 -26 -84 -53 -55 -34 -65 -45 -9 -44 -2 -9 -1 -8 0 -7 0 -30 16 -16 31 0 26 0 26 14 17 15 88 79 74 40 104 0 rrcurveto
          76 0 60 -21 36 -40 26 -31 12 -30 0 -41 0 -27 -5 -32 -9 -41 -11 -53 -29 -29 -65 0 -33 0 -28 8 -24 4 -39 6 -37 2 -41 0 -232 0 -186 -99 -48 -225 -6 -27 -2 -26 0 -24 rrcurveto
          0 -137 93 -83 192 0 90 0 73 6 68 31 68 31 44 36 34 31 rrcurveto
          -9 -73 -2 -16 rlineto
          0 -29 19 -17 32 0 rrcurveto
          -343 108 rmoveto
          -136 0 -63 58 0 95 0 17 2 18 4 19 37 174 189 10 48 1 rrcurveto
          24 hlineto
          71 0 100 -9 47 -38 14 -11 21 -22 0 -34 rrcurveto
          -2 -17 -9 -43 rlineto
          -28 -131 -150 -87 -169 0 rrcurveto
          endchar
        </CharString>
        <CharString name="ae">
          0 875 -10 rmoveto
          54 0 47 9 46 19 23 10 22 11 24 12 19 11 11 17 5 20 3 15 -1 5 -7 15 -6 14 -9 5 -16 0 -10 0 -8 -2 -10 -6 -15 -8 -14 -6 -12 -6 -34 -14 -38 -8 -38 0 rrcurveto
          -71 0 -53 34 -24 61 -18 42 -6 63 5 76 rrcurveto
          2 14 rlineto
          10 46 47 42 46 0 rrcurveto
          364 hlineto
          30 0 26 22 8 33 rrcurveto
          5 24 rlineto
          34 162 1 123 -30 90 -30 86 -63 39 -109 0 -60 0 -49 -14 -46 -29 -34 -21 -27 -26 -25 -31 -9 -12 -17 -8 -12 0 -13 0 -17 10 -5 15 -10 31 -15 23 -21 21 -29 28 -45 13 -70 0 rrcurveto
          -42 0 -42 -6 -45 -11 -23 -7 -24 -7 -23 -9 -26 -8 -16 -20 -5 -24 -2 -7 0 -5 0 -1 rrcurveto
          1 -1 rlineto
          4 -26 10 -9 21 0 6 0 5 1 7 3 16 6 15 4 13 4 31 9 34 4 35 0 59 0 48 -20 27 -37 29 -41 1 -62 -17 -80 -10 -47 -48 -41 -46 0 rrcurveto
          -16 hlineto
          -131 0 -101 -28 -78 -57 -78 -57 -48 -79 -23 -106 -20 -96 8 -71 36 -57 38 -55 54 -26 85 0 61 0 50 13 46 28 38 23 40 37 44 51 8 10 16 8 11 0 12 0 17 -10 6 -13 rrcurveto
          20 -46 24 -34 31 -24 37 -29 48 -14 66 0 rrcurveto
          196 589 rmoveto
          -194 hlineto
          -48 0 -35 48 11 49 rrcurveto
          2 10 rlineto
          27 82 29 63 30 38 41 53 54 28 59 0 69 0 48 -35 14 -64 8 -44 -1 -59 -9 -73 rrcurveto
          -1 -6 rlineto
          -10 -47 -48 -43 -46 0 rrcurveto
          -713 -485 rmoveto
          -45 0 -38 21 -21 40 -19 37 -2 55 14 66 14 66 31 55 43 41 50 43 70 18 95 0 45 0 35 -45 -7 -46 -2 -16 -3 -15 -1 -16 -3 -29 -3 -27 -1 -28 rrcurveto
          -2 -14 rlineto
          -3 -16 -8 -16 -9 -13 -36 -48 -34 -38 -33 -26 -37 -31 -45 -18 -45 0 rrcurveto
          endchar
        </CharString>
        <CharString name="agrave">
          0 1030 1285 rmoveto
          17 0 16 9 13 17 6 8 3 7 1 6 rrcurveto
          2 12 rlineto
          0 11 -3 6 -10 6 rrcurveto
          -228 153 rlineto
          -9 7 -10 2 -12 0 -26 0 -24 -11 -19 -23 -10 -14 -6 -11 -2 -13 -2 -6 0 -4 0 -5 0 -22 8 -14 20 -9 rrcurveto
          260 -109 rlineto
          5 -2 4 -1 6 0 rrcurveto
          -523 -1140 rmoveto
          -111 0 -56 57 0 113 0 29 4 33 7 37 22 96 31 83 40 71 41 72 49 57 58 41 58 42 62 21 64 0 80 0 52 -37 24 -74 8 -26 4 -27 0 -28 0 -22 -2 -23 -5 -22 rrcurveto
          -31 -148 -55 -118 -79 -88 -83 -91 -89 -46 -93 -2 rrcurveto
          497 103 rmoveto
          3 54 10 65 14 75 48 223 49 185 50 148 1 6 0 5 0 5 0 10 -3 8 -5 5 -13 15 -16 8 -17 0 -42 0 -28 -20 -15 -39 -9 -22 -14 -11 -18 0 -15 0 -12 6 -9 13 rrcurveto
          -30 47 -48 25 -67 1 -96 0 -91 -31 -85 -63 -84 -62 -72 -81 -58 -99 -58 -99 -42 -109 -25 -119 -12 -54 -6 -49 0 -43 0 -66 13 -53 27 -41 42 -67 76 -34 110 0 59 0 65 20 72 39 rrcurveto
          71 40 49 39 28 39 10 15 14 7 16 0 14 0 11 -7 9 -14 6 -12 3 -16 0 -21 1 -22 8 -25 18 -26 24 -37 41 -18 57 -1 48 0 49 21 48 41 50 43 25 38 0 33 rrcurveto
          0 7 -2 6 -4 5 -4 5 -5 3 -7 0 -18 0 -16 -9 -15 -17 -28 -34 -32 -17 -35 0 -37 0 -23 10 -9 21 -8 20 -5 30 -1 38 rrcurveto
          endchar
        </CharString>
        <CharString name="agrave_alt">
          0 1090 1285 rmoveto
          18 0 15 8 13 18 6 8 3 6 2 8 rrcurveto
          1 11 rlineto
          0 11 -4 7 -9 5 rrcurveto
          -228 153 rlineto
          -10 7 -9 2 -12 0 -25 0 -24 -11 -20 -24 -10 -12 -6 -12 -3 -13 -1 -6 -1 -6 0 -5 0 -20 9 -14 20 -9 rrcurveto
          260 -109 rlineto
          5 -2 4 -1 6 0 rrcurveto
          -122 -1295 rmoveto
          40 0 36 29 8 40 rrcurveto
          143 671 rlineto
          6 30 3 28 0 27 0 156 -110 89 -204 0 -111 0 -94 -26 -84 -53 -55 -34 -65 -45 -9 -44 -2 -9 -1 -8 0 -7 0 -30 16 -16 31 0 26 0 26 14 17 15 88 79 74 40 104 0 rrcurveto
          76 0 60 -21 36 -40 26 -31 12 -30 0 -41 0 -27 -5 -32 -9 -41 -11 -53 -29 -29 -65 0 -33 0 -28 8 -24 4 -39 6 -37 2 -41 0 -232 0 -186 -99 -48 -225 -6 -27 -2 -26 0 -24 rrcurveto
          0 -137 93 -83 192 0 90 0 73 6 68 31 68 31 44 36 34 31 rrcurveto
          -9 -73 -2 -16 rlineto
          0 -29 19 -17 32 0 rrcurveto
          -343 108 rmoveto
          -136 0 -63 58 0 95 0 17 2 18 4 19 37 174 189 10 48 1 rrcurveto
          24 hlineto
          71 0 100 -9 47 -38 14 -11 21 -22 0 -34 rrcurveto
          -2 -17 -9 -43 rlineto
          -28 -131 -150 -87 -169 0 rrcurveto
          endchar
        </CharString>
        <CharString name="ampersand">
          0 510 -10 rmoveto
          87 0 93 31 99 62 98 63 88 84 76 105 77 106 47 95 17 83 1 5 1 4 0 4 0 10 -4 10 -6 9 -9 12 -15 6 -21 0 -32 0 -27 -25 -19 -49 -55 -125 -72 -104 -88 -83 rrcurveto
          -105 -98 -100 -49 -96 0 -117 0 -59 51 0 101 0 22 3 25 6 27 18 84 36 78 55 73 -32 35 -27 34 -22 32 -84 -90 -57 -113 -28 -135 -8 -36 -4 -34 0 -32 0 -64 16 -57 31 -48 rrcurveto
          46 -73 79 -36 113 0 rrcurveto
          510 hmoveto
          20 0 18 7 16 14 24 21 12 32 0 41 0 36 -7 40 -14 43 -36 -57 -39 -46 -44 -35 1 -64 16 -32 33 0 rrcurveto
          -202 423 rmoveto
          20 13 33 47 48 82 rrcurveto
          -237 297 rlineto
          -56 68 -28 64 0 61 0 13 1 13 3 13 12 53 25 44 40 36 40 35 48 18 56 0 44 0 35 -11 28 -22 27 -22 18 -27 8 -33 9 -32 19 -16 29 0 19 0 17 7 16 14 rrcurveto
          21 18 10 20 0 21 0 6 -1 7 -1 9 -12 66 -30 50 -48 34 -48 34 -62 17 -76 0 -87 0 -82 -30 -76 -59 -77 -59 -49 -81 -22 -101 -5 -21 -2 -21 0 -21 0 -83 35 -82 69 -84 rrcurveto
          endchar
        </CharString>
        <CharString name="ampersand_alt">
          0 869 312 rmoveto
          -11 -10 -7 -7 -3 -3 -105 -97 -99 -49 -96 0 -146 0 -56 76 32 153 21 97 68 117 114 135 rrcurveto
          359 -518 rmoveto
          29 -63 11 -53 -5 -41 -5 -39 14 -20 33 0 20 0 19 8 17 15 17 15 11 18 5 22 7 31 -4 46 -14 62 -11 49 -17 41 -22 32 81 113 49 97 18 83 3 15 -3 13 -8 12 rrcurveto
          -8 11 -15 6 -19 0 -34 0 -28 -26 -21 -51 -19 -43 -26 -49 -32 -54 rrcurveto
          -301 398 rlineto
          -68 83 -27 78 16 72 11 52 25 44 39 35 39 35 47 17 56 0 44 0 36 -11 28 -23 28 -22 18 -27 8 -32 8 -32 19 -16 28 0 19 0 18 7 17 15 17 15 10 17 5 20 rrcurveto
          1 6 -1 10 -2 15 -11 66 -30 49 -47 33 -47 33 -62 17 -76 0 -88 0 -82 -30 -78 -60 -77 -59 -50 -82 -22 -102 -16 -79 17 -83 51 -88 -143 -145 -89 -154 -35 -161 -23 -108 12 -90 45 -72 rrcurveto
          46 -71 79 -36 112 0 87 0 93 31 99 62 44 28 51 41 59 54 rrcurveto
          endchar
        </CharString>
        <CharString name="ampersand_ampersand">
          0 -620 -10 rmoveto
          87 0 93 31 99 62 98 63 88 84 76 105 77 106 47 95 17 83 1 5 1 4 0 4 0 10 -4 10 -6 9 -9 12 -15 6 -21 0 -32 0 -27 -25 -19 -49 -55 -125 -72 -104 -88 -83 rrcurveto
          -105 -98 -100 -49 -96 0 -117 0 -59 51 0 101 0 22 3 25 6 27 18 84 36 78 55 73 -32 35 -27 34 -22 32 -84 -90 -57 -113 -28 -135 -8 -36 -4 -34 0 -32 0 -64 16 -57 31 -48 rrcurveto
          46 -73 79 -36 113 0 rrcurveto
          510 hmoveto
          20 0 18 7 16 14 24 21 12 32 0 41 0 36 -7 40 -14 43 -36 -57 -39 -46 -44 -35 1 -64 16 -32 33 0 rrcurveto
          858 423 rmoveto
          20 13 33 47 48 82 rrcurveto
          -237 297 rlineto
          -56 68 -28 64 0 61 0 13 1 13 3 13 12 53 25 44 40 36 40 35 48 18 56 0 44 0 35 -11 28 -22 27 -22 18 -27 8 -33 9 -32 19 -16 29 0 19 0 17 7 16 14 rrcurveto
          21 18 10 20 0 21 0 6 -1 7 -1 9 -12 66 -30 50 -48 34 -48 34 -62 17 -76 0 -87 0 -82 -30 -76 -59 -77 -59 -49 -81 -22 -101 -5 -21 -2 -21 0 -21 0 -83 35 -82 69 -84 rrcurveto
          -39 -778 rmoveto
          87 0 93 31 99 62 98 63 88 84 76 105 77 106 47 95 17 83 1 5 1 4 0 4 0 10 -4 10 -6 9 -9 12 -15 6 -21 0 -32 0 -27 -25 -19 -49 -55 -125 -72 -104 -88 -83 rrcurveto
          -105 -98 -100 -49 -96 0 -117 0 -59 51 0 101 0 22 3 25 6 27 18 84 36 78 55 73 -32 35 -27 34 -22 32 -84 -90 -57 -113 -28 -135 -8 -36 -4 -34 0 -32 0 -64 16 -57 31 -48 rrcurveto
          46 -73 79 -36 113 0 rrcurveto
          510 hmoveto
          20 0 18 7 16 14 24 21 12 32 0 41 0 36 -7 40 -14 43 -36 -57 -39 -46 -44 -35 1 -64 16 -32 33 0 rrcurveto
          -1262 423 rmoveto
          20 13 33 47 48 82 rrcurveto
          -237 297 rlineto
          -56 68 -28 64 0 61 0 13 1 13 3 13 12 53 25 44 40 36 40 35 48 18 56 0 44 0 35 -11 28 -22 27 -22 18 -27 8 -33 9 -32 19 -16 29 0 19 0 17 7 16 14 rrcurveto
          21 18 10 20 0 21 0 6 -1 7 -1 9 -12 66 -30 50 -48 34 -48 34 -62 17 -76 0 -87 0 -82 -30 -76 -59 -77 -59 -49 -81 -22 -101 -5 -21 -2 -21 0 -21 0 -83 35 -82 69 -84 rrcurveto
          endchar
        </CharString>
        <CharString name="ampersand_ampersand_alt">
          0 809 312 rmoveto
          -11 -10 -7 -7 -3 -3 -105 -97 -99 -49 -96 0 -146 0 -56 76 32 153 21 97 68 117 114 135 rrcurveto
          359 -518 rmoveto
          29 -63 11 -53 -5 -41 -5 -39 14 -20 33 0 20 0 19 8 17 15 17 15 11 18 5 22 7 31 -4 46 -14 62 -11 49 -17 41 -22 32 81 113 49 97 18 83 3 15 -3 13 -8 12 rrcurveto
          -8 11 -15 6 -19 0 -34 0 -28 -26 -21 -51 -19 -43 -26 -49 -32 -54 rrcurveto
          -301 398 rlineto
          -68 83 -27 78 16 72 11 52 25 44 39 35 39 35 47 17 56 0 44 0 36 -11 28 -23 28 -22 18 -27 8 -32 8 -32 19 -16 28 0 19 0 18 7 17 15 17 15 10 17 5 20 rrcurveto
          1 6 -1 10 -2 15 -11 66 -30 49 -47 33 -47 33 -62 17 -76 0 -88 0 -82 -30 -78 -60 -77 -59 -50 -82 -22 -102 -16 -79 17 -83 51 -88 -143 -145 -89 -154 -35 -161 -23 -108 12 -90 45 -72 rrcurveto
          46 -71 79 -36 112 0 87 0 93 31 99 62 44 28 51 41 59 54 rrcurveto
          -1151 106 rmoveto
          -11 -10 -7 -7 -3 -3 -105 -97 -99 -49 -96 0 -146 0 -56 76 32 153 21 97 68 117 114 135 rrcurveto
          359 -518 rmoveto
          29 -63 11 -53 -5 -41 -5 -39 14 -20 33 0 20 0 19 8 17 15 17 15 11 18 5 22 7 31 -4 46 -14 62 -11 49 -17 41 -22 32 81 113 49 97 18 83 3 15 -3 13 -8 12 rrcurveto
          -8 11 -15 6 -19 0 -34 0 -28 -26 -21 -51 -19 -43 -26 -49 -32 -54 rrcurveto
          -301 398 rlineto
          -68 83 -27 78 16 72 11 52 25 44 39 35 39 35 47 17 56 0 44 0 36 -11 28 -23 28 -22 18 -27 8 -32 8 -32 19 -16 28 0 19 0 18 7 17 15 17 15 10 17 5 20 rrcurveto
          1 6 -1 10 -2 15 -11 66 -30 49 -47 33 -47 33 -62 17 -76 0 -88 0 -82 -30 -78 -60 -77 -59 -50 -82 -22 -102 -16 -79 17 -83 51 -88 -143 -145 -89 -154 -35 -161 -23 -108 12 -90 45 -72 rrcurveto
          46 -71 79 -36 112 0 87 0 93 31 99 62 44 28 51 41 59 54 rrcurveto
          endchar
        </CharString>
        <CharString name="aring">
          0 859 1231 rmoveto
          65 0 57 20 50 40 64 51 32 63 0 73 0 36 -11 32 -22 27 -31 38 -47 19 -64 0 -65 0 -58 -20 -49 -40 -49 -39 -31 -49 -12 -57 -3 -15 -2 -13 0 -14 0 -36 11 -32 23 -27 rrcurveto
          31 -38 47 -19 64 0 rrcurveto
          22 64 rmoveto
          -39 0 -27 11 -16 21 -17 21 -8 23 0 24 0 12 1 13 3 13 9 41 18 31 27 24 28 23 32 12 38 0 71 0 36 -34 0 -68 0 -11 -2 -13 -2 -13 -9 -40 -17 -31 -28 -24 rrcurveto
          -27 -23 -33 -12 -38 0 rrcurveto
          -374 -1150 rmoveto
          -111 0 -56 57 0 113 0 29 4 33 7 37 22 96 31 83 40 71 41 72 49 57 58 41 58 42 62 21 64 0 80 0 52 -37 24 -74 8 -26 4 -27 0 -28 0 -22 -2 -23 -5 -22 rrcurveto
          -31 -148 -55 -118 -79 -88 -83 -91 -89 -46 -93 -2 rrcurveto
          497 103 rmoveto
          3 54 10 65 14 75 48 223 49 185 50 148 1 6 0 5 0 5 0 10 -3 8 -5 5 -13 15 -16 8 -17 0 -42 0 -28 -20 -15 -39 -9 -22 -14 -11 -18 0 -15 0 -12 6 -9 13 rrcurveto
          -30 47 -48 25 -67 1 -96 0 -91 -31 -85 -63 -84 -62 -72 -81 -58 -99 -58 -99 -42 -109 -25 -119 -12 -54 -6 -49 0 -43 0 -66 13 -53 27 -41 42 -67 76 -34 110 0 59 0 65 20 72 39 rrcurveto
          71 40 49 39 28 39 10 15 14 7 16 0 14 0 11 -7 9 -14 6 -12 3 -16 0 -21 1 -22 8 -25 18 -26 24 -37 41 -18 57 -1 48 0 49 21 48 41 50 43 25 38 0 33 rrcurveto
          0 7 -2 6 -4 5 -4 5 -5 3 -7 0 -18 0 -16 -9 -15 -17 -28 -34 -32 -17 -35 0 -37 0 -23 10 -9 21 -8 20 -5 30 -1 38 rrcurveto
          endchar
        </CharString>
        <CharString name="aring_alt">
          0 919 1231 rmoveto
          65 0 57 20 50 40 64 51 33 62 0 72 0 37 -12 32 -22 28 -31 38 -48 19 -63 0 -65 0 -58 -20 -49 -40 -49 -40 -31 -48 -12 -57 -3 -15 -2 -14 0 -13 0 -36 12 -32 22 -28 rrcurveto
          31 -37 48 -19 63 0 rrcurveto
          22 64 rmoveto
          -39 0 -27 11 -17 21 -16 22 -8 23 0 25 0 11 1 12 3 13 9 40 18 32 28 24 27 23 33 12 37 0 40 0 28 -11 15 -21 16 -21 8 -23 0 -24 0 -12 -2 -13 -3 -14 rrcurveto
          -8 -40 -17 -32 -27 -23 -27 -23 -33 -12 -39 0 rrcurveto
          27 -1305 rmoveto
          40 0 36 29 8 40 rrcurveto
          143 671 rlineto
          6 30 3 28 0 27 0 156 -110 89 -204 0 -111 0 -94 -26 -84 -53 -55 -34 -65 -45 -9 -44 -2 -9 -1 -8 0 -7 0 -30 16 -16 31 0 26 0 26 14 17 15 88 79 74 40 104 0 rrcurveto
          76 0 60 -21 36 -40 26 -31 12 -30 0 -41 0 -27 -5 -32 -9 -41 -11 -53 -29 -29 -65 0 -33 0 -28 8 -24 4 -39 6 -37 2 -41 0 -232 0 -186 -99 -48 -225 -6 -27 -2 -26 0 -24 rrcurveto
          0 -137 93 -83 192 0 90 0 73 6 68 31 68 31 44 36 34 31 rrcurveto
          -9 -73 -2 -16 rlineto
          0 -29 19 -17 32 0 rrcurveto
          -343 108 rmoveto
          -136 0 -63 58 0 95 0 17 2 18 4 19 37 174 189 10 48 1 rrcurveto
          24 hlineto
          71 0 100 -9 47 -38 14 -11 21 -22 0 -34 rrcurveto
          -2 -17 -9 -43 rlineto
          -28 -131 -150 -87 -169 0 rrcurveto
          endchar
        </CharString>
        <CharString name="asciicircum">
          0 1061 590 rmoveto
          11 0 11 3 12 6 38 22 19 27 0 33 0 6 -1 6 -2 5 rrcurveto
          -227 518 rlineto
          -12 23 -17 12 -21 0 -26 0 -26 -13 -25 -26 rrcurveto
          -447 -516 rlineto
          -13 -19 -7 -17 0 -17 0 -16 7 -14 13 -12 11 -7 11 -3 12 0 25 0 24 12 23 25 rrcurveto
          317 381 rlineto
          13 13 14 6 15 0 17 0 13 -8 9 -16 rrcurveto
          158 -379 rlineto
          11 -23 17 -12 23 0 rrcurveto
          endchar
        </CharString>
        <CharString name="asciitilde">
          0 890 502 rmoveto
          76 0 68 31 58 61 54 57 33 59 13 60 2 6 0 6 0 6 0 33 -16 17 -32 0 -35 0 -25 -22 -16 -45 -29 -81 -43 -40 -59 0 -30 0 -22 7 -15 13 -28 23 -27 36 -26 48 rrcurveto
          -46 81 -59 40 -74 0 -80 0 -70 -31 -60 -63 -51 -54 -32 -58 -13 -61 -2 -9 -1 -8 0 -7 0 -12 2 -9 6 -8 7 -11 11 -5 17 0 21 0 18 6 15 12 16 12 10 16 6 21 rrcurveto
          22 82 46 41 68 0 47 0 48 -43 49 -86 49 -81 59 -40 70 0 rrcurveto
          endchar
        </CharString>
        <CharString name="asciitilde_at">
          0 1108 333 rmoveto
          49 0 30 20 10 40 19 75 14 61 10 47 56 260 -12 199 -79 140 -82 133 -129 67 -178 0 -208 -1 -183 -76 -159 -151 -131 -126 -97 -132 -64 -138 -62 -135 -77 -68 -94 0 -38 0 -30 8 -21 17 rrcurveto
          -27 23 -26 35 -26 47 -47 83 -62 42 -76 0 -81 0 -71 -31 -60 -63 -51 -55 -35 -72 -19 -89 -6 -25 2 -19 9 -14 9 -13 15 -7 19 0 22 0 18 6 15 12 16 12 10 16 6 22 rrcurveto
          28 109 48 55 68 0 44 0 46 -42 48 -83 50 -83 75 -42 99 0 74 0 68 22 62 45 75 57 57 67 40 76 64 130 83 115 102 102 75 71 70 49 65 28 64 27 69 14 72 0 rrcurveto
          138 -3 100 -54 63 -102 69 -110 5 -191 -58 -272 rrcurveto
          -7 -33 rlineto
          -13 -68 15 -34 44 0 rrcurveto
          -206 -348 rmoveto
          20 0 19 2 16 4 21 4 13 20 7 34 5 23 -1 16 -8 9 -9 12 -11 6 -14 0 -65 0 -44 2 -24 5 -61 14 -18 71 25 128 18 87 17 87 16 88 17 87 -7 68 -30 48 rrcurveto
          -30 49 -57 24 -84 0 -148 -1 -126 -100 -106 -198 -45 -90 -32 -89 -19 -87 -45 -215 38 -108 123 0 128 2 71 34 14 65 3 14 1 11 -1 6 -5 27 -10 13 -15 0 -8 0 -8 -2 -8 -4 rrcurveto
          -39 -19 -32 -10 -25 0 -58 0 -16 63 27 125 18 84 26 72 34 61 70 125 73 63 76 0 81 0 30 -55 -20 -110 rrcurveto
          -43 -240 rlineto
          -33 -177 39 -104 112 -30 37 -9 49 -5 61 0 rrcurveto
          endchar
        </CharString>
        <CharString name="asciitilde_at_alt">
          0 388 117 rmoveto
          -81 0 -27 66 28 131 18 84 26 73 35 61 70 125 73 63 77 0 87 0 33 -58 -21 -116 rrcurveto
          -41 -213 rlineto
          -5 -25 -16 -30 -27 -34 -65 -85 -76 -42 -88 0 rrcurveto
          735 803 rmoveto
          22 -112 -9 -152 -41 -192 -29 -135 -29 -96 -30 -57 -25 -47 -37 -23 -50 0 -53 0 -35 22 -18 44 -14 36 0 56 15 75 17 87 17 87 17 86 16 87 -6 66 -29 47 -28 46 -55 23 -82 0 rrcurveto
          -147 -1 -126 -100 -105 -198 -46 -90 -31 -88 -19 -87 -44 -209 44 -105 134 0 139 0 121 61 102 121 15 -85 29 -52 43 -18 43 -18 41 -9 40 0 89 0 76 45 62 89 42 63 47 152 51 241 rrcurveto
          27 126 11 111 -5 98 -5 102 -22 86 -41 71 -80 131 -127 65 -174 0 -208 -1 -175 -76 -143 -150 -146 -155 -108 -135 -70 -114 -78 -131 -82 -65 -86 0 -43 0 -31 9 -21 18 -28 23 -26 36 -26 48 rrcurveto
          -46 81 -60 40 -73 0 -80 0 -71 -31 -60 -63 -51 -54 -35 -72 -19 -89 -5 -23 2 -18 7 -11 8 -11 12 -6 17 0 21 0 18 6 15 12 15 12 11 16 5 21 29 110 48 55 68 0 rrcurveto
          47 0 49 -43 49 -86 49 -81 73 -40 96 0 73 0 68 22 61 45 76 57 64 68 53 77 78 118 99 120 120 121 61 61 59 44 56 28 55 28 65 14 73 0 140 -4 102 -54 65 -105 rrcurveto
          21 -34 16 -40 9 -48 rrcurveto
          endchar
        </CharString>
        <CharString name="asterisk">
          0 631 151 rmoveto
          20 0 18 7 17 13 16 14 11 17 4 20 rrcurveto
          55 255 193 -128 rlineto
          9 -5 11 -3 12 0 21 0 19 7 16 13 22 18 11 22 0 26 0 18 -8 14 -15 12 rrcurveto
          -195 130 249 127 rlineto
          33 19 17 26 0 32 0 13 -4 11 -8 10 -10 13 -16 6 -20 0 -13 0 -11 -3 -12 -5 rrcurveto
          -250 -129 rlineto
          38 178 19 92 0 5 0 12 -4 11 -7 10 -10 13 -15 6 -20 0 -21 0 -18 -7 -16 -13 -16 -14 -11 -17 -4 -20 rrcurveto
          -55 -255 -194 128 rlineto
          -9 5 -12 3 -12 0 -20 0 -19 -7 -16 -13 -22 -18 -11 -22 0 -27 0 -17 8 -15 15 -11 rrcurveto
          197 -129 -250 -127 rlineto
          -34 -20 -17 -26 0 -33 0 -13 4 -11 8 -9 10 -13 15 -6 20 0 13 0 12 3 12 5 rrcurveto
          251 129 rlineto
          -38 -178 -19 -92 0 -5 0 -12 4 -11 7 -9 10 -13 15 -7 20 0 rrcurveto
          endchar
        </CharString>
        <CharString name="asterisk_slash">
          0 -603 -9 rmoveto
          19 0 19 7 16 14 17 14 11 17 4 19 rrcurveto
          61 284 218 -137 rlineto
          11 -5 11 -3 11 0 20 0 19 7 16 14 22 18 11 21 0 25 0 17 -8 15 -16 13 rrcurveto
          -220 140 279 138 rlineto
          33 21 17 26 0 31 0 12 -4 10 -7 10 -11 13 -15 7 -20 0 -11 0 -13 -3 -13 -6 rrcurveto
          -278 -139 rlineto
          42 197 21 100 0 6 0 13 -4 11 -8 10 -10 13 -15 7 -19 0 -19 0 -19 -7 -17 -14 -17 -14 -10 -16 -4 -20 rrcurveto
          -61 -285 -219 139 rlineto
          -9 5 -11 3 -12 0 -19 0 -19 -7 -17 -14 -23 -18 -11 -22 0 -25 0 -19 8 -14 16 -11 rrcurveto
          221 -140 -279 -138 rlineto
          -34 -21 -16 -26 0 -29 0 -13 4 -12 8 -10 10 -13 15 -7 19 0 12 0 12 3 13 6 rrcurveto
          279 139 rlineto
          -42 -198 -21 -101 0 -5 0 -12 4 -11 8 -10 10 -13 15 -7 19 0 rrcurveto
          604 -171 rmoveto
          13 0 13 4 14 7 14 8 11 10 8 14 rrcurveto
          1065 1623 rlineto
          10 14 4 14 0 14 0 8 -1 8 -4 8 -8 21 -16 10 -26 0 -13 0 -14 -4 -13 -7 -14 -7 -11 -10 -9 -14 rrcurveto
          -1065 -1623 rlineto
          -9 -15 -5 -14 0 -14 0 -8 2 -8 3 -7 9 -21 17 -11 25 0 rrcurveto
          endchar
        </CharString>
        <CharString name="at">
          0 1108 333 rmoveto
          49 0 30 20 10 40 19 75 14 61 10 47 56 260 -12 199 -79 140 -82 133 -129 67 -178 0 -207 -1 -173 -76 -139 -150 -11 -13 -8 -17 -5 -21 -6 -31 2 -23 12 -15 12 -15 14 -8 18 0 rrcurveto
          20 0 18 7 16 14 65 60 64 46 63 31 63 31 67 16 73 0 138 -3 100 -57 60 -109 56 -110 -1 -191 -58 -272 rrcurveto
          -7 -33 rlineto
          -13 -68 15 -34 44 0 rrcurveto
          -206 -348 rmoveto
          20 0 19 2 16 4 21 4 13 20 7 34 5 23 -1 16 -8 9 -9 12 -11 6 -14 0 -65 0 -44 2 -24 5 -61 14 -18 71 25 128 18 87 17 87 16 88 17 87 -7 68 -30 48 rrcurveto
          -30 49 -57 24 -84 0 -148 -1 -126 -100 -106 -198 -45 -90 -32 -89 -19 -87 -45 -215 38 -108 123 0 128 2 71 34 14 65 3 14 1 11 -1 6 -5 27 -10 13 -15 0 -8 0 -8 -2 -8 -4 rrcurveto
          -39 -19 -32 -10 -25 0 -58 0 -16 63 27 125 18 84 26 72 34 61 70 125 73 63 76 0 81 0 30 -55 -20 -110 rrcurveto
          -43 -240 rlineto
          -33 -177 39 -104 112 -30 37 -9 49 -5 61 0 rrcurveto
          endchar
        </CharString>
        <CharString name="at_alt">
          0 388 117 rmoveto
          -81 0 -27 66 28 131 18 84 26 73 35 61 70 125 73 63 77 0 87 0 33 -58 -21 -116 rrcurveto
          -41 -213 rlineto
          -5 -25 -16 -30 -27 -34 -65 -85 -76 -42 -88 0 rrcurveto
          502 -127 rmoveto
          89 0 76 45 62 89 42 63 47 152 51 241 55 259 -12 197 -78 138 -80 131 -127 65 -174 0 -208 -1 -172 -76 -138 -149 -12 -14 -8 -17 -4 -20 -6 -29 2 -21 10 -13 10 -13 13 -7 14 0 rrcurveto
          21 0 17 7 15 14 66 60 60 45 56 27 55 28 65 14 73 0 140 -4 103 -54 64 -105 70 -112 6 -193 -58 -273 -29 -135 -29 -96 -30 -57 -25 -47 -37 -23 -50 0 -53 0 -35 22 -18 44 rrcurveto
          -14 36 0 56 15 75 17 87 17 87 17 86 16 87 -6 66 -29 47 -28 46 -55 23 -82 0 -147 -1 -126 -100 -105 -198 -46 -90 -31 -88 -19 -87 -44 -209 44 -105 134 0 139 0 121 61 102 121 rrcurveto
          15 -85 29 -52 43 -18 43 -18 41 -9 40 0 rrcurveto
          endchar
        </CharString>
        <CharString name="atilde">
          0 993 1310 rmoveto
          72 0 63 34 64 73 8 10 5 9 1 9 2 5 0 3 0 5 0 15 -3 7 -15 5 -7 4 -4 1 -9 0 -16 0 -14 -6 -13 -13 -10 -10 -11 -9 -8 -6 -22 -17 -27 -9 -24 0 rrcurveto
          -29 0 -29 11 -21 19 -17 16 -19 15 -22 16 -19 14 -26 6 -35 0 -48 0 -43 -16 -42 -33 -24 -19 -21 -20 -20 -22 -10 -11 -4 -8 -2 -10 -1 -3 0 -3 0 -3 0 -15 4 -8 12 -7 rrcurveto
          6 -3 5 -1 8 0 26 0 10 12 34 33 23 19 27 10 28 0 29 0 28 -12 21 -18 20 -16 19 -16 23 -16 20 -15 23 -6 34 0 rrcurveto
          -486 -1165 rmoveto
          -111 0 -56 57 0 113 0 29 4 33 7 37 22 96 31 83 40 71 41 72 49 57 58 41 58 42 62 21 64 0 80 0 52 -37 24 -74 8 -26 4 -27 0 -28 0 -22 -2 -23 -5 -22 rrcurveto
          -31 -148 -55 -118 -79 -88 -83 -91 -89 -46 -93 -2 rrcurveto
          497 103 rmoveto
          3 54 10 65 14 75 48 223 49 185 50 148 1 6 0 5 0 5 0 10 -3 8 -5 5 -13 15 -16 8 -17 0 -42 0 -28 -20 -15 -39 -9 -22 -14 -11 -18 0 -15 0 -12 6 -9 13 rrcurveto
          -30 47 -48 25 -67 1 -96 0 -91 -31 -85 -63 -84 -62 -72 -81 -58 -99 -58 -99 -42 -109 -25 -119 -12 -54 -6 -49 0 -43 0 -66 13 -53 27 -41 42 -67 76 -34 110 0 59 0 65 20 72 39 rrcurveto
          71 40 49 39 28 39 10 15 14 7 16 0 14 0 11 -7 9 -14 6 -12 3 -16 0 -21 1 -22 8 -25 18 -26 24 -37 41 -18 57 -1 48 0 49 21 48 41 50 43 25 38 0 33 rrcurveto
          0 7 -2 6 -4 5 -4 5 -5 3 -7 0 -18 0 -16 -9 -15 -17 -28 -34 -32 -17 -35 0 -37 0 -23 10 -9 21 -8 20 -5 30 -1 38 rrcurveto
          endchar
        </CharString>
        <CharString name="atilde_alt">
          0 1053 1310 rmoveto
          72 0 64 34 63 73 9 10 4 8 2 10 1 4 0 4 0 4 0 20 -13 13 -25 0 -16 0 -13 -6 -14 -13 -33 -33 -36 -18 -33 0 -28 0 -30 11 -20 19 -39 34 -31 33 -69 0 rrcurveto
          -49 0 -42 -16 -42 -33 -35 -28 -40 -32 -6 -30 -1 -5 0 -4 0 -4 0 -19 12 -11 23 0 16 0 14 6 15 15 32 31 19 22 52 0 96 0 22 -99 99 0 rrcurveto
          -85 -1320 rmoveto
          40 0 36 29 8 40 rrcurveto
          143 671 rlineto
          6 30 3 28 0 27 0 156 -110 89 -204 0 -111 0 -94 -26 -84 -53 -55 -34 -65 -45 -9 -44 -2 -9 -1 -8 0 -7 0 -30 16 -16 31 0 26 0 26 14 17 15 88 79 74 40 104 0 rrcurveto
          76 0 60 -21 36 -40 26 -31 12 -30 0 -41 0 -27 -5 -32 -9 -41 -11 -53 -29 -29 -65 0 -33 0 -28 8 -24 4 -39 6 -37 2 -41 0 -232 0 -186 -99 -48 -225 -6 -27 -2 -26 0 -24 rrcurveto
          0 -137 93 -83 192 0 90 0 73 6 68 31 68 31 44 36 34 31 rrcurveto
          -9 -73 -2 -16 rlineto
          0 -29 19 -17 32 0 rrcurveto
          -343 108 rmoveto
          -136 0 -63 58 0 95 0 17 2 18 4 19 37 174 189 10 48 1 rrcurveto
          24 hlineto
          71 0 100 -9 47 -38 14 -11 21 -22 0 -34 rrcurveto
          -2 -17 -9 -43 rlineto
          -28 -131 -150 -87 -169 0 rrcurveto
          endchar
        </CharString>
        <CharString name="b">
          0 659 131 rmoveto
          -14 hlineto
          -60 0 -50 22 -39 43 -39 43 -20 48 0 54 0 21 2 23 5 24 rrcurveto
          45 213 rlineto
          15 66 40 62 66 60 61 52 66 26 72 0 93 0 60 -25 27 -50 27 -50 14 -52 0 -55 0 -46 -6 -54 -13 -61 -56 -239 -117 -121 -179 -4 rrcurveto
          -5 -141 rmoveto
          135 0 108 46 81 92 81 92 60 135 39 178 15 69 7 62 0 57 0 80 -15 68 -29 55 -49 91 -83 45 -117 0 -68 0 -73 -28 -78 -56 -19 -13 -18 -7 -15 0 -30 1 -15 15 0 27 rrcurveto
          0 5 15 71 29 137 34 158 17 82 0 7 0 12 -4 11 -7 8 -11 13 -13 7 -17 0 -18 0 -19 -7 -19 -15 -19 -15 -12 -19 -4 -22 -197 -923 -98 -465 0 -6 0 -11 3 -10 7 -9 rrcurveto
          9 -12 14 -6 18 0 40 0 29 26 18 52 11 32 16 16 22 0 14 0 12 -6 9 -13 58 -71 68 -36 78 0 rrcurveto
          endchar
        </CharString>
        <CharString name="backslash">
          0 917 -180 rmoveto
          27 0 23 12 20 23 14 17 7 17 0 17 0 6 -125 545 -251 1085 -3 12 -6 9 -10 7 -10 7 -11 3 -12 0 -27 0 -22 -11 -20 -23 -15 -17 -7 -18 0 -18 0 -5 126 -545 251 -1084 rrcurveto
          4 -12 6 -10 9 -7 9 -7 11 -3 12 0 rrcurveto
          endchar
        </CharString>
        <CharString name="bar">
          0 551 -210 rmoveto
          19 0 19 7 18 15 19 15 11 18 3 19 240 1126 119 565 0 5 0 12 -3 10 -8 9 -10 13 -14 6 -18 0 -19 0 -19 -7 -18 -15 -18 -15 -11 -17 -4 -20 -239 -1124 -120 -565 0 -4 rrcurveto
          0 -13 4 -11 8 -10 10 -13 14 -6 17 0 rrcurveto
          endchar
        </CharString>
        <CharString name="bar_bar">
          0 354 -210 rmoveto
          19 0 19 7 17 14 17 14 10 16 4 20 239 1126 120 566 0 5 0 12 -4 11 -7 10 -11 13 -15 6 -19 0 -20 0 -18 -7 -17 -13 -16 -14 -11 -17 -4 -20 -239 -1125 -120 -564 0 -6 rrcurveto
          0 -13 4 -11 8 -10 10 -13 14 -7 20 0 rrcurveto
          -800 hmoveto
          19 0 19 7 17 14 17 14 10 16 4 20 239 1126 120 566 0 5 0 12 -4 11 -7 10 -11 13 -15 6 -19 0 -20 0 -18 -7 -17 -13 -16 -14 -11 -17 -4 -20 -239 -1125 -120 -564 0 -6 rrcurveto
          0 -13 4 -11 8 -10 10 -13 14 -7 20 0 rrcurveto
          endchar
        </CharString>
        <CharString name="boxdrawingsdoubledownandhorizontal">
          0 520 -1000 rmoveto
          1620 -530 -160 370 -1460 vlineto
          850 1780 rmoveto
          160 -1220 -160 vlineto
          850 -1780 rmoveto
          1460 370 160 -530 -1620 vlineto
          endchar
        </CharString>
        <CharString name="boxdrawingsdoubledownandleft">
          0 520 -1000 rmoveto
          1620 -530 -160 370 -1460 vlineto
          480 hmoveto
          1940 -850 -160 690 -1780 vlineto
          endchar
        </CharString>
        <CharString name="boxdrawingsdoubledownandright">
          0 840 -1000 rmoveto
          1460 370 160 -530 -1620 vlineto
          -160 hmoveto
          1780 690 160 -850 -1940 vlineto
          endchar
        </CharString>
        <CharString name="boxdrawingsdoublehorizontal">
          0 1210 460 rmoveto
          160 -1220 -160 vlineto
          1220 320 rmoveto
          160 -1220 -160 vlineto
          endchar
        </CharString>
        <CharString name="boxdrawingsdoubleupandhorizontal">
          0 1210 460 rmoveto
          160 -1220 -160 vlineto
          1220 320 rmoveto
          160 -370 1060 -160 -1220 vlineto
          -160 hmoveto
          1220 -160 -1060 -370 -160 vlineto
          endchar
        </CharString>
        <CharString name="boxdrawingsdoubleupandleft">
          0 520 780 rmoveto
          1220 -160 -1060 -370 -160 vlineto
          850 -320 rmoveto
          1540 -160 -1380 -690 -160 vlineto
          endchar
        </CharString>
        <CharString name="boxdrawingsdoubleupandright">
          0 1210 780 rmoveto
          160 -370 1060 -160 -1220 vlineto
          530 -320 rmoveto
          160 -690 1380 -160 -1540 vlineto
          endchar
        </CharString>
        <CharString name="boxdrawingsdoublevertical">
          0 520 -1000 rmoveto
          3000 -160 -3000 vlineto
          480 hmoveto
          3000 -160 -3000 vlineto
          endchar
        </CharString>
        <CharString name="boxdrawingsdoubleverticalandhorizontal">
          0 520 -1000 rmoveto
          1620 -530 -160 370 -1460 vlineto
          160 1780 rmoveto
          1220 -160 -1060 -370 -160 vlineto
          1220 hmoveto
          160 -370 1060 -160 -1220 vlineto
          160 -1780 rmoveto
          1460 370 160 -530 -1620 vlineto
          endchar
        </CharString>
        <CharString name="boxdrawingsdoubleverticalandleft">
          0 520 -1000 rmoveto
          1620 -530 -160 370 -1460 vlineto
          480 hmoveto
          3000 -160 -3000 vlineto
          -160 1780 rmoveto
          1220 -160 -1060 -370 -160 vlineto
          endchar
        </CharString>
        <CharString name="boxdrawingsdoubleverticalandright">
          0 840 -1000 rmoveto
          1460 370 160 -530 -1620 vlineto
          -160 hmoveto
          3000 -160 -3000 vlineto
          850 1780 rmoveto
          160 -370 1060 -160 -1220 vlineto
          endchar
        </CharString>
        <CharString name="boxdrawingsdowndoubleandhorizontalsingle">
          0 840 -1000 rmoveto
          1620 370 160 -1220 -160 370 -1620 160 1620 160 -1620 vlineto
          endchar
        </CharString>
        <CharString name="boxdrawingsdowndoubleandleftsingle">
          0 840 -1000 rmoveto
          1780 -850 -160 370 -1620 160 1620 160 -1620 vlineto
          endchar
        </CharString>
        <CharString name="boxdrawingsdowndoubleandrightsingle">
          0 840 -1000 rmoveto
          1620 370 160 -850 -1780 160 1620 160 -1620 vlineto
          endchar
        </CharString>
        <CharString name="boxdrawingsdownheavyandhorizontallight">
          0 840 -1000 rmoveto
          1620 370 160 -1220 -160 370 -1620 vlineto
          endchar
        </CharString>
        <CharString name="boxdrawingsdownheavyandleftlight">
          0 840 -1000 rmoveto
          1780 -850 -160 370 -1620 vlineto
          endchar
        </CharString>
        <CharString name="boxdrawingsdownheavyandleftuplight">
          0 840 -1000 rmoveto
          1780 -160 1220 -160 -1220 -530 -160 370 -1620 vlineto
          endchar
        </CharString>
        <CharString name="boxdrawingsdownheavyandrightlight">
          0 840 -1000 rmoveto
          1620 370 160 -850 -1780 vlineto
          endchar
        </CharString>
        <CharString name="boxdrawingsdownheavyandrightuplight">
          0 840 -1000 rmoveto
          1620 370 160 -530 1220 -160 -1220 -160 -1780 vlineto
          endchar
        </CharString>
        <CharString name="boxdrawingsdownheavyanduphorizontallight">
          0 840 -1000 rmoveto
          1620 370 160 -530 1220 -160 -1220 -530 -160 370 -1620 vlineto
          endchar
        </CharString>
        <CharString name="boxdrawingsdownlightandhorizontalheavy">
          0 680 -1000 rmoveto
          1460 530 480 -1220 -480 530 -1460 vlineto
          endchar
        </CharString>
        <CharString name="boxdrawingsdownlightandleftheavy">
          0 680 -1000 rmoveto
          1940 -690 -480 530 -1460 vlineto
          endchar
        </CharString>
        <CharString name="boxdrawingsdownlightandleftupheavy">
          0 680 -1000 rmoveto
          1460 160 1540 -480 -1060 -370 -480 530 -1460 vlineto
          endchar
        </CharString>
        <CharString name="boxdrawingsdownlightandrightheavy">
          0 680 -1000 rmoveto
          1460 530 480 -690 -1940 vlineto
          endchar
        </CharString>
        <CharString name="boxdrawingsdownlightandrightupheavy">
          0 680 -1000 rmoveto
          1460 530 480 -370 1060 -480 -1540 160 -1460 vlineto
          endchar
        </CharString>
        <CharString name="boxdrawingsdownlightanduphorizontalheavy">
          0 680 -1000 rmoveto
          1460 530 480 -370 1060 -480 -1060 -370 -480 530 -1460 vlineto
          endchar
        </CharString>
        <CharString name="boxdrawingsdownsingleandhorizontaldouble">
          0 680 -1000 rmoveto
          1460 530 160 -1220 -160 530 -1460 vlineto
          690 1780 rmoveto
          160 -1220 -160 vlineto
          endchar
        </CharString>
        <CharString name="boxdrawingsdownsingleandleftdouble">
          0 680 -1000 rmoveto
          1940 -690 -160 530 -160 -530 -160 530 -1460 vlineto
          endchar
        </CharString>
        <CharString name="boxdrawingsdownsingleandrightdouble">
          0 680 -1000 rmoveto
          1460 530 160 -530 160 530 160 -690 -1940 vlineto
          endchar
        </CharString>
        <CharString name="boxdrawingsheavydoubledashhorizontal">
          0 520 460 rmoveto
          480 -440 -480 vlineto
          1040 hmoveto
          480 -440 -480 vlineto
          endchar
        </CharString>
        <CharString name="boxdrawingsheavydoubledashvertical">
          0 840 -360 rmoveto
          960 -480 -960 vlineto
          480 1440 rmoveto
          960 -480 -960 vlineto
          endchar
        </CharString>
        <CharString name="boxdrawingsheavydown">
          0 840 -1000 rmoveto
          1780 -480 -1780 vlineto
          endchar
        </CharString>
        <CharString name="boxdrawingsheavydownandhorizontal">
          0 840 -1000 rmoveto
          1460 370 480 -1220 -480 370 -1460 vlineto
          endchar
        </CharString>
        <CharString name="boxdrawingsheavydownandleft">
          0 840 -1000 rmoveto
          1940 -850 -480 370 -1460 vlineto
          endchar
        </CharString>
        <CharString name="boxdrawingsheavydownandright">
          0 840 -1000 rmoveto
          1460 370 480 -850 -1940 vlineto
          endchar
        </CharString>
        <CharString name="boxdrawingsheavyhorizontal">
          0 1210 460 rmoveto
          480 -1220 -480 vlineto
          endchar
        </CharString>
        <CharString name="boxdrawingsheavyleft">
          0 680 460 rmoveto
          480 -690 -480 vlineto
          endchar
        </CharString>
        <CharString name="boxdrawingsheavyleftandlightright">
          0 680 460 rmoveto
          160 530 160 -530 160 -690 -480 vlineto
          endchar
        </CharString>
        <CharString name="boxdrawingsheavyquadrupledashhorizontal">
          0 1125 460 rmoveto
          480 -150 -480 vlineto
          -450 hmoveto
          480 -150 -480 vlineto
          450 hmoveto
          480 -150 -480 vlineto
          -450 hmoveto
          480 -150 -480 vlineto
          endchar
        </CharString>
        <CharString name="boxdrawingsheavyquadrupledashvertical">
          0 840 -520 rmoveto
          540 -480 -540 vlineto
          480 2100 rmoveto
          540 -480 -540 vlineto
          480 -700 rmoveto
          540 -480 -540 vlineto
          480 -700 rmoveto
          540 -480 -540 vlineto
          endchar
        </CharString>
        <CharString name="boxdrawingsheavyright">
          0 1210 460 rmoveto
          480 -690 -480 vlineto
          endchar
        </CharString>
        <CharString name="boxdrawingsheavytripledashhorizontal">
          0 1120 460 rmoveto
          480 -240 -480 vlineto
          -560 hmoveto
          480 -240 -480 vlineto
          640 hmoveto
          480 -240 -480 vlineto
          endchar
        </CharString>
        <CharString name="boxdrawingsheavytripledashvertical">
          0 840 -520 rmoveto
          800 -480 -800 vlineto
          480 1920 rmoveto
          800 -480 -800 vlineto
          480 -960 rmoveto
          800 -480 -800 vlineto
          endchar
        </CharString>
        <CharString name="boxdrawingsheavyup">
          0 840 620 rmoveto
          1380 -480 -1380 vlineto
          endchar
        </CharString>
        <CharString name="boxdrawingsheavyupandhorizontal">
          0 1210 460 rmoveto
          480 -370 1060 -480 -1060 -370 -480 vlineto
          endchar
        </CharString>
        <CharString name="boxdrawingsheavyupandleft">
          0 840 460 rmoveto
          1540 -480 -1060 -370 -480 vlineto
          endchar
        </CharString>
        <CharString name="boxdrawingsheavyupandlightdown">
          0 680 -1000 rmoveto
          1620 160 1380 -480 -1380 160 -1620 vlineto
          endchar
        </CharString>
        <CharString name="boxdrawingsheavyupandright">
          0 1210 460 rmoveto
          480 -370 1060 -480 -1540 vlineto
          endchar
        </CharString>
        <CharString name="boxdrawingsheavyvertical">
          0 840 -1000 rmoveto
          3000 -480 -3000 vlineto
          endchar
        </CharString>
        <CharString name="boxdrawingsheavyverticalandhorizontal">
          0 840 -1000 rmoveto
          1460 370 480 -370 1060 -480 -1060 -370 -480 370 -1460 vlineto
          endchar
        </CharString>
        <CharString name="boxdrawingsheavyverticalandleft">
          0 840 -1000 rmoveto
          3000 -480 -1060 -370 -480 370 -1460 vlineto
          endchar
        </CharString>
        <CharString name="boxdrawingsheavyverticalandright">
          0 840 -1000 rmoveto
          1460 370 480 -370 1060 -480 -3000 vlineto
          endchar
        </CharString>
        <CharString name="boxdrawingsleftdownheavyandrightuplight">
          0 840 -1000 rmoveto
          1620 370 160 -370 160 -160 1060 -160 -1060 -530 -480 370 -1460 vlineto
          endchar
        </CharString>
        <CharString name="boxdrawingsleftheavyandrightdownlight">
          0 680 -1000 rmoveto
          1620 530 160 -530 160 -690 -480 530 -1460 vlineto
          endchar
        </CharString>
        <CharString name="boxdrawingsleftheavyandrightuplight">
          0 680 460 rmoveto
          160 530 160 -530 1220 -160 -1060 -530 -480 vlineto
          endchar
        </CharString>
        <CharString name="boxdrawingsleftheavyandrightverticallight">
          0 680 -1000 rmoveto
          1620 530 160 -530 1220 -160 -1060 -530 -480 530 -1460 vlineto
          endchar
        </CharString>
        <CharString name="boxdrawingsleftlightandrightdownheavy">
          0 840 -1000 rmoveto
          1460 370 480 -850 -160 -370 -160 370 -1620 vlineto
          endchar
        </CharString>
        <CharString name="boxdrawingsleftlightandrightupheavy">
          0 1210 460 rmoveto
          480 -370 1060 -480 -1220 -370 -160 370 -160 vlineto
          endchar
        </CharString>
        <CharString name="boxdrawingsleftlightandrightverticalheavy">
          0 840 -1000 rmoveto
          1460 370 480 -370 1060 -480 -1220 -370 -160 370 -1620 vlineto
          endchar
        </CharString>
        <CharString name="boxdrawingsleftupheavyandrightdownlight">
          0 680 -1000 rmoveto
          1460 160 160 370 160 -370 1220 -480 -1060 -370 -480 530 -1460 vlineto
          endchar
        </CharString>
        <CharString name="boxdrawingslightarcdownandleft">
          0 680 -1000 rmoveto
          1240 vlineto
          0 75 -14 70 -28 65 -28 65 -39 57 -49 50 -50 49 -57 39 -65 28 -65 28 -70 14 -75 0 rrcurveto
          -150 -160 150 hlineto
          69 0 64 -17 58 -34 57 -35 46 -46 35 -57 34 -58 17 -64 0 -69 rrcurveto
          -1240 vlineto
          endchar
        </CharString>
        <CharString name="boxdrawingslightarcdownandright">
          0 680 -1000 rmoveto
          1240 vlineto
          0 69 17 64 35 58 34 57 46 46 58 35 57 34 64 17 69 0 rrcurveto
          150 160 -150 hlineto
          -75 0 -69 -14 -65 -28 -65 -28 -58 -39 -49 -49 -50 -50 -39 -57 -28 -65 -28 -65 -14 -70 0 -75 rrcurveto
          -1240 vlineto
          endchar
        </CharString>
        <CharString name="boxdrawingslightarcupandleft">
          0 140 620 rmoveto
          75 0 70 14 65 28 65 28 57 39 50 50 49 49 39 58 28 65 28 65 14 69 0 75 rrcurveto
          1240 -160 -1240 vlineto
          0 -69 -17 -64 -34 -57 -35 -58 -46 -46 -57 -34 -58 -35 -64 -17 -69 0 rrcurveto
          -150 -160 hlineto
          endchar
        </CharString>
        <CharString name="boxdrawingslightarcupandright">
          0 1210 620 rmoveto
          160 -150 vlineto
          -69 0 -64 17 -57 35 -58 34 -46 46 -34 58 -35 57 -17 64 0 69 rrcurveto
          1240 -160 -1240 vlineto
          0 -75 14 -69 28 -65 28 -65 39 -58 50 -49 49 -50 58 -39 65 -28 65 -28 69 -14 75 0 rrcurveto
          endchar
        </CharString>
        <CharString name="boxdrawingslightdiagonalcross">
          0 1130 -635 rmoveto
          -530 1060 -530 -1060 -145 72 585 1169 -580 1160 144 71 526 -1051 526 1051 144 -71 -580 -1160 585 -1169 rlineto
          endchar
        </CharString>
        <CharString name="boxdrawingslightdiagonalupperlefttolowerright">
          0 1130 -635 rmoveto
          -1200 2401 144 71 1201 -2400 rlineto
          endchar
        </CharString>
        <CharString name="boxdrawingslightdiagonalupperrighttolowerleft">
          0 70 -635 rmoveto
          1200 2401 -144 71 -1201 -2400 rlineto
          endchar
        </CharString>
        <CharString name="boxdrawingslightdoubledashhorizontal">
          0 520 620 rmoveto
          160 -440 -160 vlineto
          1040 hmoveto
          160 -440 -160 vlineto
          endchar
        </CharString>
        <CharString name="boxdrawingslightdoubledashvertical">
          0 680 -520 rmoveto
          1280 -160 -1280 vlineto
          160 1440 rmoveto
          1280 -160 -1280 vlineto
          endchar
        </CharString>
        <CharString name="boxdrawingslightdown">
          0 680 -1000 rmoveto
          1780 -160 -1780 vlineto
          endchar
        </CharString>
        <CharString name="boxdrawingslightdownandhorizontal">
          0 680 -1000 rmoveto
          1620 530 160 -1220 -160 530 -1620 vlineto
          endchar
        </CharString>
        <CharString name="boxdrawingslightdownandleft">
          0 680 -1000 rmoveto
          1780 -690 -160 530 -1620 vlineto
          endchar
        </CharString>
        <CharString name="boxdrawingslightdownandright">
          0 680 -1000 rmoveto
          1620 530 160 -690 -1780 vlineto
          endchar
        </CharString>
        <CharString name="boxdrawingslighthorizontal">
          0 1210 620 rmoveto
          160 -1220 -160 vlineto
          endchar
        </CharString>
        <CharString name="boxdrawingslightleft">
          0 680 620 rmoveto
          160 -690 -160 vlineto
          endchar
        </CharString>
        <CharString name="boxdrawingslightleftandheavyright">
          0 1210 460 rmoveto
          480 -690 -160 -530 -160 530 -160 vlineto
          endchar
        </CharString>
        <CharString name="boxdrawingslightquadrupledashhorizontal">
          0 1125 620 rmoveto
          160 -150 -160 vlineto
          -450 hmoveto
          160 -150 -160 vlineto
          450 hmoveto
          160 -150 -160 vlineto
          -450 hmoveto
          160 -150 -160 vlineto
          endchar
        </CharString>
        <CharString name="boxdrawingslightquadrupledashvertical">
          0 680 -520 rmoveto
          540 -160 -540 vlineto
          160 2100 rmoveto
          540 -160 -540 vlineto
          160 -700 rmoveto
          540 -160 -540 vlineto
          160 -700 rmoveto
          540 -160 -540 vlineto
          endchar
        </CharString>
        <CharString name="boxdrawingslightright">
          0 1210 620 rmoveto
          160 -690 -160 vlineto
          endchar
        </CharString>
        <CharString name="boxdrawingslighttripledashhorizontal">
          0 1120 620 rmoveto
          160 -240 -160 vlineto
          -560 hmoveto
          160 -240 -160 vlineto
          640 hmoveto
          160 -240 -160 vlineto
          endchar
        </CharString>
        <CharString name="boxdrawingslighttripledashvertical">
          0 680 -520 rmoveto
          800 -160 -800 vlineto
          160 1920 rmoveto
          800 -160 -800 vlineto
          160 -960 rmoveto
          800 -160 -800 vlineto
          endchar
        </CharString>
        <CharString name="boxdrawingslightup">
          0 680 620 rmoveto
          1380 -160 -1380 vlineto
          endchar
        </CharString>
        <CharString name="boxdrawingslightupandheavydown">
          0 840 -1000 rmoveto
          1780 -160 1220 -160 -1220 -160 -1780 vlineto
          endchar
        </CharString>
        <CharString name="boxdrawingslightupandhorizontal">
          0 1210 620 rmoveto
          160 -530 1220 -160 -1220 -530 -160 vlineto
          endchar
        </CharString>
        <CharString name="boxdrawingslightupandleft">
          0 680 620 rmoveto
          1380 -160 -1220 -530 -160 vlineto
          endchar
        </CharString>
        <CharString name="boxdrawingslightupandright">
          0 1210 620 rmoveto
          160 -530 1220 -160 -1380 vlineto
          endchar
        </CharString>
        <CharString name="boxdrawingslightvertical">
          0 680 -1000 rmoveto
          3000 -160 -3000 vlineto
          endchar
        </CharString>
        <CharString name="boxdrawingslightverticalandhorizontal">
          0 680 -1000 rmoveto
          1620 530 160 -530 1220 -160 -1220 -530 -160 530 -1620 vlineto
          endchar
        </CharString>
        <CharString name="boxdrawingslightverticalandleft">
          0 680 -1000 rmoveto
          3000 -160 -1220 -530 -160 530 -1620 vlineto
          endchar
        </CharString>
        <CharString name="boxdrawingslightverticalandright">
          0 680 -1000 rmoveto
          1620 530 160 -530 1220 -160 -3000 vlineto
          endchar
        </CharString>
        <CharString name="boxdrawingsrightdownheavyandleftuplight">
          0 840 -1000 rmoveto
          1460 370 480 -530 1060 -160 -1060 -160 -160 -370 -160 370 -1620 vlineto
          endchar
        </CharString>
        <CharString name="boxdrawingsrightheavyandleftdownlight">
          0 680 -1000 rmoveto
          1460 530 480 -690 -160 -530 -160 530 -1620 vlineto
          endchar
        </CharString>
        <CharString name="boxdrawingsrightheavyandleftuplight">
          0 1210 460 rmoveto
          480 -530 1060 -160 -1220 -530 -160 530 -160 vlineto
          endchar
        </CharString>
        <CharString name="boxdrawingsrightheavyandleftverticallight">
          0 680 -1000 rmoveto
          1460 530 480 -530 1060 -160 -1220 -530 -160 530 -1620 vlineto
          endchar
        </CharString>
        <CharString name="boxdrawingsrightlightandleftdownheavy">
          0 840 -1000 rmoveto
          1620 370 160 -370 160 -850 -480 370 -1460 vlineto
          endchar
        </CharString>
        <CharString name="boxdrawingsrightlightandleftupheavy">
          0 840 460 rmoveto
          160 370 160 -370 1220 -480 -1060 -370 -480 vlineto
          endchar
        </CharString>
        <CharString name="boxdrawingsrightlightandleftverticalheavy">
          0 840 -1000 rmoveto
          1620 370 160 -370 1220 -480 -1060 -370 -480 370 -1460 vlineto
          endchar
        </CharString>
        <CharString name="boxdrawingsrightupheavyandleftdownlight">
          0 680 -1000 rmoveto
          1460 530 480 -370 1060 -480 -1220 -370 -160 370 -160 160 -1460 vlineto
          endchar
        </CharString>
        <CharString name="boxdrawingsupdoubleandhorizontalsingle">
          0 1210 620 rmoveto
          160 -370 1220 -160 -1220 -160 1220 -160 -1220 -370 -160 vlineto
          endchar
        </CharString>
        <CharString name="boxdrawingsupdoubleandleftsingle">
          0 840 620 rmoveto
          1380 -160 -1220 -160 1220 -160 -1220 -370 -160 vlineto
          endchar
        </CharString>
        <CharString name="boxdrawingsupdoubleandrightsingle">
          0 1210 620 rmoveto
          160 -370 1220 -160 -1220 -160 1220 -160 -1380 vlineto
          endchar
        </CharString>
        <CharString name="boxdrawingsupheavyanddownhorizontallight">
          0 680 -1000 rmoveto
          1620 530 160 -370 1220 -480 -1220 -370 -160 530 -1620 vlineto
          endchar
        </CharString>
        <CharString name="boxdrawingsupheavyandhorizontallight">
          0 1210 620 rmoveto
          160 -370 1220 -480 -1220 -370 -160 vlineto
          endchar
        </CharString>
        <CharString name="boxdrawingsupheavyandleftdownlight">
          0 680 -1000 rmoveto
          1620 160 1380 -480 -1220 -370 -160 530 -1620 vlineto
          endchar
        </CharString>
        <CharString name="boxdrawingsupheavyandleftlight">
          0 840 620 rmoveto
          1380 -480 -1220 -370 -160 vlineto
          endchar
        </CharString>
        <CharString name="boxdrawingsupheavyandrightdownlight">
          0 680 -1000 rmoveto
          1620 530 160 -370 1220 -480 -1380 160 -1620 vlineto
          endchar
        </CharString>
        <CharString name="boxdrawingsupheavyandrightlight">
          0 1210 620 rmoveto
          160 -370 1220 -480 -1380 vlineto
          endchar
        </CharString>
        <CharString name="boxdrawingsuplightanddownhorizontalheavy">
          0 840 -1000 rmoveto
          1460 370 480 -530 1060 -160 -1060 -530 -480 370 -1460 vlineto
          endchar
        </CharString>
        <CharString name="boxdrawingsuplightandhorizontalheavy">
          0 1210 460 rmoveto
          480 -530 1060 -160 -1060 -530 -480 vlineto
          endchar
        </CharString>
        <CharString name="boxdrawingsuplightandleftdownheavy">
          0 840 -1000 rmoveto
          1940 -160 1060 -160 -1060 -530 -480 370 -1460 vlineto
          endchar
        </CharString>
        <CharString name="boxdrawingsuplightandleftheavy">
          0 680 460 rmoveto
          1540 -160 -1060 -530 -480 vlineto
          endchar
        </CharString>
        <CharString name="boxdrawingsuplightandrightdownheavy">
          0 840 -1000 rmoveto
          1460 370 480 -530 1060 -160 -1060 -160 -1940 vlineto
          endchar
        </CharString>
        <CharString name="boxdrawingsuplightandrightheavy">
          0 1210 460 rmoveto
          480 -530 1060 -160 -1540 vlineto
          endchar
        </CharString>
        <CharString name="boxdrawingsupsingleandhorizontaldouble">
          0 1210 460 rmoveto
          160 -1220 -160 vlineto
          1220 320 rmoveto
          160 -530 1060 -160 -1060 -530 -160 vlineto
          endchar
        </CharString>
        <CharString name="boxdrawingsupsingleandleftdouble">
          0 680 460 rmoveto
          1540 -160 -1060 -530 -160 530 -160 -530 -160 vlineto
          endchar
        </CharString>
        <CharString name="boxdrawingsupsingleandrightdouble">
          0 1210 460 rmoveto
          160 -530 160 530 160 -530 1060 -160 -1540 vlineto
          endchar
        </CharString>
        <CharString name="boxdrawingsverticaldoubleandhorizontalsingle">
          0 840 -1000 rmoveto
          1620 370 160 -370 1220 -160 -1220 -160 1220 -160 -1220 -370 -160 370 -1620 160 1620 160 -1620 vlineto
          endchar
        </CharString>
        <CharString name="boxdrawingsverticaldoubleandleftsingle">
          0 840 -1000 rmoveto
          3000 -160 -3000 vlineto
          -160 hmoveto
          3000 -160 -1220 -370 -160 370 -1620 vlineto
          endchar
        </CharString>
        <CharString name="boxdrawingsverticaldoubleandrightsingle">
          0 520 -1000 rmoveto
          3000 -160 -3000 vlineto
          480 hmoveto
          1620 370 160 -370 1220 -160 -3000 vlineto
          endchar
        </CharString>
        <CharString name="boxdrawingsverticalheavyandhorizontallight">
          0 840 -1000 rmoveto
          1620 370 160 -370 1220 -480 -1220 -370 -160 370 -1620 vlineto
          endchar
        </CharString>
        <CharString name="boxdrawingsverticalheavyandleftlight">
          0 840 -1000 rmoveto
          3000 -480 -1220 -370 -160 370 -1620 vlineto
          endchar
        </CharString>
        <CharString name="boxdrawingsverticalheavyandrightlight">
          0 840 -1000 rmoveto
          1620 370 160 -370 1220 -480 -3000 vlineto
          endchar
        </CharString>
        <CharString name="boxdrawingsverticallightandhorizontalheavy">
          0 680 -1000 rmoveto
          1460 530 480 -530 1060 -160 -1060 -530 -480 530 -1460 vlineto
          endchar
        </CharString>
        <CharString name="boxdrawingsverticallightandleftheavy">
          0 680 -1000 rmoveto
          3000 -160 -1060 -530 -480 530 -1460 vlineto
          endchar
        </CharString>
        <CharString name="boxdrawingsverticallightandrightheavy">
          0 680 -1000 rmoveto
          1460 530 480 -530 1060 -160 -3000 vlineto
          endchar
        </CharString>
        <CharString name="boxdrawingsverticalsingleandhorizontaldouble">
          0 680 -1000 rmoveto
          1460 530 160 -530 160 530 160 -530 1060 -160 -1060 -530 -160 530 -160 -530 -160 530 -1460 vlineto
          endchar
        </CharString>
        <CharString name="boxdrawingsverticalsingleandleftdouble">
          0 680 -1000 rmoveto
          3000 -160 -1060 -530 -160 530 -160 -530 -160 530 -1460 vlineto
          endchar
        </CharString>
        <CharString name="boxdrawingsverticalsingleandrightdouble">
          0 680 -1000 rmoveto
          1460 530 160 -530 160 530 160 -530 1060 -160 -3000 vlineto
          endchar
        </CharString>
        <CharString name="braceleft">
          0 872 -243 rmoveto
          17 0 17 6 16 12 15 12 10 19 5 24 2 6 0 5 0 5 0 11 -3 9 -6 7 -9 11 -12 6 -15 0 rrcurveto
          -68 hlineto
          -153 0 -77 53 0 106 0 20 9 43 18 66 rrcurveto
          46 207 rlineto
          11 51 6 45 0 38 0 63 -14 45 -28 30 -11 10 -5 11 0 14 0 22 10 18 21 13 69 51 49 92 28 135 rrcurveto
          41 208 rlineto
          7 40 5 28 3 17 14 66 40 53 65 38 42 25 60 12 80 0 rrcurveto
          69 hlineto
          17 0 16 7 16 13 22 17 11 24 0 29 0 12 -3 9 -5 7 -9 10 -13 5 -16 0 -104 0 -64 -1 -26 -1 -67 -4 -59 -21 -52 -36 -93 -61 -60 -91 -25 -119 -6 -27 -11 -55 -14 -84 rrcurveto
          -14 -83 -9 -52 -4 -20 -17 -78 -32 -58 -46 -37 -33 -28 -39 -14 -44 0 -59 0 -34 -26 -11 -51 -2 -9 -1 -8 0 -7 0 -30 22 -15 45 0 46 0 34 -14 22 -28 22 -28 11 -35 0 -43 rrcurveto
          0 -23 -3 -25 -5 -27 -5 -21 -13 -51 -21 -84 -21 -83 -14 -55 -5 -27 -7 -32 -3 -30 0 -28 0 -74 23 -58 48 -43 35 -35 50 -19 63 -4 25 -2 64 -1 103 0 rrcurveto
          endchar
        </CharString>
        <CharString name="braceright">
          0 307 -243 rmoveto
          42 0 34 1 25 1 26 2 29 6 33 9 33 10 30 14 28 20 94 61 60 91 24 119 6 27 11 56 14 83 14 83 10 52 4 20 17 78 31 58 46 37 34 28 39 14 44 0 rrcurveto
          59 0 34 26 11 51 2 9 1 8 0 7 0 30 -22 15 -45 0 -46 0 -35 15 -24 29 -20 26 -11 34 0 43 0 23 3 25 6 28 4 20 13 52 21 83 21 84 14 55 5 27 rrcurveto
          7 33 4 30 0 28 0 73 -24 58 -48 44 -34 34 -50 20 -63 4 -26 1 -64 1 -104 0 -17 0 -17 -6 -15 -12 -15 -12 -10 -19 -5 -24 -2 -6 0 -5 0 -5 0 -10 3 -10 7 -7 rrcurveto
          8 -11 12 -6 15 0 rrcurveto
          69 hlineto
          153 0 76 -53 0 -107 0 -21 -8 -42 -18 -65 rrcurveto
          -46 -207 rlineto
          -11 -51 -6 -45 0 -38 0 -63 14 -46 28 -29 11 -10 5 -12 0 -14 0 -21 -10 -17 -20 -14 -69 -51 -50 -92 -28 -135 rrcurveto
          -41 -208 rlineto
          -7 -40 -5 -28 -3 -17 -15 -67 -40 -52 -65 -38 -41 -25 -60 -12 -80 0 rrcurveto
          -68 hlineto
          -17 0 -16 -7 -16 -13 -22 -17 -11 -24 0 -29 0 -12 3 -9 5 -6 9 -11 12 -5 16 0 rrcurveto
          endchar
        </CharString>
        <CharString name="bracketleft">
          0 783 -250 rmoveto
          20 0 19 7 17 15 24 19 11 23 0 26 0 12 -3 10 -8 10 -10 12 -14 6 -18 0 rrcurveto
          -338 hlineto
          -31 2 -15 14 0 27 0 4 108 510 216 1016 10 31 20 16 29 0 rrcurveto
          337 hlineto
          20 0 19 7 17 15 24 19 11 23 0 26 0 12 -3 10 -8 10 -10 12 -14 6 -18 0 rrcurveto
          -456 hlineto
          -21 0 -20 -8 -19 -15 -19 -15 -11 -18 -4 -21 -250 -1175 -125 -590 0 -4 0 -13 4 -11 8 -10 10 -13 15 -7 20 0 rrcurveto
          endchar
        </CharString>
        <CharString name="bracketright">
          0 759 -250 rmoveto
          21 0 20 8 18 15 19 15 11 18 4 21 250 1175 125 590 0 5 0 13 -3 11 -8 10 -10 13 -15 6 -20 0 rrcurveto
          -456 hlineto
          -20 0 -19 -7 -17 -15 -24 -19 -11 -23 0 -26 0 -11 3 -11 8 -9 10 -13 14 -6 18 0 rrcurveto
          338 hlineto
          31 -3 15 -14 0 -26 0 -5 -108 -509 -216 -1015 -8 -32 -20 -16 -31 0 rrcurveto
          -337 hlineto
          -20 0 -19 -7 -17 -15 -24 -19 -11 -23 0 -26 0 -11 3 -11 8 -9 10 -13 14 -6 18 0 rrcurveto
          endchar
        </CharString>
        <CharString name="bracketright_numbersign">
          0 1148 370 rmoveto
          19 0 19 7 16 13 22 18 12 22 0 26 0 13 -4 11 -8 10 -11 13 -15 7 -19 0 rrcurveto
          -101 hlineto
          -29 -140 rlineto
          -1487 -620 rmoveto
          21 0 19 7 18 15 18 14 10 18 4 20 rrcurveto
          117 546 rlineto
          940 hlineto
          29 140 rlineto
          -940 hlineto
          81 380 rlineto
          540 hlineto
          30 140 rlineto
          -540 hlineto
          79 371 39 188 0 5 0 13 -4 12 -8 10 -11 14 -16 7 -20 0 rrcurveto
          -456 hlineto
          -19 0 -19 -7 -17 -14 -22 -18 -11 -22 0 -26 0 -12 4 -11 8 -10 10 -13 15 -7 19 0 rrcurveto
          337 hlineto
          30 0 15 -12 0 -25 0 -5 -108 -510 -216 -1016 -7 -35 -21 -17 -35 0 rrcurveto
          -337 hlineto
          -19 0 -19 -7 -17 -14 -22 -18 -11 -22 0 -26 0 -12 4 -11 8 -10 10 -13 15 -7 19 0 rrcurveto
          2152 1140 rmoveto
          20 0 18 7 17 14 22 19 11 22 0 26 0 13 -4 10 -7 10 -11 13 -15 6 -19 0 rrcurveto
          -501 hlineto
          -30 -140 rlineto
          -361 -900 rmoveto
          19 0 19 7 16 13 17 14 11 17 4 20 rrcurveto
          40 189 rlineto
          -141 hlineto
          -28 -133 -14 -69 0 -5 0 -13 4 -11 8 -9 10 -13 15 -7 20 0 rrcurveto
          207 640 rmoveto
          102 481 51 243 0 4 0 13 -4 10 -7 10 -11 13 -15 6 -20 0 -19 0 -19 -7 -16 -13 -17 -14 -11 -17 -4 -19 rrcurveto
          -151 -710 rlineto
          334 -640 rmoveto
          19 0 18 7 17 13 16 14 11 17 4 20 rrcurveto
          151 709 rlineto
          -140 hlineto
          -102 -480 -51 -242 0 -5 0 -13 4 -11 8 -9 10 -13 15 -7 20 0 rrcurveto
          316 1160 rmoveto
          29 134 14 69 0 5 0 13 -4 10 -7 10 -10 13 -15 6 -20 0 -19 0 -19 -7 -16 -13 -17 -14 -11 -17 -4 -19 rrcurveto
          -41 -190 rlineto
          endchar
        </CharString>
        <CharString name="bracketright_numbersign_alt">
          0 660 890 rmoveto
          260 hlineto
          -81 -380 rlineto
          -260 hlineto
          -140 hmoveto
          -641 hlineto
          81 380 rlineto
          641 hlineto
          428 -520 rmoveto
          196 hlineto
          20 0 18 7 18 15 19 15 11 18 4 19 4 18 -3 15 -11 13 -10 13 -14 7 -17 0 rrcurveto
          -205 hlineto
          81 380 rlineto
          196 hlineto
          19 0 19 7 18 15 18 15 11 18 5 20 3 18 -3 15 -10 13 -10 13 -14 6 -18 0 rrcurveto
          -205 hlineto
          67 315 rlineto
          4 18 -3 15 -10 13 -10 13 -14 6 -18 0 -19 0 -19 -7 -18 -15 -18 -15 -11 -17 -4 -19 rrcurveto
          -66 -307 rlineto
          -260 hlineto
          67 315 rlineto
          4 18 -3 15 -10 13 -10 13 -15 6 -18 0 -19 0 -19 -7 -18 -15 -18 -15 -11 -17 -4 -19 rrcurveto
          -66 -307 rlineto
          -641 hlineto
          118 551 rlineto
          4 19 -3 17 -11 13 -10 13 -16 7 -19 0 rrcurveto
          -456 hlineto
          -20 0 -19 -7 -18 -15 -17 -15 -11 -17 -5 -20 -4 -19 3 -15 10 -13 10 -13 15 -6 18 0 rrcurveto
          337 hlineto
          38 0 15 -19 -8 -37 rrcurveto
          -322 -1515 rlineto
          -6 -33 -20 -16 -33 0 rrcurveto
          -337 hlineto
          -20 0 -19 -7 -18 -15 -17 -15 -11 -17 -5 -20 -4 -19 3 -15 10 -13 10 -13 14 -6 19 0 rrcurveto
          456 hlineto
          21 0 20 8 18 15 19 15 11 18 5 21 rrcurveto
          115 543 rlineto
          641 hlineto
          -67 -314 rlineto
          -3 -18 3 -15 10 -13 10 -13 14 -7 19 0 19 0 19 7 18 15 18 15 11 18 4 19 rrcurveto
          65 306 rlineto
          260 hlineto
          -67 -314 rlineto
          -3 -18 3 -15 10 -13 10 -13 14 -7 19 0 19 0 18 7 18 15 18 15 11 18 4 19 rrcurveto
          endchar
        </CharString>
        <CharString name="brokenbar">
          0 789 890 rmoveto
          19 0 18 7 17 14 17 13 10 17 4 19 rrcurveto
          145 680 rlineto
          4 19 -4 17 -11 13 -10 14 -15 7 -20 0 -19 0 -18 -7 -16 -14 -17 -13 -10 -17 -4 -19 rrcurveto
          -145 -680 rlineto
          -4 -19 3 -17 11 -13 11 -14 15 -7 19 0 rrcurveto
          -240 -1130 rmoveto
          19 0 18 7 17 14 16 13 11 17 4 19 rrcurveto
          144 680 rlineto
          4 19 -3 17 -11 13 -11 14 -15 7 -19 0 -19 0 -18 -7 -16 -14 -17 -13 -11 -17 -4 -19 rrcurveto
          -144 -680 rlineto
          -4 -19 3 -17 11 -13 11 -14 15 -7 19 0 rrcurveto
          endchar
        </CharString>
        <CharString name="c">
          0 647 -10 rmoveto
          106 0 111 39 116 78 27 17 13 25 0 31 0 12 -3 9 -5 8 -6 10 -11 5 -14 0 -14 0 -12 -3 -10 -7 -90 -55 -82 -28 -76 0 -179 0 -89 89 0 177 0 37 5 41 9 45 rrcurveto
          27 127 50 96 74 66 73 66 87 33 102 0 54 0 45 -10 36 -21 33 -18 16 -28 0 -38 0 -34 -11 -28 -22 -21 -22 -21 -24 -13 -26 -4 -28 -4 -14 -9 0 -15 0 -17 11 -9 23 0 rrcurveto
          15 hlineto
          77 0 57 25 36 49 37 50 18 52 0 54 0 22 -2 20 -5 19 -6 21 -12 21 -18 21 -54 59 -77 29 -100 0 -89 0 -86 -21 -84 -41 -83 -41 -73 -59 -62 -77 -62 -77 -44 -103 -28 -129 rrcurveto
          -12 -55 -6 -50 0 -47 0 -141 50 -102 100 -64 65 -42 78 -21 90 0 rrcurveto
          endchar
        </CharString>
        <CharString name="ccedilla">
          0 621 -8 rmoveto
          23 -1 18 -1 12 0 107 0 111 39 115 78 27 17 13 25 0 31 0 11 -3 10 -5 8 -6 10 -11 5 -14 0 -14 0 -12 -3 -10 -7 -90 -55 -82 -28 -76 0 -179 0 -89 89 0 178 rrcurveto
          0 31 3 34 7 35 rrcurveto
          4 22 rlineto
          28 127 50 96 74 66 73 66 87 33 102 0 54 0 45 -10 36 -21 33 -18 16 -28 0 -38 0 -34 -11 -28 -22 -21 -22 -21 -24 -13 -26 -4 -28 -4 -14 -9 0 -15 0 -17 11 -9 23 0 rrcurveto
          15 hlineto
          77 0 56 25 37 49 37 50 18 52 0 54 0 22 -2 21 -5 18 -6 21 -12 21 -18 21 -54 59 -77 29 -100 0 -89 0 -86 -21 -84 -41 -83 -41 -73 -59 -62 -77 -62 -77 -44 -103 -28 -129 rrcurveto
          -4 -22 rlineto
          -9 -47 -5 -44 0 -41 0 -47 6 -42 11 -39 23 -77 44 -59 65 -41 25 -16 36 -16 45 -16 -13 -20 -8 -13 -2 -6 rrcurveto
          -40 -138 -1 -5 rlineto
          0 -5 4 -3 8 -1 39 -2 31 -6 23 -8 33 -12 16 -23 0 -33 0 -7 -1 -8 -1 -8 -9 -36 -19 -25 -30 -16 -28 -13 -34 -7 -38 0 -34 0 -32 5 -28 9 -4 1 -4 1 -4 0 rrcurveto
          -16 0 -15 -8 -14 -17 -6 -7 -3 -6 -1 -7 rrcurveto
          -1 -10 rlineto
          0 -10 3 -7 6 -4 6 -4 13 -5 19 -5 0 1 -2 0 -3 0 36 -9 39 -5 40 0 68 0 61 16 55 33 54 33 34 47 12 62 3 11 1 11 0 10 0 25 -7 23 -15 21 rrcurveto
          -17 26 -34 16 -52 7 -21 6 -10 13 0 20 rrcurveto
          6 vlineto
          13 61 rlineto
          endchar
        </CharString>
        <CharString name="cedilla">
          0 477 -477 rmoveto
          68 0 58 15 55 33 54 33 31 43 13 63 15 70 -26 68 -113 16 -17 3 -15 20 4 20 rrcurveto
          13 59 rlineto
          6 29 -15 18 -28 0 -26 0 -21 -16 -8 -27 rrcurveto
          -41 -139 rlineto
          -3 -11 4 -5 12 -1 100 -5 53 -25 -15 -73 -16 -71 -65 -30 -81 0 -33 0 -32 4 -29 10 -4 1 -4 1 -4 0 -25 0 -21 -18 -5 -24 -4 -19 6 -14 18 -6 52 -17 29 -5 60 0 rrcurveto
          endchar
        </CharString>
        <CharString name="cent">
          0 640 -280 rmoveto
          20 0 18 7 16 14 17 13 10 17 4 19 rrcurveto
          45 209 rlineto
          83 20 80 35 76 52 19 12 11 16 5 20 4 22 -1 18 -8 12 -8 12 -12 6 -15 0 -14 0 -11 -3 -9 -6 -91 -56 -83 -28 -76 0 -107 0 -75 35 -42 69 -43 69 -8 94 25 118 rrcurveto
          27 128 51 97 74 67 74 67 88 33 103 0 66 0 62 -21 58 -41 11 -7 11 -4 12 0 20 0 16 7 13 15 14 14 9 16 3 17 5 21 -4 18 -13 14 -42 48 -59 32 -75 17 rrcurveto
          54 256 rlineto
          5 19 -4 17 -11 13 -11 14 -15 7 -19 0 -19 0 -18 -7 -16 -14 -17 -13 -10 -17 -5 -19 rrcurveto
          -53 -253 rlineto
          -169 -24 -137 -78 -106 -132 -62 -76 -44 -103 -27 -128 -24 -111 0 -94 24 -78 42 -139 106 -80 170 -22 rrcurveto
          -43 -202 rlineto
          -4 -19 4 -17 11 -13 10 -14 15 -7 19 0 rrcurveto
          endchar
        </CharString>
        <CharString name="colon">
          0 763 771 rmoveto
          38 0 37 14 34 29 45 39 23 46 0 55 0 25 -7 22 -14 19 -21 27 -28 13 -37 0 -41 0 -38 -14 -34 -29 -47 -38 -23 -46 0 -54 0 -25 8 -23 15 -20 21 -27 30 -13 39 0 rrcurveto
          -166 -781 rmoveto
          38 0 37 15 34 29 45 39 23 46 0 54 0 25 -7 22 -14 19 -21 27 -28 14 -37 0 -41 0 -38 -14 -34 -29 -47 -39 -23 -46 0 -53 0 -26 8 -23 15 -20 21 -27 30 -13 39 0 rrcurveto
          endchar
        </CharString>
        <CharString name="colon_center">
          0 774 801 rmoveto
          38 0 35 14 33 28 34 28 20 34 9 40 8 41 -6 34 -21 28 -21 28 -30 14 -37 0 -41 0 -38 -14 -33 -28 -33 -28 -22 -34 -8 -41 -9 -40 7 -34 21 -28 22 -28 31 -14 41 0 rrcurveto
          -147 -691 rmoveto
          38 0 35 14 34 29 33 28 21 34 8 39 9 41 -7 34 -21 28 -21 29 -29 14 -38 0 -41 0 -37 -14 -34 -29 -33 -28 -21 -34 -9 -41 -8 -39 6 -34 22 -28 21 -29 31 -14 41 0 rrcurveto
          endchar
        </CharString>
        <CharString name="colon_center_left">
          0 554 801 rmoveto
          38 0 35 14 33 28 34 28 20 34 9 40 8 41 -6 34 -21 28 -21 28 -30 14 -37 0 -41 0 -38 -14 -33 -28 -33 -28 -22 -34 -8 -41 -9 -40 7 -34 21 -28 22 -28 31 -14 41 0 rrcurveto
          -147 -691 rmoveto
          38 0 35 14 34 29 33 28 21 34 8 39 9 41 -7 34 -21 28 -21 29 -29 14 -38 0 -41 0 -37 -14 -34 -29 -33 -28 -21 -34 -9 -41 -8 -39 6 -34 22 -28 21 -29 31 -14 41 0 rrcurveto
          endchar
        </CharString>
        <CharString name="colon_center_right">
          0 994 801 rmoveto
          38 0 35 14 33 28 34 28 20 34 9 40 8 41 -6 34 -21 28 -21 28 -30 14 -37 0 -41 0 -38 -14 -33 -28 -33 -28 -22 -34 -8 -41 -9 -40 7 -34 21 -28 22 -28 31 -14 41 0 rrcurveto
          -147 -691 rmoveto
          38 0 35 14 34 29 33 28 21 34 8 39 9 41 -7 34 -21 28 -21 29 -29 14 -38 0 -41 0 -37 -14 -34 -29 -33 -28 -21 -34 -9 -41 -8 -39 6 -34 22 -28 21 -29 31 -14 41 0 rrcurveto
          endchar
        </CharString>
        <CharString name="comma">
          0 285 -393 rmoveto
          144 15 120 55 96 97 97 97 48 112 0 126 0 53 -13 43 -25 32 -22 29 -30 14 -38 0 -52 0 -42 -19 -31 -37 -27 -29 -13 -33 0 -38 0 -31 11 -30 24 -28 23 -29 11 -31 0 -33 rrcurveto
          0 -55 -28 -47 -58 -40 -45 -31 -57 -20 -67 -8 -47 -5 -28 -25 -9 -46 rrcurveto
          -1 -10 rlineto
          0 -32 20 -16 39 0 rrcurveto
          endchar
        </CharString>
        <CharString name="copyright">
          0 659 264 rmoveto
          114 0 104 28 92 56 92 56 77 75 63 94 62 95 44 105 24 116 25 117 2 106 -23 94 -22 95 -45 75 -69 56 -68 55 -92 28 -114 0 -115 0 -104 -28 -93 -55 -93 -56 -78 -76 -63 -94 rrcurveto
          -63 -94 -44 -106 -25 -117 -24 -116 -1 -105 22 -95 23 -94 46 -75 69 -56 69 -56 92 -28 116 0 rrcurveto
          15 71 rmoveto
          -104 0 -80 25 -58 51 -57 50 -37 68 -15 83 -16 84 3 92 21 101 22 102 36 93 52 84 51 85 65 67 79 51 79 50 91 26 104 0 103 0 80 -26 57 -50 58 -51 36 -67 15 -85 rrcurveto
          15 -84 -3 -93 -22 -102 -21 -101 -36 -92 -51 -84 -52 -83 -64 -67 -79 -51 -79 -51 -90 -25 -103 0 rrcurveto
          73 233 rmoveto
          64 0 66 23 69 46 10 6 5 8 2 10 5 24 -6 11 -17 0 -7 0 -5 -1 -5 -3 -57 -35 -53 -18 -48 0 -69 0 -48 22 -27 45 -27 44 -6 60 16 74 17 81 33 62 47 42 rrcurveto
          48 43 56 22 66 0 42 0 39 -14 38 -26 5 -4 6 -1 6 0 9 0 8 3 7 7 6 8 5 8 2 8 2 11 -2 9 -7 8 -36 41 -51 20 -65 0 -53 0 -51 -12 -50 -25 rrcurveto
          -50 -25 -43 -35 -37 -46 -37 -45 -27 -62 -16 -78 -14 -67 0 -57 14 -47 14 -46 27 -36 39 -26 40 -25 46 -12 55 0 rrcurveto
          endchar
        </CharString>
        <CharString name="currency">
          0 214 204 rmoveto
          17 0 15 5 16 13 rrcurveto
          126 104 rlineto
          10 9 17 6 12 0 7 0 9 -2 7 -3 57 -35 69 -17 86 0 85 0 74 17 69 35 8 3 10 2 7 0 12 0 14 -5 7 -8 rrcurveto
          85 -105 rlineto
          10 -13 12 -5 17 0 36 0 33 29 7 35 4 17 -2 14 -11 13 rrcurveto
          -79 100 rlineto
          -7 9 -3 15 2 12 2 8 5 10 6 8 47 58 42 78 19 91 19 89 -8 69 -22 65 -2 7 -1 11 2 8 2 12 9 15 10 9 rrcurveto
          123 101 rlineto
          16 13 8 14 4 17 3 18 -2 13 -15 19 rrcurveto
          1 vlineto
          -5 7 -13 5 -17 0 -18 0 -15 -5 -16 -13 rrcurveto
          -125 -104 rlineto
          -11 -9 -17 -6 -12 0 -7 0 -10 3 -7 4 -54 35 -67 18 -85 0 -87 0 -77 -20 -70 -35 -8 -3 -10 -2 -7 0 -12 0 -15 6 -6 9 rrcurveto
          -83 106 rlineto
          -10 13 -13 5 -17 0 -18 0 -14 -5 -23 -20 rrcurveto
          -1 hlineto
          -9 -7 -7 -13 -4 -17 -4 -18 2 -13 10 -13 rrcurveto
          82 -106 rlineto
          7 -9 2 -15 -2 -12 -2 -8 -5 -10 -5 -7 -48 -63 -37 -74 -18 -85 -19 -91 6 -71 22 -64 2 -7 1 -10 -2 -8 -3 -12 -9 -15 -11 -9 rrcurveto
          -126 -104 rlineto
          -16 -13 -8 -14 -3 -17 -7 -34 21 -29 35 0 rrcurveto
          472 194 rmoveto
          -183 0 -63 127 38 177 37 175 117 128 183 0 184 0 60 -128 -37 -175 -37 -177 -115 -127 -184 0 rrcurveto
          endchar
        </CharString>
        <CharString name="d">
          0 583 131 rmoveto
          -154 1 -77 80 0 160 0 39 4 43 9 49 28 132 44 98 60 62 60 62 75 31 92 0 74 0 57 -27 39 -54 32 -46 16 -47 0 -50 0 -16 -2 -17 -3 -17 rrcurveto
          -45 -213 rlineto
          -18 -84 -41 -66 -65 -48 -65 -48 -62 -24 -58 0 rrcurveto
          421 -141 rmoveto
          48 0 49 21 48 41 36 31 23 28 9 23 5 11 2 11 0 10 0 7 -2 6 -4 5 -4 5 -5 3 -7 0 -18 0 -16 -9 -15 -17 -28 -34 -32 -17 -35 0 -42 0 -21 22 0 43 rrcurveto
          0 8 1 10 2 10 171 824 85 417 0 9 0 12 -4 11 -8 9 -11 13 -14 7 -17 0 -18 0 -18 -7 -18 -15 -19 -15 -11 -19 -5 -22 rrcurveto
          -90 -424 rlineto
          -7 -35 -20 -17 -32 0 -18 0 -16 7 -13 15 -54 55 -60 27 -66 0 -119 0 -105 -47 -91 -95 -90 -94 -64 -132 -35 -167 -17 -83 -9 -73 0 -64 0 -73 11 -61 22 -49 41 -88 86 -44 132 0 rrcurveto
          87 0 108 44 129 88 15 9 12 5 11 0 21 0 13 -15 7 -30 13 -67 35 -33 56 -1 rrcurveto
          endchar
        </CharString>
        <CharString name="dagger">
          0 1125 890 rmoveto
          20 0 19 7 17 15 23 20 12 22 0 26 0 12 -4 10 -7 10 -9 12 -14 6 -19 0 rrcurveto
          -680 hlineto
          -20 0 -19 -7 -17 -15 -23 -18 -12 -23 0 -27 0 -11 4 -11 7 -9 10 -13 14 -6 18 0 rrcurveto
          478 300 rmoveto
          23 108 11 56 0 5 0 12 -4 11 -7 9 -11 13 -13 6 -18 0 -19 0 -19 -7 -18 -15 -18 -15 -11 -17 -4 -20 rrcurveto
          -31 -146 rlineto
          -190 -1200 rmoveto
          19 0 19 8 18 15 18 15 11 17 4 19 rrcurveto
          141 666 rlineto
          -139 hlineto
          -96 -455 -48 -229 0 -5 0 -12 4 -10 7 -10 10 -13 14 -6 18 0 rrcurveto
          endchar
        </CharString>
        <CharString name="darkshade">
          0 -600 vmoveto
          1200 2640 -120 -120 -120 120 -120 -120 -120 120 -120 -120 -120 120 -120 -120 -120 120 -120 -120 -120 -120 120 -120 -120 -120 120 -120 -120 -120 120 -120 -120 -120 120 -120 -120 -120 120 -120 -120 -120 120 -120 -120 -120 120 -120 hlineto
          -120 -120 120 -120 -120 -120 120 -120 -120 -120 120 -120 -120 hlineto
          960 2160 rmoveto
          120 120 -120 vlineto
          -360 hmoveto
          120 120 -120 vlineto
          -360 hmoveto
          120 120 -120 vlineto
          -360 hmoveto
          120 120 -120 vlineto
          600 -240 rmoveto
          120 120 -120 vlineto
          -360 hmoveto
          120 120 -120 vlineto
          -360 hmoveto
          120 120 -120 vlineto
          -360 hmoveto
          120 120 -120 vlineto
          600 -240 rmoveto
          120 120 -120 vlineto
          -360 hmoveto
          120 120 -120 vlineto
          -600 hmoveto
          120 120 -120 vlineto
          120 hmoveto
          120 120 -120 vlineto
          360 -240 rmoveto
          120 120 -120 vlineto
          -840 hmoveto
          120 120 -120 vlineto
          360 hmoveto
          120 120 -120 vlineto
          -360 hmoveto
          120 120 -120 vlineto
          -360 -240 rmoveto
          120 120 -120 vlineto
          600 hmoveto
          120 120 -120 vlineto
          -600 hmoveto
          120 120 -120 vlineto
          120 hmoveto
          120 120 -120 vlineto
          -120 -240 rmoveto
          120 120 -120 vlineto
          -600 hmoveto
          120 120 -120 vlineto
          120 hmoveto
          120 120 -120 vlineto
          360 hmoveto
          120 120 -120 vlineto
          -840 -240 rmoveto
          120 120 -120 vlineto
          120 hmoveto
          120 120 -120 vlineto
          120 hmoveto
          120 120 -120 vlineto
          120 hmoveto
          120 120 -120 vlineto
          -120 -240 rmoveto
          120 120 -120 vlineto
          -360 hmoveto
          120 120 -120 vlineto
          -360 hmoveto
          120 120 -120 vlineto
          -360 hmoveto
          120 120 -120 vlineto
          600 -240 rmoveto
          120 120 -120 vlineto
          -360 hmoveto
          120 120 -120 vlineto
          -360 hmoveto
          120 120 -120 vlineto
          -360 hmoveto
          120 120 -120 vlineto
          -120 -240 rmoveto
          120 120 -120 vlineto
          600 hmoveto
          120 120 -120 vlineto
          -360 hmoveto
          120 120 -120 vlineto
          -360 hmoveto
          120 120 -120 vlineto
          endchar
        </CharString>
        <CharString name="degree">
          0 652 908 rmoveto
          55 0 54 12 53 24 54 24 46 34 40 46 40 45 27 56 14 65 14 65 -3 56 -21 45 -21 45 -32 35 -43 24 -43 24 -49 11 -55 0 -54 0 -54 -11 -53 -24 -54 -24 -47 -35 -40 -45 rrcurveto
          -40 -45 -26 -54 -14 -65 -14 -66 3 -56 21 -45 21 -46 32 -34 43 -25 44 -24 48 -12 54 0 rrcurveto
          20 94 rmoveto
          -51 0 -42 17 -32 36 -33 36 -8 54 15 71 15 71 31 52 48 36 47 35 49 17 51 0 53 0 42 -18 31 -36 32 -35 8 -53 -15 -71 -15 -71 -31 -53 -47 -35 -46 -36 -50 -17 -52 0 rrcurveto
          endchar
        </CharString>
        <CharString name="dieresis">
          0 670 1346 rmoveto
          28 0 26 10 23 18 23 19 15 23 6 28 6 29 -5 23 -15 19 -15 19 -22 9 -28 0 -29 0 -27 -9 -23 -19 -23 -19 -15 -23 -6 -29 -6 -28 5 -23 15 -19 15 -18 23 -10 29 0 rrcurveto
          431 hmoveto
          29 0 27 10 23 18 23 19 15 23 6 28 6 29 -5 23 -15 19 -15 19 -23 9 -29 0 -28 0 -26 -9 -23 -19 -24 -19 -14 -23 -6 -29 -6 -28 4 -23 16 -19 15 -18 22 -10 28 0 rrcurveto
          endchar
        </CharString>
        <CharString name="divide">
          0 1048 530 rmoveto
          20 0 19 7 18 15 18 15 11 17 4 20 4 19 -3 15 -10 13 -10 13 -14 6 -18 0 rrcurveto
          -680 hlineto
          -20 0 -19 -7 -18 -15 -18 -15 -11 -17 -4 -20 -4 -19 3 -15 10 -13 10 -13 14 -6 18 0 rrcurveto
          411 320 rmoveto
          28 0 26 11 25 21 25 22 16 25 6 29 6 29 -4 25 -14 19 -15 19 -20 10 -26 0 -31 0 -28 -11 -25 -21 -25 -22 -16 -26 -7 -30 -6 -28 5 -23 15 -20 14 -19 22 -10 29 0 rrcurveto
          -151 -710 rmoveto
          28 0 26 11 25 21 25 22 16 25 6 29 6 29 -4 25 -14 19 -15 19 -20 10 -26 0 -31 0 -27 -11 -26 -21 -25 -22 -16 -26 -7 -30 -5 -28 4 -23 15 -20 14 -19 22 -10 29 0 rrcurveto
          endchar
        </CharString>
        <CharString name="dollar">
          0 437 33 rmoveto
          34 163 rlineto
          -46 38 -32 34 -16 27 -16 28 -19 14 -21 0 -20 0 -18 -7 -15 -15 -15 -14 -10 -20 -5 -24 rrcurveto
          -1 -12 1 -12 rlineto
          14 -58 30 -47 46 -38 38 -28 36 -19 35 -10 rrcurveto
          341 1 rmoveto
          176 52 105 107 34 163 6 26 2 25 0 24 0 98 -47 81 -94 64 -44 30 -62 31 -82 31 -139 57 -69 78 0 98 0 14 1 15 3 15 11 49 38 50 66 53 rrcurveto
          40 186 rlineto
          -80 -41 -62 -47 -45 -53 -50 -58 -35 -73 -19 -89 -5 -25 -3 -24 0 -22 0 -141 99 -108 199 -75 38 -15 39 -18 38 -22 84 -43 42 -55 0 -67 0 -12 -2 -12 -2 -12 -18 -85 -50 -60 -81 -35 rrcurveto
          46 686 rmoveto
          95 450 48 228 0 4 0 13 -4 10 -7 10 -11 13 -15 7 -19 0 -19 0 -19 -7 -16 -14 -17 -14 -11 -17 -4 -19 rrcurveto
          -127 -603 rlineto
          34 -26 42 -21 50 -14 rrcurveto
          -302 -1085 rmoveto
          19 0 19 7 17 14 17 14 10 16 4 20 rrcurveto
          129 606 rlineto
          -21 16 -42 20 -64 23 -96 -449 -48 -227 0 -6 0 -13 4 -11 8 -10 10 -13 15 -7 19 0 rrcurveto
          613 1285 rmoveto
          39 0 24 23 10 46 1 5 1 5 0 5 0 114 -60 74 -118 34 rrcurveto
          -35 -165 rlineto
          53 -27 28 -27 4 -28 6 -39 17 -20 30 0 rrcurveto
          endchar
        </CharString>
        <CharString name="dollar_alt">
          0 701 801 rmoveto
          -106 71 -44 82 18 92 10 48 21 41 31 35 35 39 55 24 74 11 rrcurveto
          -382 -1209 rmoveto
          31 -16 39 -11 48 -5 rrcurveto
          -31 -147 rlineto
          -4 -19 3 -15 10 -13 10 -13 14 -6 18 0 20 0 19 7 18 15 17 15 11 17 5 20 rrcurveto
          30 141 rlineto
          62 8 39 7 18 7 72 27 66 43 59 59 54 55 36 67 17 81 28 132 -44 106 -115 80 -31 20 -45 23 -59 25 rrcurveto
          107 504 rlineto
          66 -7 44 -12 22 -20 28 -24 15 -26 4 -29 5 -37 17 -19 28 0 41 0 25 24 10 48 2 9 1 8 -1 8 -2 94 -51 68 -100 41 -24 10 -41 8 -57 7 rrcurveto
          31 144 rlineto
          4 19 -3 15 -10 13 -10 13 -14 6 -19 0 -19 0 -19 -7 -18 -15 -18 -15 -11 -17 -4 -20 rrcurveto
          -30 -139 rlineto
          -49 -3 -41 -10 -34 -17 -147 -73 -90 -117 -34 -160 -34 -157 79 -124 191 -91 rrcurveto
          -101 -474 rlineto
          -57 0 -44 17 -31 33 -22 23 -20 26 -17 29 -14 25 -18 13 -20 0 -21 0 -18 -8 -16 -15 -16 -15 -10 -20 -6 -25 -1 -9 -1 -7 2 -6 16 -52 41 -55 66 -57 14 -11 17 -11 22 -11 rrcurveto
          447 171 rmoveto
          -35 -28 -52 -15 -69 -2 rrcurveto
          91 431 40 -22 rlineto
          100 -52 41 -68 -18 -84 -13 -64 -33 -53 -52 -43 rrcurveto
          endchar
        </CharString>
        <CharString name="downwardsarrow">
          0 598 hmoveto
          567 481 rlineto
          170 vlineto
          -345 -294 rlineto
          -59 -51 -37 -38 -16 -23 rrcurveto
          -45 hlineto
          4 28 3 29 2 30 2 30 1 29 0 29 rrcurveto
          1025 -150 -1025 vlineto
          0 -29 1 -29 3 -30 3 -30 2 -29 2 -28 rrcurveto
          -44 hlineto
          -8 12 -13 15 -18 18 -18 18 -24 22 -29 25 rrcurveto
          -347 295 rlineto
          -171 vlineto
          endchar
        </CharString>
        <CharString name="e">
          0 646 558 rmoveto
          -38 hlineto
          -70 0 -41 4 -14 8 -19 12 -9 14 0 17 0 13 5 16 9 18 35 69 51 60 69 50 68 51 76 25 84 0 62 0 47 -10 33 -21 33 -21 17 -35 0 -49 0 -93 -43 -63 -86 -31 rrcurveto
          -62 -21 -89 -11 -118 -2 rrcurveto
          -26 -568 rmoveto
          101 0 81 12 59 25 60 25 58 41 56 56 22 21 11 20 0 18 0 16 -6 13 -11 11 -11 11 -14 5 -16 0 -15 0 -13 -6 -12 -11 -93 -90 -95 -45 -99 0 -82 0 -69 17 -56 35 rrcurveto
          -57 35 -28 57 0 77 0 22 3 23 6 24 6 25 19 12 31 0 rrcurveto
          173 1 rlineto
          96 2 75 5 53 9 115 18 81 42 48 64 47 64 24 75 0 85 0 81 -27 61 -54 42 -54 41 -67 21 -79 0 -267 0 -185 -116 -103 -231 -22 -54 -18 -59 -13 -64 -13 -65 -6 -56 0 -49 rrcurveto
          3 -244 120 -122 237 0 rrcurveto
          endchar
        </CharString>
        <CharString name="eacute">
          0 730 1285 rmoveto
          6 0 4 1 8 3 rrcurveto
          306 109 rlineto
          33 12 21 25 6 30 1 6 1 4 0 5 0 8 -1 5 -3 7 -8 20 -15 9 -25 0 -13 0 -11 -3 -13 -7 rrcurveto
          -294 -153 rlineto
          -19 -10 -10 -13 -3 -18 -1 -4 0 -2 0 -3 0 -5 0 -2 1 -4 5 -15 7 -5 17 0 rrcurveto
          -84 -727 rmoveto
          -38 hlineto
          -70 0 -41 4 -14 8 -19 12 -9 14 0 17 0 13 5 16 9 18 35 69 51 60 69 50 68 51 76 25 84 0 62 0 47 -10 33 -21 33 -21 17 -35 0 -49 0 -93 -43 -63 -86 -31 rrcurveto
          -62 -21 -89 -11 -118 -2 rrcurveto
          -26 -568 rmoveto
          101 0 81 12 59 25 60 25 58 41 56 56 22 21 11 20 0 18 0 16 -6 13 -11 11 -11 11 -14 5 -16 0 -15 0 -13 -6 -12 -11 -93 -90 -95 -45 -99 0 -82 0 -69 17 -56 35 rrcurveto
          -57 35 -28 57 0 77 0 22 3 23 6 24 6 25 19 12 31 0 rrcurveto
          173 1 rlineto
          96 2 75 5 53 9 115 18 81 42 48 64 47 64 24 75 0 85 0 81 -27 61 -54 42 -54 41 -67 21 -79 0 -267 0 -185 -116 -103 -231 -22 -54 -18 -59 -13 -64 -13 -65 -6 -56 0 -49 rrcurveto
          3 -244 120 -122 237 0 rrcurveto
          endchar
        </CharString>
        <CharString name="ecircumflex">
          0 624 1295 rmoveto
          9 0 9 3 10 5 rrcurveto
          200 114 rlineto
          15 8 18 5 15 0 15 0 19 -6 11 -9 rrcurveto
          154 -113 rlineto
          7 -5 5 -1 10 0 14 0 13 5 13 13 12 11 6 9 2 12 1 4 0 2 0 4 0 11 -2 5 -6 7 rrcurveto
          -145 144 rlineto
          -24 24 -30 12 -38 0 -38 0 -39 -13 -35 -24 rrcurveto
          -207 -144 rlineto
          -15 -11 -8 -13 -4 -15 -1 -3 0 -3 0 -4 0 -8 1 -5 5 -7 7 -10 7 -4 14 0 rrcurveto
          22 -737 rmoveto
          -38 hlineto
          -70 0 -41 4 -14 8 -19 12 -9 14 0 17 0 13 5 16 9 18 35 69 51 60 69 50 68 51 76 25 84 0 62 0 47 -10 33 -21 33 -21 17 -35 0 -49 0 -93 -43 -63 -86 -31 rrcurveto
          -62 -21 -89 -11 -118 -2 rrcurveto
          -26 -568 rmoveto
          101 0 81 12 59 25 60 25 58 41 56 56 22 21 11 20 0 18 0 16 -6 13 -11 11 -11 11 -14 5 -16 0 -15 0 -13 -6 -12 -11 -93 -90 -95 -45 -99 0 -82 0 -69 17 -56 35 rrcurveto
          -57 35 -28 57 0 77 0 22 3 23 6 24 6 25 19 12 31 0 rrcurveto
          173 1 rlineto
          96 2 75 5 53 9 115 18 81 42 48 64 47 64 24 75 0 85 0 81 -27 61 -54 42 -54 41 -67 21 -79 0 -267 0 -185 -116 -103 -231 -22 -54 -18 -59 -13 -64 -13 -65 -6 -56 0 -49 rrcurveto
          3 -244 120 -122 237 0 rrcurveto
          endchar
        </CharString>
        <CharString name="edieresis">
          0 656 1293 rmoveto
          29 0 26 10 24 20 33 26 16 32 0 38 0 17 -5 15 -10 12 -15 18 -21 9 -27 0 -30 0 -27 -10 -25 -19 -32 -26 -16 -32 0 -39 0 -17 5 -15 11 -12 14 -18 21 -9 29 0 rrcurveto
          430 hmoveto
          31 0 27 10 24 20 33 26 16 31 0 38 0 18 -5 15 -10 12 -15 18 -22 9 -28 0 -29 0 -26 -10 -25 -19 -33 -26 -16 -32 0 -38 0 -17 5 -16 11 -12 14 -18 21 -9 27 0 rrcurveto
          -440 -735 rmoveto
          -38 hlineto
          -70 0 -41 4 -14 8 -19 12 -9 14 0 17 0 13 5 16 9 18 35 69 51 60 69 50 68 51 76 25 84 0 62 0 47 -10 33 -21 33 -21 17 -35 0 -49 0 -93 -43 -63 -86 -31 rrcurveto
          -62 -21 -89 -11 -118 -2 rrcurveto
          -26 -568 rmoveto
          101 0 81 12 59 25 60 25 58 41 56 56 22 21 11 20 0 18 0 16 -6 13 -11 11 -11 11 -14 5 -16 0 -15 0 -13 -6 -12 -11 -93 -90 -95 -45 -99 0 -82 0 -69 17 -56 35 rrcurveto
          -57 35 -28 57 0 77 0 22 3 23 6 24 6 25 19 12 31 0 rrcurveto
          173 1 rlineto
          96 2 75 5 53 9 115 18 81 42 48 64 47 64 24 75 0 85 0 81 -27 61 -54 42 -54 41 -67 21 -79 0 -267 0 -185 -116 -103 -231 -22 -54 -18 -59 -13 -64 -13 -65 -6 -56 0 -49 rrcurveto
          3 -244 120 -122 237 0 rrcurveto
          endchar
        </CharString>
        <CharString name="egrave">
          0 1030 1285 rmoveto
          17 0 16 9 13 17 6 8 3 7 1 6 rrcurveto
          2 12 rlineto
          0 11 -3 6 -10 6 rrcurveto
          -228 153 rlineto
          -9 7 -10 2 -12 0 -26 0 -24 -11 -19 -23 -10 -14 -6 -11 -2 -13 -2 -6 0 -4 0 -5 0 -22 8 -14 20 -9 rrcurveto
          260 -109 rlineto
          5 -2 4 -1 6 0 rrcurveto
          -384 -727 rmoveto
          -38 hlineto
          -70 0 -41 4 -14 8 -19 12 -9 14 0 17 0 13 5 16 9 18 35 69 51 60 69 50 68 51 76 25 84 0 62 0 47 -10 33 -21 33 -21 17 -35 0 -49 0 -93 -43 -63 -86 -31 rrcurveto
          -62 -21 -89 -11 -118 -2 rrcurveto
          -26 -568 rmoveto
          101 0 81 12 59 25 60 25 58 41 56 56 22 21 11 20 0 18 0 16 -6 13 -11 11 -11 11 -14 5 -16 0 -15 0 -13 -6 -12 -11 -93 -90 -95 -45 -99 0 -82 0 -69 17 -56 35 rrcurveto
          -57 35 -28 57 0 77 0 22 3 23 6 24 6 25 19 12 31 0 rrcurveto
          173 1 rlineto
          96 2 75 5 53 9 115 18 81 42 48 64 47 64 24 75 0 85 0 81 -27 61 -54 42 -54 41 -67 21 -79 0 -267 0 -185 -116 -103 -231 -22 -54 -18 -59 -13 -64 -13 -65 -6 -56 0 -49 rrcurveto
          3 -244 120 -122 237 0 rrcurveto
          endchar
        </CharString>
        <CharString name="eight">
          0 618 126 rmoveto
          -160 0 -80 59 0 117 0 161 103 124 207 89 184 -43 92 -77 0 -112 0 -24 -3 -24 -5 -24 -35 -164 -112 -82 -191 0 rrcurveto
          -37 -136 rmoveto
          127 0 110 32 91 64 92 65 60 91 28 118 8 32 4 33 0 33 0 110 -53 90 -107 70 -10 7 -5 10 0 13 0 14 6 12 13 8 44 30 56 45 68 61 66 61 33 42 1 22 rrcurveto
          -7 1 -6 0 -5 0 -15 0 -121 -71 -227 -142 -14 -9 -17 -4 -19 0 -20 0 -21 4 -22 7 -101 32 -51 55 0 80 0 20 3 19 6 19 43 137 107 73 173 11 46 0 23 -21 0 -43 rrcurveto
          0 -26 -10 -29 -21 -33 0 -13 0 -2 0 11 0 -5 11 -2 21 0 32 0 29 13 24 25 24 25 12 30 0 35 0 53 -12 35 -23 17 -45 37 -52 18 -59 0 -110 0 -98 -33 -86 -66 rrcurveto
          -86 -66 -56 -83 -25 -101 -5 -24 -3 -25 0 -24 0 -86 40 -71 79 -57 10 -6 5 -10 0 -12 0 -16 -8 -13 -17 -8 -153 -79 -99 -120 -44 -160 -5 -29 -3 -31 0 -33 0 -80 28 -64 57 -49 rrcurveto
          57 -49 87 -25 117 0 rrcurveto
          endchar
        </CharString>
        <CharString name="ellipsis">
          0 201 5 rmoveto
          26 0 24 9 23 19 22 18 14 23 6 26 5 26 -4 23 -15 18 -14 19 -20 9 -27 0 -26 0 -24 -9 -22 -19 -23 -18 -14 -23 -5 -26 -6 -26 4 -23 15 -18 15 -19 20 -9 26 0 rrcurveto
          400 hmoveto
          26 0 24 9 23 19 22 18 14 23 6 26 5 26 -4 23 -15 18 -14 19 -20 9 -27 0 -26 0 -24 -9 -22 -19 -23 -18 -14 -23 -5 -26 -6 -26 4 -23 15 -18 15 -19 20 -9 26 0 rrcurveto
          400 hmoveto
          26 0 24 9 23 19 22 18 14 23 6 26 5 26 -4 23 -15 18 -14 19 -20 9 -27 0 -26 0 -24 -9 -22 -19 -23 -18 -14 -23 -5 -26 -6 -26 4 -23 15 -18 15 -19 20 -9 26 0 rrcurveto
          endchar
        </CharString>
        <CharString name="emdash">
          0 1248 530 rmoveto
          20 0 19 7 18 15 18 15 11 17 4 20 4 19 -3 15 -10 13 -10 13 -14 6 -18 0 rrcurveto
          -1080 hlineto
          -20 0 -19 -7 -18 -15 -18 -15 -11 -17 -4 -20 -4 -19 3 -15 10 -13 10 -13 14 -6 18 0 rrcurveto
          endchar
        </CharString>
        <CharString name="equal">
          0 1006 330 rmoveto
          20 0 19 7 17 15 24 19 11 23 0 26 0 12 -3 10 -8 10 -10 12 -14 6 -18 0 rrcurveto
          -680 hlineto
          -20 0 -19 -7 -17 -15 -24 -19 -11 -23 0 -26 0 -11 3 -11 8 -9 10 -13 14 -6 18 0 rrcurveto
          765 400 rmoveto
          20 0 19 7 17 15 24 19 11 23 0 26 0 12 -3 10 -8 10 -10 12 -14 6 -18 0 rrcurveto
          -680 hlineto
          -20 0 -19 -7 -17 -15 -24 -19 -11 -23 0 -26 0 -11 3 -11 8 -9 10 -13 14 -6 18 0 rrcurveto
          endchar
        </CharString>
        <CharString name="equal_equal">
          0 1129 870 rmoveto
          -1880 hlineto
          -20 0 -19 -7 -17 -15 -18 -15 -11 -17 -4 -20 -4 -19 3 -15 10 -13 10 -13 14 -6 18 0 rrcurveto
          1880 hlineto
          20 0 19 7 17 15 18 15 11 17 4 20 4 19 -3 15 -10 13 -10 13 -14 6 -18 0 rrcurveto
          -85 -400 rmoveto
          -1880 hlineto
          -20 0 -19 -7 -17 -15 -18 -15 -11 -17 -4 -20 -4 -19 3 -15 10 -13 10 -13 14 -6 18 0 rrcurveto
          1880 hlineto
          20 0 19 7 17 15 18 15 11 17 4 20 4 19 -3 15 -10 13 -10 13 -14 6 -18 0 rrcurveto
          endchar
        </CharString>
        <CharString name="equal_equal_equal">
          0 1150 970 rmoveto
          -3080 hlineto
          -23 0 -20 -6 -15 -13 -16 -13 -9 -11 -2 -11 -2 -9 3 -10 9 -11 8 -11 16 -5 22 0 rrcurveto
          3080 hlineto
          23 0 20 6 15 13 16 13 9 11 2 11 2 9 -3 10 -9 11 -8 11 -15 5 -23 0 rrcurveto
          -136 -640 rmoveto
          -3080 hlineto
          -23 0 -20 -6 -15 -13 -16 -13 -9 -11 -2 -11 -2 -9 3 -10 9 -11 8 -11 16 -5 22 0 rrcurveto
          3080 hlineto
          23 0 20 6 15 13 16 13 9 11 2 11 2 9 -3 10 -9 11 -8 11 -16 5 -22 0 rrcurveto
          68 320 rmoveto
          -3080 hlineto
          -23 0 -20 -6 -15 -13 -16 -13 -9 -11 -2 -11 -2 -9 3 -10 9 -11 8 -11 16 -5 22 0 rrcurveto
          3080 hlineto
          23 0 20 6 15 13 16 13 9 11 2 11 2 9 -3 10 -9 11 -8 11 -15 5 -23 0 rrcurveto
          endchar
        </CharString>
        <CharString name="eth">
          0 633 130 rmoveto
          -62 0 -49 16 -36 31 -36 32 -22 34 -8 36 -7 37 -4 31 0 23 0 29 3 30 6 31 19 85 35 66 53 48 52 47 67 24 82 0 28 0 29 -2 30 -5 73 -12 52 -36 31 -60 rrcurveto
          9 -22 5 -24 0 -29 0 -77 -24 -77 -47 -78 -30 -50 -39 -42 -47 -34 -48 -35 -54 -17 -61 0 rrcurveto
          -38 -140 rmoveto
          90 0 80 22 72 44 72 44 63 70 54 96 54 96 44 125 32 155 20 90 9 83 0 77 0 178 -55 140 -110 100 rrcurveto
          72 60 rlineto
          24 22 13 22 0 24 0 11 -4 11 -8 11 -11 13 -14 6 -17 0 -18 0 -19 -8 -21 -15 rrcurveto
          -113 -94 rlineto
          -71 25 -78 12 -86 0 rrcurveto
          -39 hlineto
          -19 0 -18 -7 -17 -15 -22 -20 -11 -22 0 -25 0 -11 3 -10 6 -8 9 -12 14 -7 18 -1 33 0 57 -4 81 -9 -52 -43 -38 -33 -26 -22 -26 -22 -13 -23 0 -23 0 -12 4 -12 7 -11 rrcurveto
          11 -12 13 -6 17 0 19 0 20 8 21 16 rrcurveto
          169 139 rlineto
          66 -52 44 -64 22 -76 13 -48 6 -42 0 -36 0 -61 -16 -31 -32 0 -9 0 -9 3 -7 5 -22 19 -31 16 -39 14 -38 13 -42 7 -46 0 -72 0 -68 -14 -63 -27 -64 -28 -55 -42 -46 -59 rrcurveto
          -47 -58 -33 -75 -19 -92 -11 -50 -5 -48 0 -45 0 -125 37 -92 75 -61 52 -43 72 -21 92 0 rrcurveto
          endchar
        </CharString>
        <CharString name="exclam">
          0 601 -10 rmoveto
          37 0 36 14 34 29 44 37 22 46 0 54 0 26 -7 22 -15 20 -21 28 -29 14 -37 0 -41 0 -37 -14 -34 -29 -46 -38 -22 -44 0 -52 0 -26 8 -24 16 -21 21 -28 31 -14 40 0 rrcurveto
          102 499 rmoveto
          17 0 16 6 15 11 14 12 10 15 4 17 132 543 66 275 0 7 0 15 -5 14 -9 12 -13 17 -19 8 -24 0 -25 0 -22 -9 -21 -17 -20 -18 -13 -21 -5 -24 -98 -540 -49 -272 0 -4 rrcurveto
          0 -12 3 -10 7 -8 9 -11 13 -6 17 0 rrcurveto
          endchar
        </CharString>
        <CharString name="exclam_exclam">
          0 -399 -10 rmoveto
          37 0 36 14 34 29 44 37 22 46 0 54 0 26 -7 22 -15 20 -21 28 -29 14 -37 0 -41 0 -37 -14 -34 -29 -46 -38 -22 -44 0 -52 0 -26 8 -24 16 -21 21 -28 31 -14 40 0 rrcurveto
          102 499 rmoveto
          17 0 16 6 15 11 14 12 10 15 4 17 132 543 66 275 0 7 0 15 -5 14 -9 12 -13 17 -19 8 -24 0 -25 0 -22 -9 -21 -17 -20 -18 -13 -21 -5 -24 -98 -540 -49 -272 0 -4 rrcurveto
          0 -12 3 -10 7 -8 9 -11 13 -6 17 0 rrcurveto
          698 -499 rmoveto
          37 0 36 14 34 29 44 37 22 46 0 54 0 26 -7 22 -15 20 -21 28 -29 14 -37 0 -41 0 -37 -14 -34 -29 -46 -38 -22 -44 0 -52 0 -26 8 -24 16 -21 21 -28 31 -14 40 0 rrcurveto
          102 499 rmoveto
          17 0 16 6 15 11 14 12 10 15 4 17 132 543 66 275 0 7 0 15 -5 14 -9 12 -13 17 -19 8 -24 0 -25 0 -22 -9 -21 -17 -20 -18 -13 -21 -5 -24 -98 -540 -49 -272 0 -4 rrcurveto
          0 -12 3 -10 7 -8 9 -11 13 -6 17 0 rrcurveto
          endchar
        </CharString>
        <CharString name="exclamdown">
          0 500 -470 rmoveto
          23 0 22 9 22 17 21 18 13 20 5 23 rrcurveto
          146 804 rlineto
          2 17 -3 15 -10 11 -10 12 -13 6 -16 0 -16 0 -15 -6 -14 -12 -15 -11 -10 -15 -5 -17 rrcurveto
          -195 -803 rlineto
          -5 -23 4 -21 13 -17 14 -18 18 -9 24 0 rrcurveto
          251 1161 rmoveto
          38 0 35 14 33 29 33 28 21 34 9 41 8 39 -6 34 -21 28 -21 29 -30 14 -37 0 -42 0 -37 -14 -33 -29 -34 -28 -21 -34 -8 -39 -9 -41 7 -34 21 -28 22 -29 31 -14 41 0 rrcurveto
          endchar
        </CharString>
        <CharString name="f">
          0 136 -437 rmoveto
          106 0 92 36 79 71 86 74 61 119 37 163 rrcurveto
          169 786 rlineto
          4 17 9 14 13 11 14 11 15 5 17 0 rrcurveto
          356 hlineto
          20 0 19 7 17 14 23 20 12 22 0 26 0 13 -4 11 -7 9 -9 12 -14 6 -19 0 rrcurveto
          -356 hlineto
          -19 0 -13 6 -9 12 -9 11 -5 13 0 12 rrcurveto
          25 107 rlineto
          12 54 27 46 42 39 42 39 50 20 57 0 rrcurveto
          168 hlineto
          20 0 19 7 17 14 23 20 12 22 0 26 0 13 -4 11 -7 9 -9 12 -14 6 -19 0 rrcurveto
          -206 hlineto
          -57 0 -54 -14 -51 -29 -51 -28 -43 -38 -36 -46 -36 -46 -24 -52 -12 -55 rrcurveto
          -31 -139 rlineto
          -4 -14 -8 -12 -14 -10 -13 -11 -15 -5 -16 0 rrcurveto
          -145 hlineto
          -20 0 -18 -7 -17 -14 -24 -20 -12 -22 0 -25 0 -13 4 -11 8 -9 9 -13 14 -6 18 0 rrcurveto
          144 hlineto
          18 0 14 -6 9 -11 9 -11 5 -12 0 -13 0 -11 -56 -265 -112 -519 -23 -102 -38 -83 -54 -63 -55 -63 -66 -31 -77 0 -51 0 -26 -21 0 -42 0 -36 22 -18 45 0 rrcurveto
          endchar
        </CharString>
        <CharString name="five">
          0 575 -10 rmoveto
          304 0 171 151 38 303 6 48 3 37 0 26 -4 196 -134 98 -265 0 rrcurveto
          -60 hlineto
          -37 1 -18 18 0 36 rrcurveto
          94 295 rlineto
          9 30 18 15 29 0 325 1 173 16 21 30 5 8 2 12 0 18 0 10 -2 7 -5 5 -18 18 -204 10 -390 1 -46 0 -27 -16 -8 -32 -101 -372 -50 -188 0 -3 1 -14 5 -11 8 -11 rrcurveto
          11 -14 15 -7 20 0 rrcurveto
          164 hlineto
          204 -1 103 -69 2 -135 0 -74 -10 -58 -20 -42 -59 -133 -117 -68 -177 -2 -145 0 -103 47 -60 94 -18 31 -15 15 -11 0 -12 0 -6 -19 0 -37 0 -27 3 -19 5 -11 68 -143 127 -71 188 0 rrcurveto
          endchar
        </CharString>
        <CharString name="four">
          0 929 450 rmoveto
          24 159 37 79 47 0 32 0 23 -15 14 -30 13 -25 7 -24 0 -25 -1 -79 -66 -40 -130 0 rrcurveto
          -167 -460 rmoveto
          21 0 20 7 17 15 18 15 12 18 5 21 rrcurveto
          55 246 rlineto
          127 3 79 17 32 31 51 51 26 76 1 102 0 84 -25 67 -49 50 -30 29 -38 14 -47 0 -113 0 -82 -127 -50 -254 -237 2 -123 4 -9 7 -8 7 -4 9 0 11 0 11 4 10 7 8 rrcurveto
          448 532 223 244 rlineto
          12 14 6 18 0 24 0 15 -3 12 -7 9 -9 12 -10 6 -11 0 -35 0 -31 -16 -29 -32 rrcurveto
          -762 -868 rlineto
          -19 -23 -12 -31 -5 -40 0 -24 9 -21 18 -17 17 -17 22 -9 27 0 rrcurveto
          497 hlineto
          -60 -270 rlineto
          0 -13 5 -12 10 -11 10 -11 13 -5 16 0 rrcurveto
          endchar
        </CharString>
        <CharString name="fullblock">
          0 -600 vmoveto
          1200 2640 -1200 hlineto
          endchar
        </CharString>
        <CharString name="g">
          0 603 148 rmoveto
          -89 0 -58 25 -27 51 -28 51 -14 53 0 54 0 41 5 46 11 52 59 252 119 128 179 4 69 0 54 -22 39 -43 39 -44 19 -49 0 -54 0 -20 -2 -22 -5 -25 rrcurveto
          -45 -211 rlineto
          -14 -66 -40 -62 -67 -59 -62 -53 -68 -27 -74 0 rrcurveto
          -141 -608 rmoveto
          125 0 109 36 93 73 92 72 59 100 27 126 150 703 75 355 0 7 0 13 -3 10 -6 7 -8 12 -14 6 -19 0 -41 0 -28 -20 -15 -40 -12 -32 -16 -16 -21 0 -13 0 -12 6 -10 13 rrcurveto
          -43 59 -70 29 -95 0 -121 0 -104 -46 -88 -92 -88 -93 -65 -141 -41 -191 -13 -60 -7 -56 0 -52 0 -79 15 -67 31 -56 48 -91 82 -45 117 0 82 0 72 22 63 43 20 14 18 7 16 0 rrcurveto
          28 0 14 -14 0 -28 0 -6 -11 -51 -22 -96 -11 -53 -33 -47 -54 -43 -54 -43 -72 -22 -90 -1 -66 0 -53 10 -39 20 -40 20 -37 31 -35 42 -9 10 -12 5 -15 0 -17 0 -21 -12 -24 -23 rrcurveto
          -17 -15 -8 -18 0 -20 0 -10 3 -9 6 -9 71 -103 116 -51 161 0 rrcurveto
          endchar
        </CharString>
        <CharString name="germandbls">
          0 719 -5 rmoveto
          68 0 64 13 62 27 62 27 53 40 45 53 46 52 29 62 16 78 15 67 -1 52 -16 43 -16 44 -24 35 -31 29 -33 31 -33 27 -34 25 -36 24 -30 27 -23 26 -25 28 -10 40 8 39 rrcurveto
          8 36 22 33 29 25 28 24 32 24 35 24 34 24 30 26 29 32 28 29 17 37 10 47 18 82 -17 62 -51 53 -52 53 -74 25 -107 0 -129 0 -105 -36 -88 -73 -87 -74 -58 -105 -30 -143 rrcurveto
          -212 -995 rlineto
          -9 -45 23 -29 44 0 48 0 42 35 10 48 rrcurveto
          215 1007 rlineto
          21 103 37 78 51 46 50 45 66 25 77 0 47 0 41 -11 25 -18 26 -19 18 -27 7 -28 7 -27 -1 -30 -5 -26 -9 -42 -21 -37 -31 -28 -29 -26 -32 -25 -35 -25 -35 -23 -30 -26 -29 -30 rrcurveto
          -26 -28 -17 -36 -10 -46 -11 -50 3 -37 17 -32 17 -34 24 -26 31 -25 rrcurveto
          100 -78 rlineto
          36 -26 28 -33 21 -36 20 -38 5 -49 -11 -54 -15 -71 -33 -57 -47 -36 -46 -36 -61 -19 -67 0 -30 0 -30 5 -29 9 -10 2 -6 3 -6 2 -7 3 -5 1 -7 0 -23 0 -21 -11 -17 -22 rrcurveto
          -8 -10 -4 -9 -3 -11 -5 -26 7 -16 22 -9 rrcurveto
          32 -12 rlineto
          39 -10 45 -6 53 0 rrcurveto
          endchar
        </CharString>
        <CharString name="grave">
          0 973 1040 rmoveto
          18 0 18 7 18 14 24 21 12 23 0 23 0 13 -4 11 -7 11 rrcurveto
          -242 307 rlineto
          -12 13 -14 7 -17 0 -19 0 -19 -8 -19 -15 -23 -19 -12 -21 0 -23 0 -13 4 -12 8 -12 rrcurveto
          241 -306 rlineto
          13 -14 15 -7 17 0 rrcurveto
          endchar
        </CharString>
        <CharString name="greater">
          0 286 167 rmoveto
          10 0 11 2 12 5 rrcurveto
          768 363 rlineto
          39 20 20 28 0 34 0 20 -8 15 -17 10 rrcurveto
          -615 354 rlineto
          -9 5 -10 3 -10 0 -19 0 -18 -7 -18 -15 -23 -19 -12 -22 0 -24 0 -19 9 -16 19 -13 rrcurveto
          419 -250 rlineto
          14 -10 8 -12 0 -14 0 -20 -12 -16 -22 -13 rrcurveto
          -529 -254 rlineto
          -40 -22 -21 -27 0 -33 0 -12 4 -11 9 -11 10 -13 14 -6 17 0 rrcurveto
          endchar
        </CharString>
        <CharString name="greater_greater">
          0 -761 167 rmoveto
          10 0 11 2 11 5 rrcurveto
          769 362 rlineto
          37 20 19 28 0 34 0 20 -9 15 -18 11 rrcurveto
          -615 355 rlineto
          -10 5 -9 2 -11 0 -18 0 -18 -7 -17 -14 -22 -18 -12 -21 0 -25 0 -19 10 -17 20 -14 rrcurveto
          418 -250 rlineto
          14 -9 7 -11 0 -14 0 -20 -12 -17 -24 -13 rrcurveto
          -530 -254 rlineto
          -38 -22 -19 -26 0 -32 0 -13 4 -12 8 -10 11 -14 15 -7 18 0 rrcurveto
          900 hmoveto
          10 0 11 2 11 5 rrcurveto
          769 362 rlineto
          37 20 19 28 0 34 0 20 -9 15 -18 11 rrcurveto
          -615 355 rlineto
          -10 5 -9 2 -11 0 -18 0 -18 -7 -17 -14 -22 -18 -12 -21 0 -25 0 -19 10 -17 20 -14 rrcurveto
          418 -250 rlineto
          14 -9 7 -11 0 -14 0 -20 -12 -17 -24 -13 rrcurveto
          -530 -254 rlineto
          -38 -22 -19 -26 0 -32 0 -13 4 -12 8 -10 11 -14 15 -7 18 0 rrcurveto
          endchar
        </CharString>
        <CharString name="greater_greater_greater">
          0 -11 167 rmoveto
          10 0 11 2 11 5 rrcurveto
          769 362 rlineto
          37 20 19 28 0 34 0 20 -9 15 -18 11 rrcurveto
          -615 355 rlineto
          -10 5 -9 2 -11 0 -18 0 -18 -7 -17 -14 -22 -18 -12 -21 0 -25 0 -19 10 -17 20 -14 rrcurveto
          418 -250 rlineto
          14 -9 7 -11 0 -14 0 -20 -12 -17 -24 -13 rrcurveto
          -530 -254 rlineto
          -38 -22 -19 -26 0 -32 0 -13 4 -12 8 -10 11 -14 15 -7 18 0 rrcurveto
          -900 hmoveto
          10 0 11 2 11 5 rrcurveto
          769 362 rlineto
          37 20 19 28 0 34 0 20 -9 15 -18 11 rrcurveto
          -615 355 rlineto
          -10 5 -9 2 -11 0 -18 0 -18 -7 -17 -14 -22 -18 -12 -21 0 -25 0 -19 10 -17 20 -14 rrcurveto
          418 -250 rlineto
          14 -9 7 -11 0 -14 0 -20 -12 -17 -24 -13 rrcurveto
          -530 -254 rlineto
          -38 -22 -19 -26 0 -32 0 -13 4 -12 8 -10 11 -14 15 -7 18 0 rrcurveto
          -900 hmoveto
          10 0 11 2 11 5 rrcurveto
          769 362 rlineto
          37 20 19 28 0 34 0 20 -9 15 -18 11 rrcurveto
          -615 355 rlineto
          -10 5 -9 2 -11 0 -18 0 -18 -7 -17 -14 -22 -18 -12 -21 0 -25 0 -19 10 -17 20 -14 rrcurveto
          418 -250 rlineto
          14 -9 7 -11 0 -14 0 -20 -12 -17 -24 -13 rrcurveto
          -530 -254 rlineto
          -38 -22 -19 -26 0 -32 0 -13 4 -12 8 -10 11 -14 15 -7 18 0 rrcurveto
          endchar
        </CharString>
        <CharString name="guillemotleft">
          0 548 144 rmoveto
          29 0 30 24 7 30 2 11 -1 8 -4 9 rrcurveto
          -136 323 rlineto
          -7 14 -1 20 3 17 4 16 10 20 12 14 rrcurveto
          274 324 rlineto
          8 10 5 8 2 11 7 32 -20 22 -30 0 -17 0 -14 -6 -14 -14 rrcurveto
          -343 -330 rlineto
          -33 -31 -20 -36 -9 -41 -8 -41 4 -37 20 -31 rrcurveto
          203 -327 rlineto
          9 -14 11 -5 17 0 rrcurveto
          437 hmoveto
          10 0 9 2 0 0 rrcurveto
          1 vlineto
          31 17 11 15 4 19 2 11 -1 8 -4 9 rrcurveto
          -136 323 rlineto
          -7 14 -1 20 3 17 4 16 10 20 12 14 rrcurveto
          274 324 rlineto
          8 10 5 8 2 11 6 28 -17 26 -32 0 -17 0 -14 -6 -14 -14 rrcurveto
          -345 -330 rlineto
          -33 -31 -21 -37 -9 -40 -8 -40 5 -38 20 -31 rrcurveto
          205 -327 rlineto
          9 -14 12 -5 17 0 rrcurveto
          endchar
        </CharString>
        <CharString name="guillemotright">
          0 716 144 rmoveto
          17 0 14 5 14 14 rrcurveto
          341 327 rlineto
          34 31 20 37 9 41 9 41 -5 36 -19 31 rrcurveto
          -203 330 rlineto
          -9 14 -11 6 -17 0 -30 0 -29 -22 -7 -32 -2 -11 0 -8 5 -10 rrcurveto
          136 -324 rlineto
          6 -14 2 -20 -4 -16 -3 -17 -10 -20 -13 -14 rrcurveto
          -273 -323 rlineto
          -9 -9 -4 -8 -2 -11 -6 -30 19 -24 30 0 rrcurveto
          -437 hmoveto
          17 0 14 5 15 14 rrcurveto
          344 327 rlineto
          33 31 21 38 9 40 9 40 -6 37 -19 31 rrcurveto
          -205 330 rlineto
          -9 14 -11 6 -17 0 -32 0 -28 -26 -6 -28 -2 -11 0 -8 5 -10 rrcurveto
          136 -324 rlineto
          6 -14 2 -20 -4 -16 -3 -17 -10 -20 -13 -14 rrcurveto
          -273 -323 rlineto
          -9 -9 -4 -8 -2 -11 -4 -19 4 -15 24 -17 rrcurveto
          -1 vlineto
          0 0 7 -2 11 0 rrcurveto
          endchar
        </CharString>
        <CharString name="h">
          0 1005 687 rmoveto
          -1 -19 -3 -19 -4 -20 -68 -298 -35 -154 -1 -11 -2 -17 -1 -16 0 -14 0 -23 9 -24 17 -26 24 -37 41 -18 57 -1 48 0 49 21 48 41 50 43 25 38 0 33 0 7 -2 6 -4 5 rrcurveto
          -4 5 -5 3 -7 0 -18 0 -16 -9 -15 -17 -28 -34 -32 -17 -35 0 -41 0 -21 17 0 33 0 14 37 161 73 310 3 13 4 22 5 29 5 29 2 33 0 36 0 68 -13 52 -27 37 rrcurveto
          -42 61 -73 30 -104 0 -92 -1 -97 -45 -104 -88 -14 -11 -12 -6 -10 0 -20 0 -10 11 0 22 0 5 19 93 38 182 33 151 16 79 0 5 0 13 -4 11 -8 10 -10 13 -14 6 -19 0 rrcurveto
          -19 0 -19 -8 -19 -15 -19 -15 -11 -19 -5 -23 -196 -916 -98 -464 0 -11 0 -12 3 -10 7 -9 10 -12 15 -6 20 0 24 0 19 7 15 14 15 14 10 19 5 24 rrcurveto
          117 548 rlineto
          21 95 54 74 88 54 72 42 69 21 65 0 114 0 57 -62 0 -124 0 -9 0 -10 -1 -10 rrcurveto
          endchar
        </CharString>
        <CharString name="hyphen">
          0 948 530 rmoveto
          20 0 19 7 18 15 18 15 11 17 4 20 4 19 -3 15 -10 13 -10 13 -14 6 -18 0 rrcurveto
          -480 hlineto
          -20 0 -19 -7 -18 -15 -18 -15 -11 -17 -4 -20 -4 -19 3 -15 10 -13 10 -13 14 -6 18 0 rrcurveto
          endchar
        </CharString>
        <CharString name="hyphenminus">
          0 1052 530 rmoveto
          20 0 18 7 17 13 22 18 11 22 0 26 0 13 -4 12 -8 10 -10 13 -15 6 -20 0 rrcurveto
          -680 hlineto
          -21 0 -18 -7 -16 -13 -21 -18 -11 -23 0 -27 0 -13 4 -11 7 -9 10 -13 15 -6 20 0 rrcurveto
          endchar
        </CharString>
        <CharString name="i">
          0 694 -10 rmoveto
          82 0 80 22 79 43 79 44 90 75 99 107 6 6 3 10 0 14 0 8 -3 7 -7 7 -7 7 -10 4 -12 0 -11 0 -9 -3 -7 -7 -69 -64 -57 -48 -46 -29 -47 -29 -53 -15 -60 0 rrcurveto
          -68 0 -34 33 -1 67 1 44 31 124 60 203 50 184 25 95 0 7 0 35 -8 30 -17 24 -17 23 -21 12 -24 0 -7 0 -139 -36 -271 -73 -64 -17 -32 -38 0 -59 0 -18 5 -13 9 -8 rrcurveto
          9 -7 9 -4 8 0 6 0 57 19 110 37 109 37 59 19 9 0 30 0 15 -15 0 -30 0 -11 -27 -97 -53 -182 -57 -189 -28 -132 0 -76 0 -98 49 -49 97 0 rrcurveto
          159 1265 rmoveto
          33 0 32 13 31 25 41 35 22 41 1 48 0 21 -6 19 -13 16 -17 25 -24 12 -33 0 -35 0 -34 -13 -31 -25 -40 -35 -20 -40 -2 -45 1 -24 6 -21 12 -17 17 -23 26 -12 33 0 rrcurveto
          endchar
        </CharString>
        <CharString name="iacute">
          0 730 1285 rmoveto
          6 0 4 1 8 3 rrcurveto
          306 109 rlineto
          33 12 21 25 6 30 1 6 1 4 0 5 0 8 -1 5 -3 7 -8 20 -15 9 -25 0 -13 0 -11 -3 -13 -7 rrcurveto
          -294 -153 rlineto
          -19 -10 -10 -13 -3 -18 -1 -4 0 -2 0 -3 0 -5 0 -2 1 -4 5 -15 7 -5 17 0 rrcurveto
          -36 -1295 rmoveto
          82 0 80 22 79 43 79 44 90 75 99 107 6 6 3 10 0 14 0 8 -3 7 -7 7 -7 7 -10 4 -12 0 -11 0 -9 -3 -7 -7 -69 -64 -57 -48 -46 -29 -47 -29 -53 -15 -60 0 rrcurveto
          -68 0 -34 33 -1 67 1 44 31 124 60 203 50 184 25 95 0 7 0 35 -8 30 -17 24 -17 23 -21 12 -24 0 -7 0 -139 -36 -271 -73 -64 -17 -32 -38 0 -59 0 -18 5 -13 9 -8 rrcurveto
          9 -7 9 -4 8 0 6 0 57 19 110 37 109 37 59 19 9 0 30 0 15 -15 0 -30 0 -11 -27 -97 -53 -182 -57 -189 -28 -132 0 -76 0 -98 49 -49 97 0 rrcurveto
          endchar
        </CharString>
        <CharString name="icircumflex">
          0 624 1295 rmoveto
          9 0 9 3 10 5 rrcurveto
          200 114 rlineto
          15 8 18 5 15 0 15 0 19 -6 11 -9 rrcurveto
          154 -113 rlineto
          7 -5 5 -1 10 0 14 0 13 5 13 13 12 11 6 9 2 12 1 4 0 2 0 4 0 11 -2 5 -6 7 rrcurveto
          -145 144 rlineto
          -24 24 -30 12 -38 0 -38 0 -39 -13 -35 -24 rrcurveto
          -207 -144 rlineto
          -15 -11 -8 -13 -4 -15 -1 -3 0 -3 0 -4 0 -8 1 -5 5 -7 7 -10 7 -4 14 0 rrcurveto
          70 -1305 rmoveto
          82 0 80 22 79 43 79 44 90 75 99 107 6 6 3 10 0 14 0 8 -3 7 -7 7 -7 7 -10 4 -12 0 -11 0 -9 -3 -7 -7 -69 -64 -57 -48 -46 -29 -47 -29 -53 -15 -60 0 rrcurveto
          -68 0 -34 33 -1 67 1 44 31 124 60 203 50 184 25 95 0 7 0 35 -8 30 -17 24 -17 23 -21 12 -24 0 -7 0 -139 -36 -271 -73 -64 -17 -32 -38 0 -59 0 -18 5 -13 9 -8 rrcurveto
          9 -7 9 -4 8 0 6 0 57 19 110 37 109 37 59 19 9 0 30 0 15 -15 0 -30 0 -11 -27 -97 -53 -182 -57 -189 -28 -132 0 -76 0 -98 49 -49 97 0 rrcurveto
          endchar
        </CharString>
        <CharString name="idieresis">
          0 656 1293 rmoveto
          29 0 26 10 24 20 33 26 16 32 0 38 0 17 -5 15 -10 12 -15 18 -21 9 -27 0 -30 0 -27 -10 -25 -19 -32 -26 -16 -32 0 -39 0 -17 5 -15 11 -12 14 -18 21 -9 29 0 rrcurveto
          430 hmoveto
          31 0 27 10 24 20 33 26 16 31 0 38 0 18 -5 15 -10 12 -15 18 -22 9 -28 0 -29 0 -26 -10 -25 -19 -33 -26 -16 -32 0 -38 0 -17 5 -16 11 -12 14 -18 21 -9 27 0 rrcurveto
          -392 -1303 rmoveto
          82 0 80 22 79 43 79 44 90 75 99 107 6 6 3 10 0 14 0 8 -3 7 -7 7 -7 7 -10 4 -12 0 -11 0 -9 -3 -7 -7 -69 -64 -57 -48 -46 -29 -47 -29 -53 -15 -60 0 rrcurveto
          -68 0 -34 33 -1 67 1 44 31 124 60 203 50 184 25 95 0 7 0 35 -8 30 -17 24 -17 23 -21 12 -24 0 -7 0 -139 -36 -271 -73 -64 -17 -32 -38 0 -59 0 -18 5 -13 9 -8 rrcurveto
          9 -7 9 -4 8 0 6 0 57 19 110 37 109 37 59 19 9 0 30 0 15 -15 0 -30 0 -11 -27 -97 -53 -182 -57 -189 -28 -132 0 -76 0 -98 49 -49 97 0 rrcurveto
          endchar
        </CharString>
        <CharString name="igrave">
          0 1030 1285 rmoveto
          17 0 16 9 13 17 6 8 3 7 1 6 rrcurveto
          2 12 rlineto
          0 11 -3 6 -10 6 rrcurveto
          -228 153 rlineto
          -9 7 -10 2 -12 0 -26 0 -24 -11 -19 -23 -10 -14 -6 -11 -2 -13 -2 -6 0 -4 0 -5 0 -22 8 -14 20 -9 rrcurveto
          260 -109 rlineto
          5 -2 4 -1 6 0 rrcurveto
          -336 -1295 rmoveto
          82 0 80 22 79 43 79 44 90 75 99 107 6 6 3 10 0 14 0 8 -3 7 -7 7 -7 7 -10 4 -12 0 -11 0 -9 -3 -7 -7 -69 -64 -57 -48 -46 -29 -47 -29 -53 -15 -60 0 rrcurveto
          -68 0 -34 33 -1 67 1 44 31 124 60 203 50 184 25 95 0 7 0 35 -8 30 -17 24 -17 23 -21 12 -24 0 -7 0 -139 -36 -271 -73 -64 -17 -32 -38 0 -59 0 -18 5 -13 9 -8 rrcurveto
          9 -7 9 -4 8 0 6 0 57 19 110 37 109 37 59 19 9 0 30 0 15 -15 0 -30 0 -11 -27 -97 -53 -182 -57 -189 -28 -132 0 -76 0 -98 49 -49 97 0 rrcurveto
          endchar
        </CharString>
        <CharString name="j">
          0 370 -356 rmoveto
          -72 0 -36 32 0 64 0 105 142 158 283 211 -104 -380 -105 -190 -108 0 rrcurveto
          -29 -104 rmoveto
          82 0 76 30 70 60 70 61 63 107 55 156 20 59 30 115 39 171 rrcurveto
          298 239 rlineto
          9 7 5 11 0 13 0 10 -4 10 -7 8 -7 9 -10 4 -11 0 -10 0 -9 -3 -7 -6 rrcurveto
          -236 -198 rlineto
          81 326 40 167 0 6 -1 37 -9 30 -18 25 -17 24 -21 12 -25 0 -7 0 -138 -36 -268 -73 -61 -16 -31 -35 0 -56 0 -22 5 -15 10 -8 10 -8 9 -4 8 0 6 0 57 19 108 37 rrcurveto
          108 37 58 19 9 0 31 0 16 -16 0 -33 0 -14 -40 -171 -80 -328 -245 -162 -151 -123 -57 -84 -57 -83 -29 -79 0 -73 1 -109 61 -54 121 0 rrcurveto
          589 1715 rmoveto
          33 0 31 13 30 25 40 34 20 41 0 48 -1 22 -7 19 -14 16 -18 25 -25 12 -32 0 -36 0 -33 -13 -30 -25 -38 -35 -19 -39 0 -46 1 -23 7 -21 13 -18 18 -23 26 -12 34 0 rrcurveto
          endchar
        </CharString>
        <CharString name="k">
          0 922 -11 rmoveto
          63 0 56 30 50 61 36 45 19 37 0 30 0 13 -4 10 -6 6 -4 4 -4 2 -4 0 -20 0 -16 -11 -13 -23 -28 -47 -38 -24 -47 0 -31 0 -25 13 -17 26 rrcurveto
          -154 222 rlineto
          -12 16 -6 16 0 15 0 20 10 14 19 10 234 114 119 146 4 178 0 99 -49 49 -98 0 -92 0 -135 -67 -178 -134 89 385 45 198 0 11 0 16 -5 12 -10 10 -13 13 -17 6 -22 0 rrcurveto
          -38 0 -24 -21 -11 -42 -215 -919 -107 -466 0 -12 0 -16 4 -13 8 -11 9 -12 15 -6 20 0 17 0 17 6 14 11 15 12 10 14 5 18 rrcurveto
          146 591 rlineto
          5 19 13 20 21 19 142 134 106 67 70 0 65 0 33 -25 0 -51 0 -109 -139 -115 -279 -118 -7 -4 -4 -4 0 -5 0 -8 3 -9 7 -10 rrcurveto
          262 -382 rlineto
          27 -49 41 -25 53 0 rrcurveto
          endchar
        </CharString>
        <CharString name="l">
          0 676 743 rmoveto
          83 339 rlineto
          53 208 96 104 138 0 93 -2 46 -43 1 -84 0 -99 -31 -83 -61 -68 -75 -80 -139 -91 -204 -101 rrcurveto
          -64 -753 rmoveto
          57 0 50 10 44 19 74 26 75 63 76 99 8 11 4 11 0 11 -1 16 -6 13 -12 11 -11 11 -14 6 -16 0 -16 0 -15 -8 -14 -17 -41 -57 -39 -40 -35 -24 -36 -25 -41 -12 -46 0 rrcurveto
          -68 1 -34 28 0 56 0 36 26 132 53 229 232 124 154 95 77 68 127 118 63 137 0 155 0 63 -23 53 -46 42 -43 39 -58 20 -73 0 -116 0 -96 -40 -76 -79 -75 -79 -58 -122 -42 -163 rrcurveto
          -94 -369 rlineto
          -125 -54 -84 -34 -45 -16 -22 -8 -12 -15 0 -24 0 -16 6 -13 12 -10 13 -9 12 -5 12 0 15 0 70 32 125 63 -29 -129 -18 -85 -7 -41 -5 -32 -3 -41 0 -50 2 -121 70 -60 138 0 rrcurveto
          endchar
        </CharString>
        <CharString name="lamda-grek">
          0 545 1510 rmoveto
          -47 0 -28 -21 -9 -42 -10 -44 24 -22 56 0 78 0 58 -33 39 -65 43 -75 16 -65 -11 -53 -3 -15 -6 -15 -8 -14 -372 -649 -187 -328 -2 -7 -4 -19 4 -17 11 -14 11 -15 15 -7 20 0 rrcurveto
          35 0 27 16 19 33 rrcurveto
          407 717 rlineto
          10 18 15 9 19 0 22 0 12 -9 2 -19 rrcurveto
          102 -718 rlineto
          5 -31 20 -16 34 0 20 0 19 7 18 15 17 15 11 18 5 19 1 6 -43 328 -87 649 -29 180 -37 117 -46 55 -65 74 -88 37 -113 0 rrcurveto
          endchar
        </CharString>
        <CharString name="left_arrow_double_long">
          0 -1668 71 rmoveto
          19 0 18 7 17 14 17 13 10 17 4 19 4 19 -5 17 -13 17 -13 16 -14 19 -15 20 -7 9 -2 11 3 12 3 13 7 12 12 10 12 10 13 5 12 0 rrcurveto
          2496 hlineto
          18 0 18 7 17 14 17 13 11 17 4 19 4 20 -3 17 -11 13 -11 13 -15 7 -19 0 rrcurveto
          -2544 hlineto
          -19 0 -18 -7 -18 -15 rrcurveto
          -40 -33 rlineto
          -12 -9 -13 -5 -14 0 -13 0 -11 5 -8 9 rrcurveto
          -117 148 rlineto
          -7 10 -3 12 3 13 3 13 7 12 12 10 rrcurveto
          182 150 rlineto
          12 9 13 5 14 0 13 0 11 -5 8 -9 rrcurveto
          25 -33 rlineto
          13 -14 15 -7 18 0 rrcurveto
          2543 hlineto
          18 0 18 7 17 14 17 13 11 17 4 19 4 20 -3 17 -11 13 -12 13 -14 7 -19 0 rrcurveto
          -2494 hlineto
          -13 0 -10 5 -8 9 -7 10 -3 11 3 13 1 6 3 6 3 6 3 6 27 23 50 41 17 17 11 17 4 17 4 20 -3 17 -11 13 -11 13 -15 7 -19 0 -17 0 -18 -7 -19 -14 rrcurveto
          -554 -458 rlineto
          -17 -14 -11 -16 -4 -19 -4 -19 4 -17 11 -16 rrcurveto
          359 -455 rlineto
          13 -14 15 -7 17 0 rrcurveto
          endchar
        </CharString>
        <CharString name="left_arrow_double_long_alt">
          0 -1672 71 rmoveto
          20 0 19 7 18 15 22 19 12 22 0 26 0 12 -4 11 -7 10 rrcurveto
          -109 138 rlineto
          2607 hlineto
          19 0 18 7 19 15 24 19 12 23 0 25 0 13 -4 10 -8 9 -10 13 -14 6 -18 0 rrcurveto
          -2755 hlineto
          -74 94 rlineto
          -6 9 -3 9 0 9 0 17 7 14 14 12 rrcurveto
          115 95 rlineto
          2749 hlineto
          19 0 18 7 19 15 23 19 12 23 0 27 0 12 -4 10 -7 8 -10 13 -14 6 -18 0 rrcurveto
          -2618 hlineto
          168 138 rlineto
          23 22 12 23 0 24 0 12 -4 10 -7 9 -10 13 -14 6 -18 0 -18 0 -19 -7 -19 -15 rrcurveto
          -554 -457 rlineto
          -24 -20 -12 -23 0 -25 0 -13 4 -11 7 -10 rrcurveto
          360 -456 rlineto
          11 -13 14 -6 17 0 rrcurveto
          endchar
        </CharString>
        <CharString name="left_arrow_single">
          0 -483 458 rmoveto
          -14 0 -11 5 -8 10 rrcurveto
          -71 89 rlineto
          -5 8 -3 8 0 9 0 17 7 15 16 14 rrcurveto
          109 89 rlineto
          11 9 13 5 13 0 13 0 12 -5 9 -10 rrcurveto
          69 -89 rlineto
          7 -7 3 -9 0 -10 0 -17 -8 -15 -16 -14 rrcurveto
          -108 -88 rlineto
          -12 -9 -13 -5 -13 0 rrcurveto
          114 -387 rmoveto
          20 0 18 7 17 13 22 18 11 22 0 24 0 12 -4 12 -8 12 rrcurveto
          -89 113 rlineto
          -5 8 -3 8 0 9 0 17 7 15 16 14 rrcurveto
          138 118 rlineto
          14 10 16 9 19 7 20 7 16 4 15 0 rrcurveto
          1181 hlineto
          19 0 19 7 16 14 22 18 12 22 0 25 0 13 -4 11 -8 10 -11 13 -15 7 -19 0 rrcurveto
          -1180 hlineto
          -15 0 -16 4 -16 7 -15 7 -13 9 -9 11 rrcurveto
          -90 115 rlineto
          -6 8 -3 9 0 10 0 15 8 15 15 13 rrcurveto
          137 113 rlineto
          22 20 11 23 0 25 0 13 -4 11 -8 10 -11 13 -14 6 -18 0 -17 0 -18 -7 -20 -14 rrcurveto
          -553 -458 rlineto
          -23 -19 -12 -22 0 -24 0 -12 4 -13 8 -12 rrcurveto
          359 -456 rlineto
          13 -13 15 -6 17 0 rrcurveto
          endchar
        </CharString>
        <CharString name="left_arrow_single_alt">
          0 -472 71 rmoveto
          22 0 16 6 19 15 19 15 9 15 4 23 1 6 1 5 0 5 0 10 -3 10 -8 11 rrcurveto
          -209 265 rlineto
          -5 7 -3 10 0 9 rrcurveto
          1 8 rlineto
          3 17 22 22 22 0 rrcurveto
          1509 hlineto
          22 0 16 6 19 15 19 16 9 15 5 22 1 6 1 6 0 5 0 11 -3 9 -8 10 -11 14 -11 5 -20 0 rrcurveto
          -1503 hlineto
          -23 0 -16 23 0 19 rrcurveto
          1 6 rlineto
          2 9 7 11 8 7 rrcurveto
          316 262 rlineto
          19 18 10 15 4 20 2 7 0 6 0 5 0 12 -3 9 -8 9 -12 14 -11 5 -19 0 -18 0 -17 -7 -21 -15 rrcurveto
          -554 -458 rlineto
          -20 -17 -10 -16 -4 -20 rrcurveto
          -2 -16 rlineto
          0 -12 3 -10 8 -11 rrcurveto
          359 -456 rlineto
          13 -13 12 -5 18 0 rrcurveto
          endchar
        </CharString>
        <CharString name="left_right_arrow_double">
          0 610 402 rmoveto
          -14 0 -11 5 -9 11 -8 10 -9 11 -9 11 -12 14 -15 7 -18 0 rrcurveto
          -2008 hlineto
          -19 0 -18 -7 -19 -15 rrcurveto
          -40 -33 rlineto
          -11 -9 -13 -5 -13 0 -13 0 -12 5 -9 10 rrcurveto
          -116 147 rlineto
          -6 8 -3 8 0 10 0 16 8 15 15 14 rrcurveto
          182 149 rlineto
          12 9 13 5 13 0 14 0 11 -5 8 -11 8 -10 9 -11 8 -11 13 -13 15 -7 17 0 rrcurveto
          2006 hlineto
          18 0 19 7 19 14 rrcurveto
          39 33 rlineto
          12 9 13 5 13 0 14 0 11 -5 8 -10 rrcurveto
          118 -149 rlineto
          5 -8 3 -8 0 -9 0 -17 -7 -15 -15 -14 rrcurveto
          -180 -147 rlineto
          -11 -9 -13 -5 -13 0 rrcurveto
          -213 -331 rmoveto
          17 0 18 7 20 14 rrcurveto
          553 456 rlineto
          23 20 11 23 0 24 0 13 -4 11 -8 10 rrcurveto
          -359 458 rlineto
          -13 13 -14 7 -17 0 -20 0 -18 -7 -17 -13 -22 -18 -11 -21 0 -26 0 -12 4 -12 7 -12 33 -41 17 -23 1 -4 0 -4 0 -3 0 -2 0 -18 -7 -15 -15 -12 -11 -9 -12 -5 -13 0 rrcurveto
          -1908 hlineto
          -13 0 -10 4 -7 9 -6 9 -4 9 0 9 0 17 7 14 15 13 rrcurveto
          66 53 rlineto
          22 21 12 22 0 23 0 13 -4 12 -8 10 -10 13 -15 6 -19 0 -17 0 -18 -7 -20 -14 rrcurveto
          -553 -458 rlineto
          -23 -19 -11 -21 0 -24 0 -13 4 -12 8 -12 rrcurveto
          359 -456 rlineto
          13 -13 14 -7 17 0 19 0 19 7 16 14 22 18 11 21 0 24 0 13 -4 14 -10 12 -33 42 -17 26 0 10 0 17 8 15 15 12 12 10 12 5 12 0 rrcurveto
          1912 hlineto
          13 0 10 -4 7 -9 7 -9 4 -9 0 -10 0 -15 -7 -14 -14 -13 rrcurveto
          -67 -55 rlineto
          -25 -21 -12 -22 0 -26 0 -12 4 -11 8 -10 10 -13 15 -7 19 0 rrcurveto
          endchar
        </CharString>
        <CharString name="left_right_arrow_double_alt">
          0 718 471 rmoveto
          -2429 hlineto
          -74 94 rlineto
          -6 9 -3 9 0 9 0 17 7 14 14 12 rrcurveto
          115 95 rlineto
          2421 hlineto
          76 -98 rlineto
          7 -8 3 -9 0 -10 0 -17 -7 -14 -14 -12 rrcurveto
          -434 -491 rmoveto
          17 0 19 7 20 15 rrcurveto
          554 456 rlineto
          24 22 12 23 0 23 0 13 -4 11 -8 10 rrcurveto
          -359 457 rlineto
          -12 13 -14 6 -16 0 -20 0 -19 -7 -17 -14 -24 -19 -11 -22 0 -25 0 -12 3 -12 7 -11 rrcurveto
          106 -135 rlineto
          -2141 hlineto
          168 138 rlineto
          23 22 12 23 0 24 0 12 -4 10 -7 9 -10 13 -14 6 -18 0 -18 0 -19 -7 -19 -15 rrcurveto
          -554 -457 rlineto
          -24 -20 -12 -23 0 -25 0 -13 4 -11 7 -10 rrcurveto
          360 -456 rlineto
          11 -13 14 -6 17 0 20 0 19 7 18 15 22 19 12 22 0 26 0 12 -4 11 -7 10 rrcurveto
          -109 138 rlineto
          2149 hlineto
          -103 -85 -56 -47 -11 -9 -24 -20 -13 -23 0 -25 0 -12 4 -11 7 -9 10 -13 14 -6 18 0 rrcurveto
          endchar
        </CharString>
        <CharString name="left_right_arrow_double_long">
          0 610 402 rmoveto
          -14 0 -11 5 -9 11 -8 10 -9 11 -9 11 -12 14 -15 7 -18 0 rrcurveto
          -3208 hlineto
          -19 0 -18 -7 -19 -15 rrcurveto
          -40 -33 rlineto
          -11 -9 -13 -5 -13 0 -13 0 -12 5 -9 10 rrcurveto
          -116 147 rlineto
          -6 8 -3 8 0 10 0 16 8 15 15 14 rrcurveto
          182 149 rlineto
          12 9 13 5 13 0 14 0 11 -5 8 -11 8 -10 9 -11 8 -11 13 -13 15 -7 17 0 rrcurveto
          3206 hlineto
          18 0 19 7 19 14 rrcurveto
          39 33 rlineto
          12 9 13 5 13 0 14 0 11 -5 8 -10 rrcurveto
          118 -149 rlineto
          5 -8 3 -8 0 -9 0 -17 -7 -15 -15 -14 rrcurveto
          -180 -147 rlineto
          -11 -9 -13 -5 -13 0 rrcurveto
          -213 -331 rmoveto
          17 0 18 7 20 14 rrcurveto
          553 456 rlineto
          23 20 11 23 0 24 0 13 -4 11 -8 10 rrcurveto
          -359 458 rlineto
          -13 13 -14 7 -17 0 -20 0 -18 -7 -17 -13 -22 -18 -11 -21 0 -26 0 -12 4 -12 7 -12 33 -41 17 -23 1 -4 0 -4 0 -3 0 -2 0 -18 -7 -15 -15 -12 -11 -9 -12 -5 -13 0 rrcurveto
          -3108 hlineto
          -13 0 -10 4 -7 9 -6 9 -4 9 0 9 0 17 7 14 15 13 rrcurveto
          66 53 rlineto
          22 21 12 22 0 23 0 13 -4 12 -8 10 -10 13 -15 6 -19 0 -17 0 -18 -7 -20 -14 rrcurveto
          -553 -458 rlineto
          -23 -19 -11 -21 0 -24 0 -13 4 -12 8 -12 rrcurveto
          359 -456 rlineto
          13 -13 14 -7 17 0 19 0 19 7 16 14 22 18 11 21 0 24 0 13 -4 14 -10 12 -33 42 -17 26 0 10 0 17 8 15 15 12 12 10 12 5 12 0 rrcurveto
          3112 hlineto
          13 0 10 -4 7 -9 7 -9 4 -9 0 -10 0 -15 -7 -14 -14 -13 rrcurveto
          -67 -55 rlineto
          -25 -21 -12 -22 0 -26 0 -12 4 -11 8 -10 10 -13 15 -7 19 0 rrcurveto
          endchar
        </CharString>
        <CharString name="left_right_arrow_double_long_alt">
          0 394 71 rmoveto
          17 0 19 7 20 15 rrcurveto
          554 456 rlineto
          24 22 12 23 0 23 0 13 -4 11 -8 10 rrcurveto
          -359 457 rlineto
          -12 13 -14 6 -16 0 -20 0 -19 -7 -17 -14 -24 -19 -11 -22 0 -25 0 -12 3 -12 7 -11 rrcurveto
          106 -135 rlineto
          -3341 hlineto
          168 138 rlineto
          23 22 12 23 0 24 0 12 -4 10 -7 9 -10 13 -14 6 -18 0 -18 0 -19 -7 -19 -15 rrcurveto
          -554 -457 rlineto
          -24 -20 -12 -23 0 -25 0 -13 4 -11 7 -10 rrcurveto
          360 -456 rlineto
          11 -13 14 -6 17 0 20 0 19 7 18 15 22 19 12 22 0 26 0 12 -4 11 -7 10 rrcurveto
          -109 138 rlineto
          3349 hlineto
          -103 -85 -56 -47 -11 -9 -24 -20 -13 -23 0 -25 0 -12 4 -11 7 -9 10 -13 14 -6 18 0 rrcurveto
          324 400 rmoveto
          -3629 hlineto
          -74 94 rlineto
          -6 9 -3 9 0 9 0 17 7 14 14 12 rrcurveto
          115 95 rlineto
          3621 hlineto
          76 -98 rlineto
          7 -8 3 -9 0 -10 0 -17 -7 -14 -14 -12 rrcurveto
          endchar
        </CharString>
        <CharString name="left_right_arrow_single">
          0 -1683 458 rmoveto
          -14 0 -11 5 -8 10 rrcurveto
          -71 89 rlineto
          -5 8 -3 8 0 9 0 17 7 15 16 14 rrcurveto
          109 89 rlineto
          11 9 13 5 13 0 13 0 12 -5 9 -10 rrcurveto
          69 -89 rlineto
          7 -7 3 -9 0 -10 0 -17 -8 -15 -16 -14 rrcurveto
          -108 -88 rlineto
          -12 -9 -13 -5 -13 0 rrcurveto
          114 -387 rmoveto
          20 0 18 7 17 13 22 18 11 22 0 24 0 12 -4 12 -8 12 rrcurveto
          -89 113 rlineto
          -5 8 -3 8 0 9 0 17 7 15 16 14 rrcurveto
          138 118 rlineto
          14 10 16 9 19 7 20 7 16 4 15 0 rrcurveto
          2381 hlineto
          19 0 19 7 16 14 22 18 12 22 0 25 0 13 -4 11 -8 10 -11 13 -15 7 -19 0 rrcurveto
          -2380 hlineto
          -15 0 -16 4 -16 7 -15 7 -13 9 -9 11 rrcurveto
          -90 115 rlineto
          -6 8 -3 9 0 10 0 15 8 15 15 13 rrcurveto
          137 113 rlineto
          22 20 11 23 0 25 0 13 -4 11 -8 10 -11 13 -14 6 -18 0 -17 0 -18 -7 -20 -14 rrcurveto
          -553 -458 rlineto
          -23 -19 -12 -22 0 -24 0 -12 4 -13 8 -12 rrcurveto
          359 -456 rlineto
          13 -13 15 -6 17 0 rrcurveto
          endchar
        </CharString>
        <CharString name="left_right_arrow_single_alt">
          0 394 71 rmoveto
          17 0 19 7 20 14 rrcurveto
          553 456 rlineto
          24 22 12 22 0 23 0 13 -3 12 -8 10 rrcurveto
          -359 458 rlineto
          -12 13 -14 6 -16 0 -19 0 -19 -7 -18 -15 -24 -18 -11 -22 0 -26 0 -13 3 -11 7 -11 rrcurveto
          204 -262 rlineto
          5 -8 3 -8 0 -7 0 -15 -6 -13 -11 -9 -9 -8 -11 -4 -11 0 rrcurveto
          -2326 hlineto
          -14 0 -10 4 -6 9 -6 9 -3 8 0 9 0 13 6 12 12 11 rrcurveto
          316 262 rlineto
          23 21 12 23 0 25 0 13 -4 10 -7 9 -11 13 -14 6 -17 0 -18 0 -19 -7 -19 -15 rrcurveto
          -554 -458 rlineto
          -24 -20 -12 -23 0 -24 0 -12 4 -12 8 -11 rrcurveto
          358 -456 rlineto
          12 -12 14 -6 17 0 21 0 19 7 17 14 22 18 12 23 0 26 0 12 -4 11 -7 10 rrcurveto
          -209 266 rlineto
          -5 8 -3 8 0 7 0 13 6 12 11 12 8 8 10 4 13 0 rrcurveto
          2338 hlineto
          26 0 13 -13 0 -27 0 -12 -6 -12 -12 -11 rrcurveto
          -322 -266 rlineto
          -23 -21 -12 -23 0 -26 0 -12 3 -10 7 -8 9 -12 15 -6 19 0 rrcurveto
          endchar
        </CharString>
        <CharString name="left_right_arrow_single_long">
          0 -2883 458 rmoveto
          -14 0 -11 5 -8 10 rrcurveto
          -70 88 rlineto
          -6 8 -3 9 0 10 0 18 8 15 17 12 rrcurveto
          107 89 rlineto
          11 9 13 5 13 0 13 0 12 -5 9 -10 rrcurveto
          71 -89 rlineto
          5 -8 3 -8 0 -9 0 -17 -7 -15 -16 -14 rrcurveto
          -109 -89 rlineto
          -12 -9 -13 -5 -13 0 rrcurveto
          3562 hmoveto
          -14 0 -11 5 -8 10 rrcurveto
          -71 89 rlineto
          -5 8 -3 8 0 9 0 17 7 15 16 14 rrcurveto
          109 89 rlineto
          11 9 13 5 13 0 13 0 12 -5 9 -10 rrcurveto
          69 -89 rlineto
          7 -7 3 -9 0 -10 0 -17 -8 -15 -16 -14 rrcurveto
          -108 -88 rlineto
          -12 -9 -13 -5 -13 0 rrcurveto
          -282 -387 rmoveto
          18 0 18 7 18 13 rrcurveto
          553 456 rlineto
          23 21 12 23 0 22 0 13 -4 12 -8 11 rrcurveto
          -359 458 rlineto
          -13 13 -14 7 -17 0 -18 0 -18 -7 -18 -13 -23 -18 -11 -21 0 -25 0 -13 4 -13 7 -12 rrcurveto
          89 -113 rlineto
          5 -8 3 -8 0 -9 0 -17 -7 -15 -15 -13 rrcurveto
          -140 -115 rlineto
          -13 -10 -16 -9 -19 -7 -19 -7 -17 -4 -15 0 rrcurveto
          -2880 hlineto
          -15 0 -16 4 -16 7 -15 7 -13 9 -9 11 rrcurveto
          -90 115 rlineto
          -6 8 -3 9 0 10 0 15 8 15 15 13 rrcurveto
          137 113 rlineto
          22 20 11 23 0 25 0 13 -4 11 -8 10 -11 13 -14 6 -18 0 -17 0 -18 -7 -20 -14 rrcurveto
          -553 -458 rlineto
          -23 -19 -12 -22 0 -24 0 -12 4 -13 8 -12 rrcurveto
          359 -456 rlineto
          13 -13 15 -6 17 0 20 0 18 7 17 13 22 18 11 22 0 24 0 12 -4 12 -8 12 rrcurveto
          -89 113 rlineto
          -5 8 -3 8 0 9 0 17 7 15 16 14 rrcurveto
          138 118 rlineto
          14 10 16 9 19 7 20 7 16 4 15 0 rrcurveto
          2881 hlineto
          15 0 16 -4 16 -7 15 -7 13 -9 9 -11 rrcurveto
          90 -118 rlineto
          5 -8 3 -8 0 -9 0 -17 -7 -15 -16 -14 rrcurveto
          -137 -113 rlineto
          -22 -21 -11 -22 0 -24 0 -12 4 -11 7 -9 10 -13 15 -7 20 0 rrcurveto
          endchar
        </CharString>
        <CharString name="left_right_arrow_single_long_alt">
          0 394 71 rmoveto
          17 0 19 7 20 14 rrcurveto
          553 456 rlineto
          24 22 12 22 0 23 0 13 -3 12 -8 10 rrcurveto
          -359 458 rlineto
          -12 13 -14 6 -16 0 -19 0 -19 -7 -18 -15 -24 -18 -11 -22 0 -26 0 -13 3 -11 7 -11 rrcurveto
          204 -262 rlineto
          5 -8 3 -8 0 -7 0 -15 -6 -13 -11 -9 -9 -8 -11 -4 -11 0 rrcurveto
          -3526 hlineto
          -14 0 -10 4 -6 9 -6 9 -3 8 0 9 0 13 6 12 12 11 rrcurveto
          316 262 rlineto
          23 21 12 23 0 25 0 13 -4 10 -7 9 -11 13 -14 6 -17 0 -18 0 -19 -7 -19 -15 rrcurveto
          -554 -458 rlineto
          -24 -20 -12 -23 0 -24 0 -12 4 -12 8 -11 rrcurveto
          358 -456 rlineto
          12 -12 14 -6 17 0 21 0 19 7 17 14 22 18 12 23 0 26 0 12 -4 11 -7 10 rrcurveto
          -209 266 rlineto
          -5 8 -3 8 0 7 0 13 6 12 11 12 8 8 10 4 13 0 rrcurveto
          3538 hlineto
          26 0 13 -13 0 -27 0 -12 -6 -12 -12 -11 rrcurveto
          -322 -266 rlineto
          -23 -21 -12 -23 0 -26 0 -12 3 -10 7 -8 9 -12 15 -6 19 0 rrcurveto
          endchar
        </CharString>
        <CharString name="leftfiveeighthsblock">
          0 -600 vmoveto
          750 2640 -750 hlineto
          endchar
        </CharString>
        <CharString name="lefthalfblock">
          0 -600 vmoveto
          600 2640 -600 hlineto
          endchar
        </CharString>
        <CharString name="leftoneeighthblock">
          0 -600 vmoveto
          150 2640 -150 hlineto
          endchar
        </CharString>
        <CharString name="leftonequarterblock">
          0 -600 vmoveto
          300 2640 -300 hlineto
          endchar
        </CharString>
        <CharString name="leftrightarrow">
          0 311 85 rmoveto
          172 hlineto
          -305 383 rlineto
          -17 20 -16 18 -17 17 -16 18 -15 13 -12 11 rrcurveto
          41 vlineto
          28 -2 28 -2 27 -3 27 -3 24 -1 21 0 rrcurveto
          720 hlineto
          22 0 25 1 26 2 27 2 27 2 28 2 rrcurveto
          -41 vlineto
          -15 -12 -17 -14 -16 -17 -17 -16 -15 -16 -13 -17 rrcurveto
          -305 -386 rlineto
          174 hlineto
          450 575 -452 575 rlineto
          -172 hlineto
          305 -383 rlineto
          17 -20 16 -18 17 -17 16 -18 15 -13 12 -11 rrcurveto
          -42 vlineto
          -28 4 -28 3 -26 2 -26 2 -25 1 -22 0 rrcurveto
          -720 hlineto
          -21 0 -24 -1 -27 -1 -27 -1 -28 -3 -28 -4 rrcurveto
          42 vlineto
          15 12 17 14 16 17 17 16 15 16 13 17 rrcurveto
          305 386 rlineto
          -174 hlineto
          -450 -575 rlineto
          endchar
        </CharString>
        <CharString name="leftseveneighthsblock">
          0 -600 vmoveto
          1050 2640 -1050 hlineto
          endchar
        </CharString>
        <CharString name="leftthreeeighthsblock">
          0 -600 vmoveto
          400 2640 -400 hlineto
          endchar
        </CharString>
        <CharString name="leftthreequartersblock">
          0 -600 vmoveto
          900 2640 -900 hlineto
          endchar
        </CharString>
        <CharString name="leftwardsarrow">
          0 551 85 rmoveto
          172 hlineto
          -305 383 rlineto
          -17 20 -16 18 -17 17 -16 18 -15 13 -12 11 rrcurveto
          41 vlineto
          28 -2 28 -2 27 -3 27 -3 24 -1 21 0 rrcurveto
          645 130 -645 hlineto
          -21 0 -24 -1 -27 -1 -27 -1 -28 -3 -28 -4 rrcurveto
          42 vlineto
          15 12 17 14 16 17 17 16 15 16 13 17 rrcurveto
          305 386 rlineto
          -174 hlineto
          -450 -575 rlineto
          endchar
        </CharString>
        <CharString name="less">
          0 977 167 rmoveto
          19 0 19 7 18 15 24 19 11 23 0 26 0 18 -9 16 -17 12 rrcurveto
          -421 254 rlineto
          -13 10 -7 12 0 14 0 20 11 17 22 12 rrcurveto
          526 250 rlineto
          39 22 20 28 0 34 0 12 -3 10 -8 10 -10 12 -13 6 -17 0 -11 0 -12 -3 -12 -5 rrcurveto
          -766 -355 rlineto
          -31 -14 -18 -22 -6 -31 -2 -6 -1 -6 0 -5 0 -18 9 -14 17 -11 rrcurveto
          614 -362 rlineto
          8 -5 10 -2 10 0 rrcurveto
          endchar
        </CharString>
        <CharString name="less_greater">
          0 41 183 rmoveto
          -622 374 rlineto
          -12 7 -6 11 0 14 0 24 11 18 24 11 rrcurveto
          777 368 622 -369 rlineto
          14 -8 7 -11 0 -14 0 -23 -12 -18 -25 -11 rrcurveto
          -808 -525 rmoveto
          8 0 16 6 25 12 rrcurveto
          1030 488 rlineto
          37 18 19 27 0 36 0 20 -9 15 -18 11 rrcurveto
          -833 483 rlineto
          -16 8 -15 4 -13 0 -5 0 -13 -5 -21 -9 rrcurveto
          -1038 -482 rlineto
          -29 -13 -18 -21 -6 -30 -1 -6 -1 -6 0 -5 0 -19 9 -15 18 -12 rrcurveto
          825 -488 rlineto
          19 -11 16 -6 14 0 rrcurveto
          endchar
        </CharString>
        <CharString name="less_less">
          0 -70 167 rmoveto
          19 0 18 7 17 14 23 19 11 22 0 25 0 19 -10 17 -19 13 rrcurveto
          -421 254 rlineto
          -12 9 -5 10 0 13 0 22 11 17 24 13 rrcurveto
          526 250 rlineto
          38 22 19 27 0 34 0 12 -4 10 -7 10 -11 13 -14 7 -18 0 -11 0 -11 -3 -12 -5 rrcurveto
          -766 -355 rlineto
          -29 -13 -18 -21 -6 -30 -1 -6 -1 -5 0 -5 0 -19 9 -16 18 -12 rrcurveto
          614 -363 rlineto
          9 -4 9 -2 11 0 rrcurveto
          900 hmoveto
          19 0 18 7 17 14 23 19 11 22 0 25 0 19 -10 17 -19 13 rrcurveto
          -421 254 rlineto
          -12 9 -5 10 0 13 0 22 11 17 24 13 rrcurveto
          526 250 rlineto
          38 22 19 27 0 34 0 12 -4 10 -7 10 -11 13 -14 7 -18 0 -11 0 -11 -3 -12 -5 rrcurveto
          -766 -355 rlineto
          -29 -13 -18 -21 -6 -30 -1 -6 -1 -5 0 -5 0 -19 9 -16 18 -12 rrcurveto
          614 -363 rlineto
          9 -4 9 -2 11 0 rrcurveto
          endchar
        </CharString>
        <CharString name="less_less_less">
          0 -1120 167 rmoveto
          19 0 18 7 17 14 23 19 11 22 0 25 0 19 -10 17 -19 13 rrcurveto
          -421 254 rlineto
          -12 9 -5 10 0 13 0 22 11 17 24 13 rrcurveto
          526 250 rlineto
          38 22 19 27 0 34 0 12 -4 10 -7 10 -11 13 -14 7 -18 0 -11 0 -11 -3 -12 -5 rrcurveto
          -766 -355 rlineto
          -29 -13 -18 -21 -6 -30 -1 -6 -1 -5 0 -5 0 -19 9 -16 18 -12 rrcurveto
          614 -363 rlineto
          9 -4 9 -2 11 0 rrcurveto
          1800 hmoveto
          19 0 18 7 17 14 23 19 11 22 0 25 0 19 -10 17 -19 13 rrcurveto
          -421 254 rlineto
          -12 9 -5 10 0 13 0 22 11 17 24 13 rrcurveto
          526 250 rlineto
          38 22 19 27 0 34 0 12 -4 10 -7 10 -11 13 -14 7 -18 0 -11 0 -11 -3 -12 -5 rrcurveto
          -766 -355 rlineto
          -29 -13 -18 -21 -6 -30 -1 -6 -1 -5 0 -5 0 -19 9 -16 18 -12 rrcurveto
          614 -363 rlineto
          9 -4 9 -2 11 0 rrcurveto
          -900 hmoveto
          19 0 18 7 17 14 23 19 11 22 0 25 0 19 -10 17 -19 13 rrcurveto
          -421 254 rlineto
          -12 9 -5 10 0 13 0 22 11 17 24 13 rrcurveto
          526 250 rlineto
          38 22 19 27 0 34 0 12 -4 10 -7 10 -11 13 -14 7 -18 0 -11 0 -11 -3 -12 -5 rrcurveto
          -766 -355 rlineto
          -29 -13 -18 -21 -6 -30 -1 -6 -1 -5 0 -5 0 -19 9 -16 18 -12 rrcurveto
          614 -363 rlineto
          9 -4 9 -2 11 0 rrcurveto
          endchar
        </CharString>
        <CharString name="less_slash">
          0 -155 -310 rmoveto
          13 0 14 4 13 7 14 8 11 10 9 14 rrcurveto
          1150 1750 rlineto
          9 15 5 14 0 15 0 7 -2 8 -3 7 -8 21 -17 10 -26 0 -13 0 -14 -4 -13 -7 -14 -7 -11 -10 -8 -14 rrcurveto
          -898 -1366 -638 385 rlineto
          -12 9 -5 10 0 13 0 22 11 17 24 13 rrcurveto
          526 250 rlineto
          38 22 19 27 0 34 0 12 -4 10 -7 10 -11 13 -14 7 -18 0 -11 0 -11 -3 -12 -5 rrcurveto
          -766 -355 rlineto
          -29 -13 -18 -21 -6 -30 -1 -6 -1 -5 0 -5 0 -19 9 -16 18 -12 rrcurveto
          833 -494 -166 -254 rlineto
          -10 -14 -4 -14 0 -15 0 -8 1 -8 3 -7 9 -21 17 -11 25 0 rrcurveto
          endchar
        </CharString>
</ttFont>
